<svg width="1440" height="900" viewBox="0 0 1440 900" fill="none" xmlns="http://www.w3.org/2000/svg">
<g opacity="0.04">
<path d="M282.597 -32C260.312 11.0649 242.399 56.5867 230.054 104.18C215.698 159.525 208.121 216.634 193.533 271.918C179.561 324.874 160.26 379.214 129.866 423.74C98.7773 469.279 59.8571 506.07 16.7163 537.763C-33.1215 574.373 -87.5229 602.27 -142.921 627.451C-171.488 640.428 -200.495 652.013 -230.699 659.73C-251.539 665.04 -272.714 668.65 -294 671.16V672.415C-253.508 667.362 -213.791 658.27 -175.229 642.869C-127.838 623.945 -81.1821 601.101 -36.9109 574.804C49.2486 523.584 128.159 453.715 167.533 353.879C179.681 323.078 190.136 291.357 198.175 259.019C206.726 224.607 212.835 189.544 219.925 154.764C233.332 88.943 253.893 26.6624 284.119 -32H282.597Z" fill="#9E7D0A"/>
<path d="M305.797 -32C281.822 5.22856 263.231 46.7819 250.886 90.0766C247.218 102.943 243.5 115.783 240.351 128.81C236.816 143.472 234.854 158.434 231.418 173.112C228.251 186.623 225.188 200.158 222.668 213.831C221.544 219.943 220.819 224.84 217.906 230.219C215.474 234.732 215.308 242.723 214.221 247.828C202.953 300.93 184.195 351.463 158.904 398.541C153.282 408.992 147.715 419.528 141.853 429.832C134.882 442.087 125.279 452.022 117.129 463.323C102.383 483.768 83.7828 501.729 65.3766 518.22C52.0809 530.15 38.0514 541.08 23.6796 551.412C16.3666 556.67 8.90079 561.688 1.38071 566.604C-2.0004 568.805 -5.41415 570.953 -8.82791 573.103C-12.5292 575.422 -15.4235 579.581 -19.3162 582.005C-50.517 601.48 -82.5542 619.405 -115.612 634.91C-148.391 650.293 -182.28 662.807 -216.91 672.293C-226.305 674.855 -236.951 678.893 -246.689 678.893C-255.033 678.893 -262.857 681.782 -271.015 683.639C-278.623 685.357 -286.296 686.715 -294 687.763V689.035C-280.968 687.214 -268.032 684.617 -255.199 681.129C-249.441 679.565 -243.339 680.235 -237.471 678.893C-231.464 677.502 -225.491 675.989 -219.524 674.425C-206.828 671.092 -194.251 667.224 -181.761 663.031C-135.28 647.457 -90.7844 625.681 -47.9396 600.861C-37.1887 594.622 -26.5664 588.142 -15.9985 581.542C-11.2767 578.603 -7.84 574.1 -3.05426 571.074C2.87164 567.31 8.72574 563.427 14.5327 559.473C34.1594 546.117 52.9498 531.352 70.7027 515.231C89.1978 498.429 106.793 479.91 121.651 459.292C128.128 450.312 135.615 442.586 141.477 433.056C148.161 422.184 153.888 410.487 160.013 399.238C178.021 366.151 192.608 331.046 203.631 294.553C209.501 275.132 214.158 255.296 218.099 235.325C218.816 231.698 220.045 229.25 221.735 226.111C223.37 223.087 223.298 217.629 223.904 214.202C225.915 202.814 228.474 191.547 231.067 180.297C235.732 160.085 238.852 139.562 244.019 119.47C249.235 99.1959 255.249 79.1459 262.315 59.5344C273.967 27.196 289.024 -3.58719 307.376 -32H305.797Z" fill="#9E7D0A"/>
<path d="M323.797 -32C268.727 45.2168 251.827 142.663 229.113 235.504C216.52 286.991 201.622 337.962 178.851 385.35C155.498 433.957 122.83 477.606 85.7854 514.801C78.9252 521.693 71.637 528.035 63.9797 533.863C57.456 538.812 50.6611 542.25 44.9019 548.214C30.9691 562.618 15.026 574.564 -1.19543 585.719C-34.0702 608.32 -69.5786 627.588 -105.276 644.399C-165.316 672.672 -229.016 691.339 -294 699.314V700.74C-255.582 696.032 -217.635 687.607 -180.493 675.647C-130.75 659.627 -84.2999 636.319 -38.4169 610.366C-15.6868 597.509 6.34946 583.277 26.855 566.52C36.4168 558.716 44.7516 548.008 55.1268 541.596C64.9696 535.53 73.9499 527.897 82.4827 519.888C118.971 485.634 150.578 442.68 174.33 397.286C210.274 328.578 226.887 250.889 244.777 175.071C262.132 101.542 282.102 28.3203 325.432 -32H323.797Z" fill="#9E7D0A"/>
<path d="M341.934 -32C283.474 45.2344 262.824 145.388 238.899 240.035C224.806 295.809 207.811 350.33 182.112 401.231C157.158 450.672 121.771 494.124 83.0086 531.472C28.9437 583.587 -34.5406 625.37 -100.283 657.77C-135.719 675.233 -173.187 686.199 -210.959 695.945C-238.34 702.993 -266.063 708.234 -294 711.552V712.908C-253.054 707.924 -212.729 698.677 -172.836 686.973C-122.822 672.312 -76.1885 648.919 -31.3588 621.022C54.9034 567.362 136.414 494.691 184.696 399.024C221.248 326.609 238.061 246.489 258.295 167.648C276.543 96.5753 299.927 25.3297 343.608 -32H341.934Z" fill="#9E7D0A"/>
<path d="M364.385 -32C353.57 -19.2727 343.497 -5.8563 334.326 8.36637C327.443 19.0217 322.258 32.7466 313.788 41.908C306.436 49.8585 302.416 64.6913 298.483 74.9862C278.76 126.637 268.759 181.526 255.918 235.427C242.822 290.404 225.5 345.861 200.209 395.739C176.562 442.369 145.37 485.264 110.566 522.672C81.1191 554.316 48.1326 582.298 14.0048 607.771C-20.0904 633.226 -56.8415 654.419 -95.0116 671.762C-158.328 700.552 -225.785 717.635 -294 725.524V726.935C-213.169 717.499 -133.804 694.983 -60.4852 656.362C-38.7763 644.93 -17.7775 631.937 2.49597 617.756C12.3472 610.864 21.958 603.594 31.4088 596.066C40.9706 588.453 51.14 576.213 62.2091 571.762C65.4955 570.438 68.2383 566.037 70.6949 563.528C75.1377 558.973 79.7549 554.626 84.3728 550.294C94.3508 540.927 104.145 531.524 113.523 521.452C129.833 503.921 144.924 485.109 158.96 465.419C184.793 429.196 206.558 389.965 222.819 347.716C240.414 301.997 253.135 254.351 263.966 206.311C274.676 158.804 285.037 111.098 303.388 66.2036C305.518 60.9952 307.814 55.856 310.16 50.7519C312.727 45.1662 316.971 41.4701 319.714 36.1843C325.017 25.9583 330.896 16.1007 337.101 6.49219C345.865 -7.10238 355.643 -19.8733 366.076 -32H364.385Z" fill="#9E7D0A"/>
<path d="M381.972 -32C370.159 -19.384 358.843 -6.25187 348.497 7.84182C333.656 28.0543 321.827 50.83 310.766 73.6296C305.366 84.7492 302.217 97.1065 298.739 109.036C294.504 123.533 289.718 138.049 286.384 152.822C280.259 179.903 274.142 206.981 267.427 233.897C253.772 288.583 236.96 342.362 213.034 392.861C190.703 439.99 161.073 483.587 127.074 521.608C113.651 536.612 99.2791 550.586 84.3251 563.769C80.6892 566.983 78.2163 570.748 75.3207 574.701C71.7011 579.634 65.4465 583.432 60.8064 587.248C52.4154 594.123 44.0251 601.016 35.5478 607.788C0.805756 635.512 -37.4598 659.541 -76.9549 678.516C-145.535 711.447 -219.366 730.545 -294 738.056V739.448C-203.168 730.253 -114.184 703.8 -33.799 656.326C-10.3751 642.492 12.0676 627.982 33.6642 610.984C43.8892 602.941 53.9234 594.621 63.9961 586.372C68.1678 582.952 72.6974 579.873 76.2386 575.681C80.7598 570.318 84.5493 565.403 89.7806 560.727C125.942 528.466 157.229 490.333 183.645 448.517C231.848 372.2 257.29 284.421 277.962 195.602C288.985 148.224 298.245 98.0537 321.669 55.7524C332.611 35.9872 342.803 17.0891 356.593 -0.692257C365.096 -11.6574 374.267 -21.9959 383.734 -32H381.972Z" fill="#9E7D0A"/>
<path d="M258.757 -32C239.457 12.6721 226.521 60.0681 214.813 107.687C207.954 135.557 202.762 163.865 197.688 192.166C192.592 220.672 188.462 249.763 180.925 277.659C166.274 331.844 145.873 382.943 113.778 427.726C85.8083 466.752 50.797 499.083 12.7046 526.025C-37.3957 561.484 -93.5043 587.334 -148.113 613.425C-162.062 620.094 -176.026 626.712 -189.975 633.381C-204.555 640.359 -221.774 642.834 -237.286 646.683C-256.06 651.343 -274.947 655.519 -294 658.407V659.799C-280.242 657.701 -266.564 654.97 -252.942 651.858C-240.118 648.935 -227.357 645.636 -214.597 642.387C-208.215 640.753 -201.843 639.138 -195.463 637.522C-189.433 636.028 -183.044 631.592 -177.367 628.877C-127.01 604.848 -76.5315 581.095 -27.8424 553.251C52.0006 507.617 124.003 439.036 159.446 347.338C171.41 316.382 181.786 283.984 188.215 251.146C194.891 217.08 200.369 182.755 207.116 148.697C219.278 87.3611 235.222 24.9868 260.154 -32H258.757Z" fill="#9E7D0A"/>
<path d="M26.5348 -32C13.6703 -24.3346 0.71109 -16.8496 -11.636 -8.27249C-31.8377 5.76151 -51.386 21.2815 -70.1124 37.4902C-88.6709 53.5616 -107.318 68.4037 -124.529 86.2545C-140.328 102.624 -154.955 120.285 -168.154 139.158C-193.35 175.166 -211.294 216.496 -235.244 253.475C-251.691 278.871 -270.935 302.236 -294 320.045V321.823C-275.234 307.549 -258.917 289.588 -244.72 269.674C-218.982 233.563 -200.455 192.716 -177.032 155.005C-149.389 110.487 -113.26 75.099 -74.2108 42.7154C-54.3764 26.2661 -34.5981 9.86093 -13.7496 -5.11839C0.0165405 -15.0015 14.6745 -23.3546 29.1744 -32H26.5348Z" fill="#9E7D0A"/>
<path d="M403.513 -32C389.923 -19.0319 376.699 -5.97731 365.214 9.74133C350.668 29.653 338.609 51.5755 328.001 74.1696C305.422 122.269 294.313 174.522 281.767 226.379C269.596 276.679 255.241 326.49 235.429 373.947C225.771 397.071 214.613 419.441 202.051 440.876C195.926 451.333 189.338 461.466 182.48 471.366C178.444 477.193 174.225 482.866 169.934 488.469C166.553 492.896 164.328 498.808 160.914 502.933C102.573 573.497 36.7121 638.675 -42.4938 680.578C-62.5028 691.149 -83.2957 699.916 -104.551 707.047C-115.053 710.588 -125.702 713.545 -136.42 716.175C-147.37 718.856 -157.165 720.608 -167.15 726.316C-178.539 732.848 -194.019 733.964 -206.549 736.715C-219.612 739.568 -232.724 742.164 -245.86 744.57C-261.85 747.491 -277.905 750.017 -294 752.167V753.541C-279.987 751.651 -265.997 749.502 -252.048 747.078C-225.243 742.403 -196.891 738.363 -170.907 729.667C-167.086 728.395 -163.568 725.801 -160.02 723.875C-154.325 720.799 -147.682 720.163 -141.524 718.805C-129.832 716.193 -118.26 712.925 -106.814 709.248C-86.1835 702.648 -66.1093 694.105 -46.6243 684.256C33.2428 643.865 99.5666 578.328 158.203 508.269C165.062 500.079 169.959 490.764 176.379 482.117C183.628 472.365 190.423 462.214 196.924 451.867C210.138 430.829 221.583 408.536 231.8 385.642C251.883 340.609 266.271 292.843 278.536 244.734C292.144 191.417 302.041 136.752 323.918 86.3913C334.31 62.4652 346.521 39.4931 360.932 18.1367C373.883 -1.07953 389.173 -16.6256 405.33 -32H403.513Z" fill="#9E7D0A"/>
<path d="M421.243 -32C394.062 -8.29705 371.077 20.4495 352.43 52.5984C340.866 72.5454 331.294 93.7995 323.199 115.636C313.278 142.416 309.147 171.385 303.133 199.358C301.681 206.113 300.054 212.818 298.308 219.486C297.287 223.379 296.034 227.022 293.962 230.419C293.339 231.432 291.887 233.777 291.672 235.041C290.787 240.36 291.25 245.706 290.172 251.069C288.498 259.465 285.068 267.5 281.911 275.32C272.284 299.195 266.581 325.175 257.8 349.514C238.603 402.762 213.313 452.279 179.512 496.28C164.998 515.179 149.342 533.02 133.343 550.431C125.614 558.836 117.759 567.12 109.888 575.354C105.517 579.927 101.138 584.482 96.752 589.036C93.3937 592.525 88.585 594.003 85.4574 597.354C68.614 615.454 50.5338 631.989 31.4167 647.199C12.1709 662.515 -8.12549 678 -29.6764 689.224C-112.821 732.538 -202.975 753.198 -294 765.418V766.811C-253.492 761.379 -213.183 754.298 -173.37 744.416C-121.203 731.472 -71.2283 712.771 -23.1448 687.334C-1.18692 675.731 19.6289 658.596 39.1053 642.748C57.6945 627.606 73.8617 608.39 93.1062 594.742C97.1655 591.854 100.756 586.819 104.256 583.174C108.61 578.636 112.951 574.1 117.272 569.544C126.515 559.834 135.648 550.002 144.628 539.998C161.927 520.765 178.397 500.689 193.63 479.496C221.679 440.464 242.288 395.731 259.045 349.882C268.272 324.616 274.253 297.776 284.271 272.932C288.075 263.512 292.565 253.003 292.565 242.543C292.565 238.435 293.052 234.655 295.077 231.122C295.732 229.98 297.327 227.805 297.694 226.499C299.584 219.864 301.29 213.196 302.87 206.466C309.195 179.462 313.253 151.92 321.293 125.39C328.384 101.972 339.103 79.4218 350.723 58.2975C369.721 23.7499 394.253 -7.04257 423.277 -32H421.243Z" fill="#9E7D0A"/>
<path d="M447.138 -32C417.685 -8.71805 391.494 18.7739 370.343 51.3369C356.115 73.2241 344.98 100.063 337.228 125.373C328.759 153.002 321.907 180.907 314.968 209.017C308.046 237.019 300.621 264.871 292.191 292.38C288.155 305.581 283.792 318.66 279.183 331.636C276.87 338.162 274.438 344.622 271.957 351.076C269.157 358.382 267.906 365.892 264.62 373.103C252.737 399.161 242.567 426.808 227.852 451.154C220.675 463.022 213.92 476.025 205.417 486.802C197.522 496.822 189.563 506.782 181.547 516.691C122.249 589.913 57.2097 659.953 -23.6871 704.746C-69.5701 730.148 -120.262 745.393 -170.277 757.977C-211.078 768.237 -252.449 775.611 -294 781.369V782.726C-253.412 777.089 -213.025 769.854 -173.084 760.09C-123.579 748.007 -73.732 732.762 -27.994 708.63C54.5048 665.091 120.631 593.606 180.605 519.958C188.03 510.83 195.368 501.634 202.673 492.413C210.019 483.148 215.842 473.207 222.094 463.056C229.257 451.411 236.011 439.99 241.707 427.426C247.879 413.83 253.899 400.14 260.002 386.51C262.865 380.115 265.751 373.739 268.67 367.371C270.736 362.852 270.521 359.406 271.94 354.677C276.231 340.412 282.437 326.592 287.151 312.437C296.219 285.212 303.916 257.463 311.109 229.592C318.391 201.404 324.475 172.871 332.674 144.977C340.968 116.77 351.169 90.1207 364.625 64.2957C384.739 25.7 415.699 -6.12375 449.172 -32H447.138Z" fill="#9E7D0A"/>
<path d="M466.496 -32C465.896 -31.5353 465.331 -31.0545 464.861 -30.5476C456.445 -21.4376 445.783 -14.9064 436.476 -6.86305C427.67 0.751015 419.481 9.14846 411.655 17.9044C407.58 22.4594 403.696 27.2137 399.86 31.9988C395.951 36.8728 393.384 42.707 389.325 47.4768C382.808 55.1258 378.821 66.1522 373.948 75.0904C367.121 87.6111 361.291 100.752 356.011 114.116C346.535 138.092 339.597 163.161 333.177 188.263C326.422 214.691 320.296 241.288 312.832 267.5C309.274 280.005 304.657 291.993 301.188 304.514C297.24 318.772 291.154 332.917 288.131 347.338C285.156 361.519 278.951 374.727 273.337 387.911C267.491 401.644 261.222 415.163 254.77 428.578C242.128 454.857 229.28 480.691 211.822 503.646C195.799 524.719 177.647 544.073 160.013 563.563C141.773 583.724 123.134 603.438 104.089 622.706C83.9187 643.109 63.3819 662.703 41.3378 680.699C31.384 688.829 21.2394 696.649 10.6485 703.765C5.74316 707.083 0.678345 711.155 -5.2312 711.517C-8.89981 711.74 -14.7067 717.671 -17.952 719.663C-29.4216 726.677 -41.9744 731.438 -54.3293 736.25C-66.9534 741.166 -79.2678 746.993 -92.1238 751.135C-117.758 759.402 -144.715 763.7 -170.85 769.749C-211.742 779.255 -252.734 788.243 -294 795.583V796.975C-252.623 789.619 -211.517 780.594 -170.508 771.108C-144.307 765.041 -117.582 760.365 -91.7808 752.476C-79.8427 748.833 -68.5005 743.28 -56.8558 738.709C-45.3405 734.205 -33.848 729.736 -22.8097 723.977C-17.1078 720.987 -11.7079 717.448 -6.46799 713.632C-4.32169 712.067 -3.34955 713.253 -1.30783 712.652C-0.223267 712.324 2.56134 710.485 3.17419 710.124C15.026 703.094 26.1114 694.621 36.9753 685.959C57.639 669.492 76.8365 651.72 95.7457 632.951C114.984 613.872 133.725 594.21 152.125 574.203C170.675 554.005 189.753 533.812 206.861 512.172C240.365 469.786 263.399 417.337 283.609 366.348C288.091 355.03 290.54 343.153 294.576 331.636C299.568 317.431 302.328 302.401 307.648 288.333C317.058 263.488 322.554 236.511 328.934 210.618C335.378 184.474 341.973 158.365 350.532 132.918C355.037 119.539 360.271 106.466 366.108 93.7036C371.755 81.3538 378.964 69.968 384.539 57.6097C386.797 52.5984 390.433 49.0235 393.32 44.5374C396.964 38.882 400.458 33.3308 404.685 28.1408C412.852 18.1212 421.65 8.74373 430.94 -0.0480976C443.334 -11.77 456.774 -22.4514 470.786 -32H466.496Z" fill="#9E7D0A"/>
<path d="M418.044 659.455C453.304 695.171 497.393 721.402 540.969 743.092C587.076 766.038 638.112 773.342 688.27 777.175C714.66 779.187 741.091 780.184 767.49 781.988C792.964 783.724 818.502 785.615 843.098 793.452C886.15 807.169 922.821 836.973 955.775 868.976C972.189 884.927 987.869 901.738 1003.68 918.391C1011.62 926.747 1019.44 935.27 1027.95 942.937C1038.21 952.2 1049.09 960.83 1057.56 971.917C1062.17 977.914 1069.2 982.555 1074.83 987.435C1081.92 993.571 1089.01 999.725 1096.1 1005.86C1103.04 1011.89 1109.94 1017.98 1116.88 1024.03H1118.92C1102.78 1009.92 1086.62 995.858 1070.42 981.832C1061.02 973.702 1053.57 964.249 1044.32 955.896C1034.03 946.616 1023.77 937.454 1014.12 927.399C983.147 895.153 953.127 861.586 918.387 833.981C883.885 806.551 845.283 788.45 802.534 783.656C749.944 777.778 696.915 778.344 644.411 771.279C617.32 767.653 590.538 761.518 564.681 751.944C540.22 742.902 516.748 729.582 494.25 715.917C471.807 702.288 450.464 686.613 430.486 669.063C409.734 650.809 395.251 628.551 388.614 600.207C374.737 540.927 419.209 492.217 450.377 450.356C483.283 406.165 514.484 360.529 545.827 315.043C553.676 303.655 561.539 292.268 569.426 280.916C573.98 274.366 578.614 268.172 583.981 262.362C588.122 257.884 592.842 253.716 595.825 248.207C602.03 236.76 612.51 227.41 621.139 217.983C631.269 206.903 641.915 197.057 653.352 187.611C663.401 179.311 672.837 170.68 683.668 163.531C695.391 155.796 707.626 148.989 720.02 142.614C745.206 129.644 771.542 120.759 798.227 112.191C849.383 95.7768 901.367 82.6695 952.123 64.7855C975.157 56.6739 997.71 47.1604 1019.1 34.7929C1034.06 26.1468 1055.92 14.5115 1041.89 -6.02826C1034.61 -16.6942 1022.48 -22.4178 1011.41 -27.0059C1007.52 -28.6216 1003.66 -30.2972 999.801 -31.9995H995.015C995.446 -31.8024 995.892 -31.5877 996.323 -31.3884C1008.38 -25.9485 1020.77 -22.5283 1031.7 -14.494C1037.81 -10.0165 1044.99 -2.42721 1045.58 6.00343C1046.31 16.5391 1036.36 22.2452 1029.31 26.8952C1017.92 34.3895 1005.93 40.7574 993.723 46.55C945.168 69.5637 892.658 82.3355 841.711 97.4168C815.534 105.161 789.454 113.291 763.63 122.305C739.496 130.718 716.511 142.037 694.291 155.263C672.39 168.301 651.908 185.17 633.375 203.287C624.33 212.121 615.932 221.695 607.446 231.14C598.657 240.912 591.957 251.766 583.073 261.381C564.809 281.14 550.461 305.993 535.043 328.381C519.11 351.508 503.166 374.616 486.976 397.537C470.045 421.513 452.769 445.226 435.056 468.531C420.023 488.315 405.156 507.754 395.121 531.198C376.635 574.41 385.72 626.712 418.044 659.455Z" fill="#9E7D0A"/>
<path d="M497.982 -32C493.868 -29.4479 490.51 -26.7234 487.176 -23.1132C481.967 -17.4669 473.817 -13.7462 467.716 -9.22644C447.857 5.46087 430.343 23.5774 413.362 41.908C410.299 45.2076 408.857 50.4512 405.85 54.1121C402.746 57.8835 398.616 62.0006 396.087 66.1944C389.524 77.1093 382.362 86.984 377.042 98.7832C366.308 122.597 360.127 148.765 353.49 174.135C338.871 230.048 325.265 286.269 308.317 341.426C299.536 369.991 289.71 398.18 278.552 425.767C277.237 429.016 275.802 436.879 274.198 439.595C271.024 444.975 268.631 451.102 265.679 456.654C258.694 469.811 250.615 482.272 241.945 494.193C227.008 514.715 209.031 532.643 192.49 551.652C176.458 570.06 160.611 588.658 144.453 606.944C111.936 643.729 77.8014 679.048 38.9759 708.01C19.3492 722.656 -1.18042 734.602 -22.9847 744.895C-35.1319 750.636 -46.9673 754.933 -59.7358 758.733C-65.7336 760.52 -71.7477 762.204 -77.7925 763.819C-83.3676 765.298 -91.3104 765.436 -96.384 768.151C-108.418 774.632 -121.41 776.59 -134.466 779.547C-148.432 782.726 -162.389 785.957 -176.33 789.225C-202.889 795.48 -229.39 801.977 -255.838 808.733C-262.226 810.366 -268.614 812.016 -275.002 813.682C-281.024 815.265 -287.723 814.543 -294 815.351V816.674C-288.721 815.762 -283.418 815.521 -278.034 815.899C-272.347 816.278 -264.268 812.324 -258.685 810.897C-232.245 804.09 -205.735 797.611 -179.185 791.32C-166.337 788.28 -153.48 785.323 -140.616 782.365C-128.174 779.53 -113.938 778.292 -102.285 772.707C-90.7211 767.154 -77.6488 765.333 -65.4148 761.826C-53.4669 758.423 -41.4237 755.243 -30.0749 749.88C-8.16669 739.532 12.5857 728.43 32.6842 714.25C51.3067 701.119 68.8211 686.215 85.609 670.49C120.709 637.608 152.093 600.397 183.756 563.752C199.978 545 217.229 527.089 232.997 507.899C249.116 488.305 262.785 466.433 273.967 443.177C275.539 439.904 276.759 437.833 277.094 434.198C277.716 427.469 282.348 419.829 284.766 413.632C289.798 400.741 294.463 387.695 298.947 374.572C308.229 347.433 316.34 319.828 324.004 292.106C339.309 236.768 350.723 179.686 368.628 125.268C372.823 112.524 377.409 100.03 383.646 88.2727C389.931 76.4143 398.632 65.4735 406.758 55.0991C409.151 52.0493 411.433 50.038 412.716 46.2989C414.95 39.8029 422.726 33.8209 427.263 29.1033C437.281 18.688 447.722 8.7613 458.719 -0.426102C468.601 -8.67581 481.059 -14.5193 489.808 -23.9897C492.64 -27.0486 495.949 -29.6627 499.529 -32H497.982Z" fill="#9E7D0A"/>
<path d="M413.307 684.808C451.797 719.974 499.801 744.914 545.637 766.76C569.141 777.95 593.393 786.595 618.644 791.769C643.911 796.943 669.703 798.678 695.344 800.035C747.615 802.819 801.004 803.508 850.499 824.116C874.41 834.067 894.332 849.864 914.75 866.192C936.06 883.226 957.244 900.447 976.242 920.489C993.691 938.915 1012.1 955.123 1031.54 970.987C1052.6 988.176 1073.1 1006.17 1093.66 1024.03H1095.67C1079.35 1009.9 1063.03 995.79 1046.63 981.78C1026.93 964.954 1006.18 949.554 987.806 930.991C969.813 912.789 952.267 895.033 932.615 878.877C912.964 862.721 893.391 845.583 871.571 832.985C828.455 808.114 778.64 803.095 730.692 800.413C676.011 797.355 621.642 796.168 569.57 775.714C543.866 765.626 519.373 752.185 495.064 738.725C472.11 726.007 449.628 712.41 428.7 696.048C388.584 664.662 351.935 620.061 352.917 563.46C353.435 533.588 366.515 508.864 384.667 487.309C402.699 465.903 422.079 445.757 440.591 424.822C476.824 383.839 506.971 338.135 537.151 291.934C567.664 245.199 602.797 202.411 644.477 166.96C686.961 130.823 736.641 111.452 787.764 94.5904C836.463 78.536 886.835 65.9541 933.509 43.6614C949.141 36.1939 968.441 25.3484 970.833 4.98116C972.748 -11.3049 957.036 -23.4224 943.829 -31.9995H940.814C942.569 -30.7886 944.34 -29.5756 946.094 -28.3034C958.425 -19.3145 972.604 -8.71061 968.808 9.52701C966.017 22.9245 952.905 31.3551 942.601 37.371C931.418 43.9114 919.28 48.9993 907.396 53.8626C882.8 63.9266 856.848 70.914 831.645 78.9994C805.326 87.4398 778.96 95.7682 752.88 105.039C706.238 121.609 664.28 146.041 627.01 180.719C587.971 217.037 556.332 259.792 526.934 305.246C495.39 354.007 461.663 399.513 423.285 442.2C406.088 461.33 386.844 479.763 372.09 501.231C358.858 520.49 351.991 542.491 351.576 566.485C350.732 615.282 380.663 654.97 413.307 684.808Z" fill="#9E7D0A"/>
<path d="M531.28 -32C470.969 -2.20384 416.96 43.9622 388.623 110.273C378.86 133.116 373.692 157.867 367.68 182.068C360.661 210.29 353.778 238.556 346.695 266.751C332.563 322.966 317.394 378.895 298.906 433.631C294.185 447.613 289.774 461.785 282.381 474.417C274.549 487.816 265.314 500.811 255.719 512.764C247.871 522.535 239.186 531.525 230.477 540.377C220.897 550.122 211.615 560.762 201.414 569.717C160.531 605.622 125.655 649.297 86.9092 687.867C67.402 707.272 47.2004 725.679 25.0517 741.494C2.9357 757.272 -21.4768 765.471 -46.6407 773.583C-72.8074 782.022 -98.625 790.48 -125.502 795.911C-152.196 801.307 -179.065 805.57 -205.44 812.65C-227.572 818.616 -249.489 825.645 -271.478 832.177C-278.919 834.376 -286.472 836.559 -294 838.88V840.1C-280.162 835.786 -266.133 832.039 -252.432 827.948C-226.2 820.111 -200.073 812.084 -173.322 806.551C-146.365 800.963 -119.194 796.701 -92.459 789.859C-66.9456 783.345 -41.3766 773.72 -16.4525 764.92C29.7016 748.626 67.2256 710.124 101.776 674.77C120.974 655.108 139.563 634.79 158.306 614.629C176.953 594.588 196.939 576.453 215.969 556.946C233.587 538.865 251.667 521.521 266.55 500.638C274.27 489.802 282.038 478.612 288.155 466.614C294.352 454.47 298.029 440.351 302.383 427.357C320.72 372.605 335.538 316.563 349.622 260.393C356.705 232.154 363.588 203.862 370.614 175.605C376.97 150.063 383.024 124.901 394.118 101.172C413.491 59.7316 444.69 26.1464 479.933 0.288422C497.034 -12.2501 515.282 -22.9076 534.158 -32H531.28Z" fill="#9E7D0A"/>
<path d="M1666.06 224.703C1647.27 221.455 1628.64 216.959 1609.8 213.951C1599.94 212.379 1590.82 208.469 1580.94 206.218C1568.13 203.296 1555.49 199.659 1542.95 195.603C1491.38 178.905 1442.73 151.473 1394.27 126.464C1370.01 113.943 1345.67 101.56 1321.01 89.9839C1297.3 78.8625 1272.96 69.444 1249.26 58.3493C1238.36 53.2452 1227.66 47.692 1217.13 41.7535C1211.73 38.703 1206.4 35.4547 1201.12 32.1457C1194.79 28.1744 1185.53 23.8785 1181.21 17.3051C1172.2 3.545 1188.29 -7.96214 1197.35 -13.7879C1208.41 -20.8796 1220.58 -25.7513 1232.8 -29.8769C1234.98 -30.6161 1237.18 -31.3201 1239.4 -31.9995H1234.98C1232.38 -31.1737 1229.8 -30.3239 1227.21 -29.4207C1217.52 -26.0097 1208.14 -21.6962 1199.14 -16.4794C1192.78 -12.7741 1182.49 -7.80729 1179.68 0.0826263C1172.36 20.5696 1192.3 28.3469 1205.81 36.667C1226.56 49.4449 1248.48 59.8609 1270.63 69.4356C1321.29 91.3233 1370.52 115.816 1419.77 141.161C1466.16 165.025 1512.78 189.029 1562.68 203.011C1567.61 204.387 1572.58 205.634 1577.56 206.844C1583.14 208.203 1590.59 208.358 1595.55 211.503C1603.31 216.402 1613.24 215.842 1622.03 217.467C1636.74 220.182 1651.35 223.5 1666.06 226.06V224.703Z" fill="#9E7D0A"/>
<path d="M224.192 -32C223.345 -22.8984 222.325 -13.8835 220.252 -4.82627C216.854 10.0334 213.13 24.7981 209.524 39.5973C202.745 67.3899 197.21 95.2693 192.784 123.602C184.602 175.966 177.296 228.587 163.922 279.773C150.267 331.999 129.49 382.746 97.8038 425.148C70.7276 461.371 36.3057 490.102 -0.43103 513.976C-46.7439 544.073 -96.885 566.467 -145.751 591.115C-151.885 594.21 -157.987 597.354 -164.079 600.534C-170.437 603.853 -179.082 610.675 -186.187 611.088C-192.664 611.467 -199.276 615.849 -205.32 618.254C-213.169 621.382 -221.176 624.03 -229.215 626.506C-250.43 633.037 -272.155 637.369 -294 640.753V642.077C-281.351 640.1 -268.741 637.814 -256.203 635.03C-243.945 632.298 -231.83 628.912 -219.859 624.975C-213.855 623.016 -207.921 620.765 -202.026 618.428C-199.068 617.24 -196.149 615.969 -193.222 614.697C-190.182 613.374 -186.993 613.374 -184.034 612.343C-175.356 609.283 -167.095 603.63 -158.864 599.366C-148.949 594.21 -138.956 589.207 -128.963 584.259C-109.727 574.701 -90.4088 565.334 -71.2525 555.588C4.21106 517.156 78.1608 469.262 122.329 389.956C157.764 326.317 173.436 253.518 185.144 181.096C191.3 143.034 196.11 104.678 204.405 67.071C208.671 47.7534 213.593 28.6055 218.235 9.38929C220.435 0.253185 223.251 -9.10532 224.367 -18.4808C224.902 -22.9759 225.268 -27.4886 225.619 -32H224.192Z" fill="#9E7D0A"/>
<path d="M71.9232 -32C36.8558 -11.4779 2.40973 10.213 -30.9132 33.9596C-51.8172 48.8531 -72.7114 64.0902 -91.4541 82.1027C-108.881 98.8521 -124.49 117.732 -138.782 137.629C-166.624 176.38 -186.785 219.855 -211.047 261.056C-232.038 296.694 -260.248 326.833 -294 347.433V348.989C-264.857 331.37 -239.584 306.698 -219.812 277.436C-205.608 256.422 -194.562 233.176 -182.319 210.823C-170.523 189.294 -158.073 168.197 -144.404 148.001C-130.184 126.971 -114.328 107.291 -96.854 89.3557C-77.4025 69.3836 -55.1506 53.0983 -32.8974 37.0452C1.80341 12.0188 37.9077 -10.6098 74.6117 -32H71.9232Z" fill="#9E7D0A"/>
<path d="M574.555 -31.9995C546.872 -21.5146 520.146 -8.31418 495.016 8.49569C475.379 21.6362 457.029 36.7445 441.66 55.4699C427.16 73.1387 416.257 93.6874 407.181 115.07C397.116 138.771 389.842 163.719 383.828 188.934C380.743 201.878 378.054 214.932 375.423 227.987C374.649 231.827 372.089 234.939 371.243 239.005C369.522 247.262 367.823 255.529 366.131 263.798C360.301 292.39 354.854 321.067 350.197 349.908C347.948 363.857 345.945 377.848 344.136 391.873C342.708 402.908 340.203 413.436 343.464 424.331C343.807 425.201 344.159 426.069 344.534 426.928C344.877 427.745 345.985 427.041 345.642 426.224C340.387 413.47 344.557 398.344 346.305 385.144C348.147 371.187 350.284 357.274 352.557 343.386C357.103 315.679 362.486 288.135 368.094 260.66C369.29 254.756 370.518 248.851 371.738 242.957C372.759 238.05 375.072 234.19 376.308 229.661C379.626 217.519 381.501 204.773 384.331 192.466C390.36 166.212 398.057 140.482 408.298 115.774C417.182 94.3221 428.364 74.2743 442.568 56.4591C458.241 36.7951 477.908 21.5834 498.198 8.00497C523.312 -8.79509 550.309 -21.7645 578.199 -31.9995H574.555Z" fill="#9E7D0A"/>
<path d="M888.16 -31.9995H885.432C891.159 -28.2612 896.677 -24.1793 901.574 -19.109C908.209 -12.2497 911.576 -3.45853 909.645 6.3907C907.157 19.2461 889.26 27.8913 879.354 33.2546C835.249 57.1539 786.695 67.5875 740.054 83.9679C694.267 100.046 650.744 127.669 614.792 162.268C575.958 199.627 543.155 244.778 511.165 288.849C487.129 321.969 464.374 356.38 436.819 386.2C431.634 391.813 425.031 395.345 419.608 400.932C413.131 407.592 406.209 413.693 398.878 419.218C391.597 424.709 383.685 429.128 375.399 432.547C371.188 434.293 366.809 435.471 362.415 436.476C353.786 438.452 349.376 432.858 345.642 426.224C345.221 425.458 344.103 426.155 344.534 426.928C347.979 433.038 350.173 438.041 357.159 438.778C366.139 439.741 377.8 433.364 385.712 429.248C394.628 424.608 402.74 418.266 410.412 411.562C414.607 407.893 418.562 403.931 422.463 399.909C426.522 395.731 431.523 393.9 435.439 389.664C472.461 349.6 502.306 302.349 535.228 258.374C568.015 214.571 602.868 170.062 645.808 137.543C666.433 121.91 688.701 107.74 711.805 96.8759C736.115 85.4474 761.891 78.0123 787.462 70.7506C798.691 67.5608 809.329 62.1996 820.511 58.8647C825.568 57.3595 830.623 57.1983 835.457 54.799C841.902 51.5943 848.537 48.8099 855.141 45.9741C865.191 41.6514 875.175 37.2422 884.762 31.8289C889.484 29.1551 893.981 26.0525 898.321 22.7183C901.351 20.3985 907.349 16.6341 908.8 13.0246C917.111 -7.71226 903.887 -21.309 888.16 -31.9995Z" fill="#9E7D0A"/>
<path d="M1666.06 208.287C1623.87 201.842 1582.3 191.333 1541.97 176.224C1517.86 167.192 1494.04 156.484 1471.3 143.937C1460.9 138.204 1451.15 131.157 1440.75 125.391C1429.07 118.928 1416.82 113.479 1404.86 107.678C1360.64 86.2459 1316.7 64.3138 1277.59 32.9709C1248.88 9.95652 1281.3 -14.8018 1301.51 -25.1156C1306.63 -27.7367 1311.85 -29.9874 1317.13 -31.9995H1313C1310.38 -30.9167 1307.8 -29.7572 1305.25 -28.5019C1290.46 -21.2491 1272.07 -12.2166 1266.15 5.7113C1258.97 27.4972 1283.57 39.7858 1297.46 49.6597C1318.44 64.5792 1340.8 77.0921 1363.45 88.763C1386.04 100.401 1409.05 111.073 1431.78 122.401C1454.28 133.607 1475.11 147.985 1497.82 158.899C1544.46 181.302 1593.89 196.574 1644.12 206.054C1651.41 207.428 1658.72 208.641 1666.06 209.742V208.287Z" fill="#9E7D0A"/>
<path d="M1666.06 188.805C1661.56 187.988 1657.06 187.171 1652.58 186.312C1646.13 185.084 1639.71 183.734 1633.29 182.291C1627.3 180.941 1619.88 177.34 1613.82 177.315C1600.64 177.246 1588.36 170.835 1575.89 166.702C1562.87 162.396 1549.79 158.401 1536.97 153.467C1512.48 144.047 1488.83 130.581 1465.27 118.747C1442.86 107.489 1420.75 95.5441 1399.58 81.7062C1389.34 75.0124 1379.43 67.7151 1369.83 59.9907C1359.06 51.3186 1347.53 41.1089 1339.32 29.515C1329.21 15.2327 1339.62 0.253216 1350.5 -8.62449C1359.4 -15.9111 1370.42 -19.5213 1380.71 -23.8017C1387.67 -26.6966 1394.73 -29.4388 1401.88 -32H1398C1396.05 -31.2868 1394.11 -30.5722 1392.16 -29.8422C1374.54 -23.1646 1354.38 -17.029 1341.42 -1.57722C1336.91 3.81204 1332.97 11.7689 1333.57 19.1772C1334.39 28.9399 1343.37 36.9502 1349.64 42.8021C1353.78 46.6777 1357.45 51.2418 1361.86 55.0576C1365.83 58.5122 1369.93 61.812 1374.04 65.0596C1384.47 73.3107 1395.43 80.7698 1406.58 87.8342C1427.91 101.361 1450.29 112.825 1472.72 124.008C1489.11 132.17 1505.51 140.344 1521.94 148.447C1539.12 156.913 1557.53 162.156 1575.54 168.042C1584.71 171.041 1593.64 174.874 1602.83 177.728C1605.41 178.535 1608.24 178.586 1610.9 178.69C1617.18 178.94 1623.63 181.414 1629.74 182.884C1641.76 185.789 1653.9 188.066 1666.06 190.266V188.805Z" fill="#9E7D0A"/>
<path d="M819.634 -16.6589C812.934 -23.414 805.214 -27.7719 796.616 -31.028C795.707 -31.38 794.766 -31.6897 793.842 -31.9995H789.119C789.822 -31.7932 790.524 -31.5877 791.225 -31.3729C800.684 -28.5357 814.704 -23.5513 819.554 -13.4029C827.195 2.63469 815.645 9.81009 804.847 17.5022C795.149 24.4206 784.764 27.7295 773.807 31.767C762.912 35.7729 752.066 39.8985 741.283 44.2035C700.791 60.3608 660.595 80.0155 626.483 109.045C607.087 125.546 590.33 145.424 572.92 164.279C554.392 184.328 536.871 204.73 519.699 226.146C502.99 247.004 485.923 267.527 467.979 287.156C458.169 297.889 447.736 306.672 436.387 315.378C428.533 321.401 417.231 324.891 408.943 317.294C405.523 314.15 404.566 307.884 402.5 303.578C402.212 255.752 405.267 207.55 417.956 161.502C424.273 138.609 433.429 116.702 445.343 96.5839C451.398 86.3569 458.392 76.826 465.928 67.8465C474.063 58.1515 483.308 50.9832 492.687 42.8624C513.47 24.8676 539.295 13.2739 564.091 3.25288C587.627 -6.25142 611.945 -13.4099 636.374 -19.6581C654.221 -24.2307 672.198 -28.1837 690.2 -31.9995H683.596C637.195 -22.0567 590.507 -10.8662 546.809 9.12228C535.682 14.2101 524.796 19.7881 514.141 25.9504C502.705 32.5591 493.453 40.9214 482.837 48.8099C466.575 60.9014 453.391 80.4088 442.848 98.2164C420.507 135.926 409.853 180.315 404.813 224.35C401.797 250.666 401.047 277.237 401.207 303.733C401.207 303.751 401.216 303.759 401.216 303.775C401.216 303.802 401.232 303.828 401.232 303.853C401.247 303.93 401.263 303.998 401.288 304.06C401.296 304.068 401.296 304.077 401.296 304.077C404.287 310.136 405.57 319.047 412.573 321.514C422.95 325.159 431.211 321.05 439.594 314.62C449.412 307.084 458.065 299.798 466.614 290.611C476.456 280.03 485.956 269.081 495.31 258.005C513.112 236.932 529.142 213.523 547.805 193.387C567.544 172.1 587.22 150.752 606.927 129.43C642.554 90.903 689.738 66.8483 736.226 47.7356C746.977 43.3093 757.84 39.1747 768.718 35.1195C774.141 33.099 779.566 31.1144 785.005 29.129C788.864 27.721 795.659 26.7403 798.818 24.0334C803.939 19.6416 809.457 15.9455 814.929 12.1059C820.113 8.45205 818.979 9.15741 821.77 3.40696C822.6 1.70541 825.297 -2.21245 824.658 -4.49836C823.685 -7.9185 821.851 -14.4167 819.634 -16.6589Z" fill="#9E7D0A"/>
<path d="M-211.31 302.186C-195.79 281.982 -185.343 256.989 -172.852 234.56C-160.059 211.605 -146.788 188.95 -132.408 167.114C-101.519 120.201 -64.8875 81.148 -19.8271 50.347C2.97495 34.7671 26.5982 20.4579 50.4128 6.78442C62.5999 -0.210054 74.7698 -8.14221 87.7062 -13.3858C99.3673 -18.1112 111.778 -24.738 123.973 -27.281C130.009 -28.5447 135.393 -30.9419 141.613 -31.8029C142.196 -31.8888 142.777 -31.9402 143.361 -32H138.431C133.319 -31.0369 128.302 -29.7485 123.63 -28.6313C112.215 -25.8891 101.29 -19.9859 90.2347 -15.809C78.1052 -11.2279 67.059 -4.18912 55.6939 2.20473C9.97888 27.9261 -37.0854 55.5905 -75.2725 93.4989C-119.95 137.843 -152.347 194.468 -183.1 250.373C-190.989 264.707 -197.895 279.66 -206.692 293.385C-216.718 309.001 -229.932 322.218 -243.347 334.345C-258.804 348.319 -275.943 359.706 -294 369.133V370.483C-262.553 353.947 -233.944 331.636 -211.31 302.186Z" fill="#9E7D0A"/>
<path d="M176.643 -23.7573C172.615 -28.0117 168.036 -30.5814 163.155 -32H153.377C155.786 -31.7677 158.195 -31.3805 160.564 -30.8574C167.062 -29.4212 172.805 -25.8645 177.519 -20.8884C184.314 -13.7285 184.624 -3.28796 184.84 6.25147C185.551 37.3881 182.831 68.0164 178.74 98.8176C170.971 157.386 164.376 215.456 150.457 272.819C137.657 325.62 120.638 375.879 87.8421 418.118C56.8255 458.064 16.2458 487.626 -26.4227 511.105C-37.4925 517.189 -48.8575 521.951 -60.2696 527.158C-72.2978 532.658 -83.8772 539.5 -95.6735 545.584C-120.772 558.528 -145.959 571.281 -171.042 584.259C-210.505 604.661 -251.387 618.323 -294 625.49V626.952C-255.39 620.574 -217.939 608.939 -182.001 591.321C-156.87 578.997 -132.106 565.695 -107.143 552.993C-95.028 546.821 -82.9442 540.566 -70.9408 534.155C-59.0021 527.795 -46.4401 523.171 -34.438 516.95C7.86526 494.957 47.6381 466.907 79.9398 429.807C111.57 393.48 130.217 350.371 143.799 303.157C159.662 247.992 168.562 191.53 175.494 134.37C179.13 104.326 183.772 74.411 185.646 44.1431C186.492 30.4958 186.372 16.8815 186.061 3.22776C185.822 -7.36993 183.797 -16.2208 176.643 -23.7573Z" fill="#9E7D0A"/>
<path d="M1666.06 161.126C1621.44 153.089 1576.14 142.718 1535.1 122.762C1524.4 117.554 1513.14 113.962 1502.62 108.194C1491.51 102.101 1480.93 94.1529 1470.43 86.8816C1460.26 79.8442 1450.37 72.3228 1440.97 64.0999C1431.96 56.2092 1414.03 42.0309 1413.17 28.4673C1411.48 1.46672 1444.94 -9.8165 1463.88 -15.6353C1490.45 -23.7913 1519.84 -23.5858 1546.78 -17.698C1588.38 -8.62323 1626.79 11.7102 1666.06 28.7088V27.2747C1626.83 10.4219 1588.6 -9.4399 1547.13 -19.0484C1523.78 -24.4531 1499.15 -24.5129 1475.67 -19.9932C1456.91 -16.3745 1434.46 -8.47754 1419.93 5.59933C1414.3 11.0661 1412.58 17.8719 1412.01 25.6829C1411.18 36.8557 1418.88 43.5516 1425.6 50.9509C1441.37 68.3274 1460.43 81.8624 1479.43 94.6766C1522.29 123.561 1571.26 140.689 1620.33 152.754C1635.48 156.475 1650.74 159.622 1666.06 162.457V161.126Z" fill="#9E7D0A"/>
<path d="M152.029 103.132C151.885 80.5467 153.027 58.5035 140.027 39.4338C128.82 23.002 107.136 21.4039 90.0191 24.2573C66.4284 28.1836 43.6898 41.1354 22.7303 52.8489C1.53223 64.6989 -18.591 78.6481 -36.9417 95.1745C-40.4914 98.3705 -45.0923 100.021 -48.4427 103.209C-52.7496 107.309 -57.0081 111.452 -61.219 115.662C-70.2157 124.643 -78.8445 134.036 -87.1715 143.74C-102.365 161.451 -116.027 180.667 -127.854 201.172C-140.289 222.719 -149.237 246.265 -161.224 268.103C-173.801 291.014 -187.183 314.999 -203.367 335.126C-218.312 353.715 -237.526 369.383 -257.186 381.689C-268.551 388.804 -281.136 392.766 -293.203 398.112C-293.474 398.232 -293.737 398.354 -294 398.473V400.124C-285.322 396.41 -276.557 392.982 -267.984 388.984C-247.423 379.411 -228.219 363.444 -212.013 346.867C-194.738 329.198 -182.352 306.809 -169.591 285.334C-156.096 262.628 -145.823 238.513 -133.836 214.949C-122.216 192.088 -107.764 171.033 -91.8776 151.456C-84.4601 142.312 -76.6035 133.598 -68.5575 125.108C-64.4805 120.809 -60.3108 116.616 -56.1065 112.465C-51.2894 107.696 -46.169 104.396 -40.8017 100.588C-30.8492 93.5323 -22.0995 84.0455 -12.1784 76.7311C-1.61038 68.9463 9.49985 62.0454 20.7689 55.5382C44.1295 42.0633 69.5462 28.0991 96.1527 24.755C109.138 23.1132 124.315 25.709 134.524 35.0253C143.104 42.8624 147.317 55.5466 149.566 67.0631C152.244 80.7881 150.729 96.4126 150.778 110.42C150.833 126.25 150.314 142.062 148.601 157.79C147.14 171.11 147.444 184.378 145.881 197.691C144.038 213.435 141.829 229.128 139.205 244.744C134.538 272.545 128.358 300.415 119.281 326.944C101.074 380.169 67.106 422.554 25.3143 456.062C5.12894 472.243 -17.0504 486.218 -40.6658 495.62C-64.474 505.107 -89.1171 512.429 -112.198 523.844C-147.139 541.117 -179.464 563.597 -215.17 579.205C-240.628 590.325 -267.012 599.126 -294 604.351V605.795C-256.38 598.611 -219.765 584.584 -185.55 566.572C-162.397 554.368 -140.249 540.051 -117.081 527.864C-92.4917 514.939 -65.9245 507.212 -40.3228 496.96C2.72003 479.738 43.5624 448.138 73.7898 410.892C89.222 391.881 103.076 371.11 112.782 348.035C123.046 323.637 129.827 297.614 135.416 271.567C141.126 244.952 144.868 217.879 147.97 190.773C148.695 184.457 148.36 178.002 148.36 171.643C148.36 164.717 149.973 157.403 150.634 150.501C152.142 134.785 152.133 118.911 152.029 103.132Z" fill="#9E7D0A"/>
<path d="M450.992 164.778C447.274 180.735 447.091 199.695 460.194 210.669C465.019 214.708 476.784 210.145 480.819 206.999C491.226 198.887 502.807 192.097 511.796 182.137C545.803 144.426 582.219 108.564 608.954 64.1063C611.314 60.1707 615.373 55.0068 616.522 50.4673C617.041 48.4489 614.408 44.3317 613.603 42.8801C608.969 34.5867 602.35 35.9969 594.231 35.9702C575.504 35.9279 556.913 40.7068 539.646 48.3201C505.551 63.36 476.441 92.1315 460.825 128.305C455.84 139.838 452.69 152.204 450.992 164.778C450.871 165.654 452.107 166.033 452.227 165.147C462.667 87.8267 535.275 32.1459 605.762 37.8449C613.508 38.4709 615.478 49.7724 612.43 55.3764C609.975 59.9047 607.326 64.3048 604.631 68.6704C598.146 79.2074 590.92 89.2006 583.456 98.9308C569.412 117.218 553.986 134.216 538.515 151.07C530.714 159.553 522.873 167.991 515.099 176.508C506.053 186.408 496.076 193.903 485.508 201.749C480.268 205.643 475.468 208.374 469.238 209.939C459.134 212.473 454.11 203.142 451.557 194.83C448.67 185.411 450.049 174.532 452.227 165.147C452.434 164.27 451.191 163.901 450.992 164.778Z" fill="#9E7D0A"/>
<path d="M448.223 640.599C459.142 656.378 472.524 669.974 487.063 681.801C518.679 707.496 556.578 723.138 594.566 733.811C639.379 746.392 685.932 752.408 732.127 753.921C759.627 754.833 787.126 754.865 814.561 757.324C842.332 759.799 869.64 766.846 895.64 777.691C945.264 798.419 975.602 848.111 1010.68 888.675C1045.2 928.62 1081.71 966.571 1120.47 1001.65C1128.89 1009.28 1137.46 1016.73 1146.1 1024.03H1148.24C1113.77 994.895 1081.04 963.459 1049.85 930.234C1031.7 910.898 1014.16 890.926 996.977 870.575C980.07 850.552 964.517 828.808 946.158 810.296C910.172 773.979 859.144 759.902 811.244 755.622C783.84 753.181 756.293 753.319 728.825 752.425C701.477 751.514 674.624 748.369 647.587 743.933C567.863 730.906 480.58 699.813 437.337 620.387C422.829 593.744 420.557 564.097 432.838 535.753C443.701 510.685 458.495 487.895 474.143 466.099C489.074 445.294 505.903 425.786 519.245 403.733C533.505 380.151 545.963 355.735 561.458 333.013C577.856 308.975 594.685 285.282 613.292 263.169C621.515 253.397 629.834 243.73 638.399 234.303C642.729 229.533 647.18 224.892 651.679 220.304C655.897 215.997 661.137 213.952 665.373 209.811C702.108 173.879 747.95 151.766 794.544 135.325C817.288 127.29 840.434 120.622 863.548 113.962C868.603 112.508 873.692 111.169 878.717 109.561C882.784 108.256 886.309 105.754 890.712 104.636C903.951 101.293 917.126 97.6765 930.19 93.6099C942.074 89.916 953.669 86.331 965.762 83.4777C969.861 82.5079 972.844 82.0693 976.288 79.6017C981.935 75.5629 991.825 75.0313 998.365 73.3466C1025.74 66.2642 1053.17 59.3542 1081.21 56.2868C1135.18 50.366 1188.55 65.9896 1239.4 83.9421C1292.42 102.66 1342.86 128.725 1394.25 151.826C1406.28 157.233 1418.32 162.569 1430.33 168.009C1443.59 174.007 1456.13 181.648 1469.29 187.903C1473.86 190.07 1479.02 190.335 1483.7 192.63C1488.62 195.036 1493.58 197.331 1498.56 199.6C1511.33 205.426 1524.32 210.678 1537.43 215.55C1579.05 231.011 1622.29 241.205 1666.06 245.888V244.469C1620.26 239.511 1575.25 228.39 1531.73 211.942C1518.7 207.008 1505.85 201.491 1493.15 195.62C1488.28 193.361 1483.4 190.258 1478.36 188.487C1471.71 186.134 1465.27 184.501 1458.84 181.132C1435.77 169.031 1412.31 158.47 1388.64 147.804C1337.28 124.643 1286.79 98.5084 1233.56 80.4541C1183.97 63.643 1133.6 49.7464 1081.21 54.8858C1055.28 57.4379 1029.77 63.8494 1004.49 70.3299C994.904 72.7869 982.397 73.5683 974.087 79.4994C969.605 82.7137 961.885 82.9702 956.668 84.2169C949.539 85.927 942.744 88.0497 935.773 90.3697C923.857 94.3232 911.799 97.6841 899.708 100.881C894.093 102.368 888.35 103.51 882.816 105.272C881.938 105.556 880.408 106.837 879.674 107.37C876.658 109.526 872.224 110.024 868.795 111.013C845.634 117.673 822.505 124.351 799.648 132.102C756.213 146.825 714.054 166.436 677.845 196.721C673.244 200.572 668.817 204.662 664.463 208.821C660.826 212.302 656.631 213.471 653.074 216.995C643.264 226.723 633.973 237.061 624.856 247.545C607.646 267.355 590.754 287.86 575.864 309.775C560.072 332.996 544.782 355.83 531.136 380.598C517.412 405.503 501.078 427.598 484.272 450.088C469.453 469.924 455.139 490.196 443.03 512.119C431.117 533.69 422.128 555.949 423.459 581.561C424.591 603.439 436.42 623.532 448.223 640.599Z" fill="#9E7D0A"/>
<path d="M122.584 105.376C118.684 87.7674 101.824 69.161 84.7648 69.1259C75.1291 69.1084 64.7689 67.5792 55.4306 70.4755C44.2961 73.9308 33.4733 78.4682 22.9067 83.5897C-18.0403 103.46 -56.6651 135.524 -84.349 173.723C-111.968 211.837 -129.824 256.905 -151.486 298.954C-170.404 335.676 -192.561 369.434 -225.387 392.94C-240.533 403.777 -257.369 411.562 -274.772 416.977C-276.908 417.647 -277.858 419.761 -279.924 420.697C-284.35 422.691 -289.302 423.886 -294 425.27V426.678C-293.483 426.516 -292.963 426.353 -292.445 426.189C-282.412 423.01 -274.053 418.447 -264.292 414.922C-245.533 408.141 -227.612 397.683 -212.124 384.369C-176.64 353.854 -155.282 310.643 -134.634 267.913C-113.116 223.414 -91.6861 178.562 -57.3753 143.79C-39.7727 125.958 -19.6201 110.412 1.18137 97.28C11.6526 90.6617 22.6113 84.983 33.8405 80.0317C45.9798 74.6771 58.5327 69.3146 71.7872 70.6382C77.0683 71.1626 82.2441 70.5184 87.5232 70.5269C95.8097 70.5445 103.091 76.9811 108.587 83.0305C118.603 94.0657 122.415 108.796 124.681 123.579C129.284 153.545 127.561 184.286 124.617 214.321C121.898 242.123 118.277 269.829 111.291 296.799C107.774 310.36 103.124 323.543 97.5966 336.287C94.9486 342.398 91.9334 348.31 88.7908 354.137C88.8874 353.965 87.9858 355.58 87.9545 356.174C87.731 360.462 86.223 363.075 84.1506 366.608C59.6172 408.313 24.5564 441.564 -17.0361 462C-41.9745 474.255 -69.0201 479.404 -95.0921 487.964C-107.215 491.942 -118.188 498.172 -130.04 502.821C-142.066 507.548 -152.388 513.701 -163.322 520.904C-188.516 537.474 -214.333 552.925 -241.593 565.18C-258.294 572.69 -276.048 577.692 -294 581.422V582.487C-281.08 579.686 -268.255 576.386 -255.542 572.519C-232.613 565.522 -210.193 551.567 -189.513 539.104C-178.595 532.522 -167.883 525.543 -157.213 518.496C-145.607 510.831 -133.565 506.525 -121.22 500.665C-95.5461 488.479 -68.8286 482.445 -42.0856 473.671C-0.661102 460.066 36.0181 433.072 64.29 397.812C70.783 389.715 76.6841 381.096 82.2526 372.245C88.2256 362.748 91.0729 353.089 95.9697 342.974C107.166 319.829 114.019 294.529 118.724 269.013C128.446 216.273 134.3 158.169 122.584 105.376Z" fill="#9E7D0A"/>
<path d="M721.072 733.26C765.83 735.082 811.005 732.728 855.603 737.694C878.125 740.204 900.537 745.001 921.37 754.833C943.126 765.075 959.238 781.661 973.896 801.428C990.644 824.065 1005.83 848.007 1022.04 871.09C1037.13 892.593 1053.67 911.895 1071.37 930.854C1079.83 939.912 1087.93 949.365 1096.48 958.337C1106.39 968.718 1117.33 977.864 1127.97 987.333C1141.83 999.691 1155.71 1012.02 1169.82 1024.03H1171.88C1156.52 1011 1141.48 997.56 1126.4 984.154C1106.42 966.363 1088.54 947.269 1070.18 927.606C1051.04 907.117 1033.76 885.804 1017.6 862.445C1002.67 840.876 988.395 818.804 972.811 797.766C959.222 779.411 944.003 764.939 924.288 754.745C906.009 745.292 885.863 740.619 865.908 737.626C822.617 731.164 778.305 733.484 734.711 732.316C642.69 729.857 542.765 714.079 478.818 634.583C470.985 624.838 464.589 613.873 460.553 601.686C455.928 587.713 457.084 572.999 459.58 558.699C464.366 531.234 477.222 506.07 490.07 482.179C503.198 457.763 519.061 434.569 534.335 411.682C549.56 388.856 566.93 367.809 579.62 343.215C585.865 331.115 594.804 320.603 602.262 309.329C610.988 296.129 620.214 284.449 630.703 272.837C649.596 251.913 668.912 231.364 690.909 214.22C712.523 197.365 734.919 183.332 758.892 170.749C783.505 157.825 809.442 148.105 835.409 138.866C885.272 121.128 936.348 107.593 987.789 96.516C1043.12 84.5951 1100.63 70.2772 1156.77 84.7675C1203.88 96.9277 1250.26 107.868 1295.61 126.688C1343.7 146.662 1390.23 170.726 1437.48 192.872C1479.1 212.379 1521.54 235.248 1566.62 243.301C1570.69 244.022 1574.77 244.504 1578.87 244.952C1582.33 245.319 1587.35 244.864 1590.4 246.797C1591.26 247.341 1592.57 248.578 1593.56 248.887C1603.99 252.221 1615.45 253.124 1626.23 254.489C1638.7 256.081 1651.13 257.677 1663.43 260.421C1664.3 260.617 1665.18 260.797 1666.06 260.978V259.629C1661 258.606 1655.96 257.404 1650.97 256.528C1637.73 254.181 1624.33 253.029 1611.04 251C1605.33 250.125 1597.64 249.892 1592.6 246.696C1589.45 244.702 1588.71 244.219 1584.98 244.04C1570.91 243.335 1557 240.344 1543.41 236.443C1518.3 229.224 1494.44 217.597 1470.63 206.588C1445.58 195.003 1420.57 183.426 1395.7 171.411C1347.01 147.889 1298.08 123.32 1246.85 106.889C1221.52 98.767 1195.6 92.9752 1169.85 86.6231C1143.58 80.1524 1118.19 76.3023 1091.15 77.5393C1064.64 78.7602 1038.64 84.8451 1012.62 89.9839C986.545 95.1314 960.577 100.94 934.768 107.473C883.805 120.362 833.592 136.623 784.718 156.887C737.517 176.449 693.67 206.165 656.559 243.206C638.136 261.589 619.313 280.926 604.805 303.054C597.396 314.355 588.034 324.891 581.558 336.734C574.068 350.441 566.747 363.24 557.646 375.811C526.575 418.747 495.279 464.15 473.042 513.236C463.265 534.809 455.72 558.785 456.047 583.072C456.326 603.922 467.428 622.535 479.639 637.713C539.535 712.187 634.682 729.755 721.072 733.26Z" fill="#9E7D0A"/>
<path d="M530.993 643.007C561.06 673.498 600.404 690.532 640.226 699.538C660.212 704.041 680.598 706.362 700.96 707.549C726.56 709.042 752.289 710.384 777.954 710.28C803.301 710.178 828.535 707.238 853.913 707.118C881.222 706.998 908.61 709.059 935.454 714.665C958.567 719.476 975.779 736.716 988.492 757.203C995.254 768.119 1002.83 778.499 1008.56 790.102C1014.38 801.891 1020.25 813.667 1026.23 825.354C1037.81 847.974 1049.73 870.094 1064.47 890.514C1078.69 910.228 1094.33 928.584 1110.98 945.91C1128.53 964.181 1147.17 981.265 1165.42 998.677C1175.37 1008.18 1186.17 1016.17 1197.07 1024.03H1198.13C1196.08 1022.52 1194.05 1020.97 1192.04 1019.41C1180.61 1010.52 1169.57 1000.93 1159.12 990.719C1140.58 972.602 1121.44 955.313 1103.69 936.269C1085.81 917.052 1069.44 896.253 1054.78 874.064C1039.77 851.325 1027.84 825.938 1015.61 801.376C1004.67 779.411 992.255 756.465 976.4 738.141C962.108 721.607 944.196 714.733 924.065 711.123C897.602 706.362 870.678 705.417 843.912 705.828C816.461 706.241 789.233 709.283 761.747 708.768C673.762 707.083 566.947 701.634 510.559 616.142C503.734 605.776 498.948 594.106 496.851 581.576C494.29 566.297 498.572 550.948 502.672 536.46C509.746 511.381 520.752 487.826 532.979 465.274C544.79 443.471 558.039 422.606 570.791 401.44C584.875 378.046 598.091 354.326 613.962 332.248C645.306 288.652 682.313 249.152 724.614 218.145C734.552 210.867 744.824 204.146 755.256 197.761C760.488 194.564 765.8 191.539 771.128 188.558C777.619 184.939 786.712 178.21 794.08 177.778C797.973 177.549 801.196 175.563 804.753 173.895C811.722 170.638 818.821 167.64 825.92 164.725C839.126 159.311 852.557 154.541 866.035 149.995C918.675 132.24 972.238 115.801 1027.01 108.101C1081.87 100.383 1136.17 103.374 1190.1 116.444C1233.71 127.016 1276.04 142.966 1318.37 158.246C1328.58 161.933 1337.99 167.657 1347.44 173.131C1356.1 178.143 1364.47 181.379 1373.74 184.716C1396.71 193 1418.29 205.89 1439.94 217.544C1457.77 227.152 1476.18 234.243 1494.9 241.779C1516.23 250.365 1538.31 256.715 1560.56 261.804C1595.28 269.744 1630.66 273.913 1666.06 276.766V275.338C1621.49 271.677 1577.07 265.808 1533.74 253.529C1521.72 250.115 1509.87 246.077 1498.17 241.581C1492.29 239.33 1486.48 236.855 1480.71 234.303C1476.07 232.248 1469.09 226.964 1463.88 226.663C1456.67 226.242 1449.83 221.335 1443.49 217.904C1437.67 214.768 1431.86 211.65 1426.04 208.547C1413.15 201.655 1400.2 194.881 1387.19 188.256C1377.26 183.211 1366.07 181.562 1356.13 176.404C1345.44 170.845 1335.33 164.133 1324.36 159.156C1300.03 148.131 1273.66 140.482 1248.48 132.093C1198.52 115.447 1147.28 102.84 1094.82 102.204C1041.99 101.569 988.284 110.644 937.544 126.294C911.496 134.329 885.336 141.934 859.479 150.752C847.054 154.998 834.724 159.63 822.521 164.631C817.353 166.755 812.218 168.971 807.129 171.31C801.403 173.93 794.943 174.66 789.455 177.41C744.664 199.807 702.761 229.146 667.327 266.452C649.438 285.29 632.474 305.142 616.785 326.163C601.607 346.515 588.768 368.344 575.839 390.378C551.314 432.186 523.975 472.304 507.059 518.686C499.131 540.428 491.794 564.199 496.675 587.628C501.252 609.629 516.214 628.036 530.993 643.007Z" fill="#9E7D0A"/>
<path d="M609.743 662.051C694.666 706.19 791.449 692.747 881.365 679.153C902.485 675.955 924.241 670.577 945.632 672.381C968.202 674.288 986.594 686.303 1000.73 704.953C1016.77 726.127 1023.31 751.291 1032.56 776.266C1040.64 798.025 1049.82 819.269 1060.05 839.929C1081.2 882.71 1107.74 922.243 1139.75 956.239C1156.36 973.874 1175.56 987.746 1193.89 1003.09C1202.55 1010.35 1211.26 1017.53 1220.36 1024.03H1222.68C1209.52 1014.82 1197.23 1004.07 1184.8 993.744C1174.46 985.15 1163.65 977.347 1153.71 968.202C1143.9 959.179 1134.84 949.176 1126.04 939.017C1091.55 899.246 1065.04 851.548 1044.18 802.115C1026.01 759.059 1017.06 702.304 974.04 679.17C956.574 669.785 936.937 669.563 918.036 672.261C894.365 675.663 870.725 679.478 847.038 682.797C800.127 689.363 752.672 693.815 705.458 688.693C656.576 683.399 603.92 665.936 565.741 631.301C547.686 614.904 535.124 591.804 533.09 566.229C530.777 537.146 541.44 507.764 552.216 481.783C563.127 455.486 576.437 431.182 589.836 406.337C593.019 400.432 595.443 393.617 600.539 389.355C604.033 386.424 605.787 383.081 608.164 379.033C615.072 367.294 622.464 355.908 630.177 344.778C645.377 322.837 662.374 302.418 680.47 283.253C689.744 273.422 699.22 264.63 710.02 256.81C721.089 248.809 729.798 238.188 740.931 230.211C751.652 222.536 762.497 215.069 773.648 208.135C786.695 200.021 801.641 194.357 815.518 188.135C841.025 176.696 866.896 166.23 892.96 156.389C944.147 137.062 1000.47 127.264 1054.42 123.388C1106.1 119.685 1157.99 126.388 1208.25 139.382C1289.36 160.342 1365.81 198.303 1440.24 238.161C1478.36 258.582 1520.87 269.555 1562.57 277.762C1596.77 284.49 1631.38 288.375 1666.06 290.757V289.329C1619.7 286.098 1573.56 280.048 1528.26 268.687C1501.78 262.052 1473.47 254.525 1449.06 241.35C1426.3 229.069 1403.42 217.046 1380.33 205.539C1290.19 160.617 1194.58 124.101 1094.44 121.17C987.709 118.052 884.284 153.554 787.7 199.472C775.817 205.118 764.89 211.924 753.9 219.427C743.086 226.826 732.128 233.847 723.068 243.652C714.677 252.72 704.229 258.848 694.906 266.685C684.848 275.141 675.884 285.995 667.055 295.887C650.761 314.131 635.823 333.752 622.105 354.317C618.627 359.525 615.279 364.828 611.976 370.165C608.618 375.604 605.748 382.462 601.313 386.956C597.916 390.395 595.913 391.821 593.609 396.35C589.965 403.509 586.095 410.532 582.219 417.544C569.18 441.169 557.201 465.026 547.31 490.429C537.956 514.441 530.539 539.862 531.798 566.229C534.088 614.011 573.726 643.333 609.743 662.051Z" fill="#9E7D0A"/>
<path d="M-151.511 427.066C-147.364 430.804 -143.895 435.273 -139.883 439.166C-136.843 442.104 -132.68 442.415 -128.836 443.291C-116.937 446.016 -104.599 446.308 -92.4836 446.102C-70.8139 445.741 -48.8495 444.716 -28.05 437.756C4.48178 426.85 32.2688 403.836 52.9572 374.901C73.9723 345.507 87.1165 310.033 93.7676 273.774C97.165 255.281 98.5698 236.39 98.3705 217.552C98.2738 208.228 97.6126 198.921 96.5914 189.657C95.6735 181.243 95.252 171.086 91.4156 163.618C86.6298 154.284 83.9183 143.559 76.2852 136.442C69.9444 130.54 62.2642 126.542 54.0503 126.01C43.9299 125.348 33.4501 124.892 23.934 128.76C15.8631 132.033 8.07196 136.049 0.486526 140.474C-29.4449 157.962 -53.8104 184.596 -73.4384 214.34C-93.4963 244.735 -108.458 278.802 -121.475 313.272C-128.078 330.754 -134.085 348.5 -139.922 366.298C-142.874 375.277 -145.76 384.276 -148.648 393.283C-152.252 404.489 -152.388 414.69 -151.702 426.576C-151.647 427.47 -150.363 427.479 -150.41 426.576C-151.191 413.065 -150.075 401.945 -145.983 389.208C-142.825 379.394 -139.659 369.588 -136.42 359.809C-129.761 339.664 -122.734 319.658 -114.959 299.986C-99.7409 261.467 -81.1434 224.058 -55.7881 192.183C-43.1477 176.285 -28.5922 162.25 -12.4969 150.579C-4.88078 145.063 3.17377 140.285 11.4367 136.014C16.3499 133.469 21.4134 131.262 26.5115 129.189C33.865 126.208 42.9871 127.23 50.7476 127.29C78.7973 127.514 91.2718 159.458 94.7653 185.249C97.4688 205.229 97.7008 225.58 96.1373 245.681C91.7109 302.65 70.0574 359.594 31.0164 398.912C11.3015 418.763 -12.9445 432.566 -39.0165 439.622C-56.1004 444.245 -74.93 444.218 -92.4836 444.71C-102.557 444.993 -112.622 444.502 -122.607 443.041C-128.964 442.114 -135.95 441.1 -140.943 436.262C-144.308 433.012 -147.116 429.222 -150.601 426.086C-151.232 425.51 -152.148 426.489 -151.511 427.066Z" fill="#9E7D0A"/>
<path d="M622.168 631.062C630.327 636.905 637.896 639.261 646.566 643.762C657.405 649.366 668.856 653.492 680.47 656.739C727.438 669.871 777.698 663.581 824.818 654.694C850.85 649.778 876.404 642.216 901.798 634.344C914.112 630.511 926.394 626.591 938.724 622.776C952.856 618.412 966 612.446 980.946 615.799C1003.21 620.799 1020.81 637.851 1032.79 658.03C1045.5 679.411 1050.17 704.145 1054.62 728.689C1063.46 777.587 1076.46 823.532 1099.78 866.691C1136.01 933.741 1190.17 989.464 1254.41 1024.03H1257.3C1188.29 987.574 1131.52 926.78 1094.52 853.799C1089.54 843.986 1085.03 833.913 1080.8 823.687C1078.9 819.045 1079.03 813.718 1077.04 809.267C1073.54 801.496 1070.61 793.522 1068.09 785.324C1060.18 759.626 1057.08 732.47 1051.59 706.121C1043.27 666.209 1022.37 626.73 983.738 615.093C974.517 612.327 965.282 612.823 956.142 615.626C942.999 619.666 929.871 624.065 916.727 628.207C891.397 636.184 866.051 644.055 840.243 650.019C789.566 661.741 734.759 668.703 683.683 656.139C671.114 653.062 658.928 648.352 647.219 642.561C644.452 641.183 640.178 637.403 637.154 637.215C630.854 636.819 625.67 631.903 620.557 628.242C599.902 613.478 580.584 594.416 574.746 567.431C568.629 539.158 576.11 508.95 585.361 482.514C594.948 455.118 608.139 429.351 622.104 404.317C634.603 381.912 650.545 360.652 665.683 340.276C679.959 321.067 695.543 303.063 712.731 286.873C721.408 278.69 731.297 272.006 739.417 263.213C749.178 252.659 761.093 244.805 772.658 236.751C792.677 222.821 813.525 210.3 835.042 199.282C879.754 176.396 927.527 162.346 976.033 152.625C1003.42 147.142 1029.95 140.757 1057.94 140.199C1085.87 139.641 1114.27 142.322 1141.81 147.142C1188.52 155.316 1234.84 170.818 1279.32 187.972C1326.91 206.312 1371.82 231.296 1417.62 254.214C1437.99 264.407 1458.49 273.851 1479.76 281.629C1490.44 285.531 1501.65 288.341 1512.67 290.73C1517.41 291.753 1522.32 291.883 1527.12 291.994C1533.41 292.149 1538.31 293.628 1544.24 295.44C1548.12 296.618 1552.93 296.221 1556.92 296.54C1563.64 297.091 1570.33 297.682 1577.05 298.275C1589.33 299.367 1601.62 300.528 1613.91 301.662C1631.28 303.26 1648.66 304.791 1666.06 306.088V304.696C1646.42 303.226 1626.82 301.465 1607.21 299.644C1593.8 298.407 1580.4 297.166 1566.99 295.998C1560.29 295.414 1553.57 294.873 1546.87 294.349C1540.89 293.884 1536.22 290.637 1530.09 290.628C1503.84 290.602 1478.46 279.989 1454.24 269.951C1427.46 258.848 1401.65 244.676 1375.72 231.441C1351.71 219.186 1327.75 205.435 1302.84 195.544C1277.99 185.679 1252.96 176.696 1227.61 168.431C1176.19 151.67 1124.57 140.31 1070.75 138.858C1044.33 138.145 1019.44 142.038 993.676 147.666C968.871 153.089 944.003 157.877 919.471 164.76C874.584 177.359 831.821 197.168 791.8 222.417C781.718 228.776 771.861 235.557 762.131 242.536C757.137 246.12 752.21 249.815 747.297 253.535C741.666 257.807 737.725 264.081 732.127 268.438C713.974 282.618 697.521 299.171 682.399 317.002C650.569 354.532 622.344 397.416 600.65 442.561C589.437 465.903 579.604 490.635 574.491 516.436C570.112 538.505 568.884 565.49 579.38 585.89C589.278 605.124 605.483 619.133 622.168 631.062Z" fill="#9E7D0A"/>
<path d="M741.283 641.236C792.231 644.639 841.902 629.359 887.122 604.814C896.614 599.675 906.375 596.652 915.977 591.683C926.952 586.029 938.406 581.508 950.144 578.121C973.402 571.401 998.238 571.282 1020.44 582.059C1042.58 592.818 1058.44 617.105 1067.61 640.703C1076.43 663.392 1079.48 688.332 1081.87 712.617C1083.02 724.219 1083.94 735.857 1085.09 747.458C1085.57 752.357 1086.1 757.256 1086.72 762.136C1087.8 770.68 1090.79 778.723 1091.28 787.335C1091.93 798.661 1094.84 808.803 1099.13 819.114C1101.82 825.612 1105.32 831.525 1107.84 838.142C1109.96 843.762 1111.82 849.418 1114.28 854.867C1116.91 860.709 1120.98 865.693 1124.04 871.28C1127.04 876.745 1129.61 882.504 1132.58 888.005C1133.01 888.794 1135.48 891.182 1136.1 891.854C1142.98 899.296 1137.36 894.743 1140.14 899.33C1143.2 904.367 1147.06 908.63 1149.74 914.009C1152.02 918.581 1156.79 922.862 1159.98 926.747C1163.98 931.591 1168.11 936.337 1172.31 940.994C1181.24 950.981 1190.72 960.347 1200.56 969.233C1225.83 992.025 1254.78 1011.02 1285.67 1024.03H1291.21C1257.49 1010.64 1225.68 990.1 1199.19 966.193C1180.13 948.986 1161.02 929.185 1147.2 906.807C1144.71 902.752 1142.27 898.54 1139.85 894.553C1137.09 889.998 1133.28 886.63 1130.76 881.73C1124.19 868.874 1116.02 857.049 1111.07 843.35C1106.86 831.73 1100.96 821.144 1096.78 809.541C1094.21 802.407 1092.81 794.966 1092.57 787.335C1092.35 780.424 1089.65 774.288 1088.71 767.55C1085.33 743.539 1084.33 719.235 1081.26 695.189C1075.74 651.892 1061.6 603.904 1023.49 582.109C987.055 561.295 942.807 575.44 908.449 594.141C903.871 596.633 899.325 596.238 894.827 598.885C889.34 602.116 883.741 605.142 878.095 608.063C865.318 614.698 852.111 620.283 838.679 625.13C812.248 634.671 785.849 639.361 758.015 640.119C708.44 641.442 648.824 626.902 618.89 580.306C589.127 533.966 616.649 472.64 637.76 428.923C658.098 386.794 685.16 348.749 716.303 315.336C732.43 298.027 749.833 282.153 768.032 267.45C776.567 260.558 785.339 254.017 794.24 247.692C804.639 240.319 814.099 232.55 825.17 226.379C836.526 220.062 847.82 213.599 859.177 207.274C870.709 200.855 883.852 196.687 896.102 191.695C919.806 182.017 944.61 175.778 969.159 169.202C1074.88 140.894 1188.4 169.977 1286.5 214.81C1318.36 229.361 1349.48 245.707 1380.77 261.589C1396.33 269.478 1411.96 277.23 1427.72 284.645C1443.09 291.883 1458.71 299.831 1474.88 304.688C1489.8 309.156 1505.7 310.101 1521.01 311.777C1540.24 313.883 1559.52 315.026 1578.81 315.937C1607.88 317.304 1636.99 317.982 1666.06 319.753V318.343C1617.73 315.378 1569.24 315.422 1521.01 310.385C1507.66 308.992 1494.2 307.669 1481.04 304.824C1467.88 301.971 1455.44 295.723 1443.11 290.214C1417.32 278.69 1392.07 265.833 1366.85 252.969C1319.47 228.803 1272.1 204.644 1222.13 187.38C1197.13 178.75 1171.66 171.885 1145.93 166.418C1120.85 161.099 1095.94 158.804 1070.43 157.525C1018.56 154.929 967.978 166.281 918.467 182.164C906.95 185.858 895.609 190.198 884.507 195.149C879.818 197.237 874.999 197.976 870.295 199.633C864.328 201.731 858.41 206.14 852.828 209.25C841.471 215.602 830.161 222.066 818.788 228.365C808.181 234.234 799.121 242.501 789.135 249.677C718.057 300.699 658.928 371.213 624.29 455.967C607.66 496.642 592.277 546.394 620.804 585.547C649.421 624.822 696.979 638.279 741.283 641.236Z" fill="#9E7D0A"/>
<path d="M1666.06 800.981C1627.74 807.083 1590.79 816.02 1560.77 845.516C1544.69 861.329 1533.3 882.127 1521.96 901.978C1510.63 921.814 1499.64 941.888 1486.07 960.073C1454.34 1002.63 1405.82 1022.45 1355.92 1019.61C1304.48 1016.67 1254.46 991.132 1215.62 955.192C1178.58 920.919 1147.67 877.365 1129.98 827.829C1110.98 774.597 1118.12 715.866 1110.82 660.316C1109.14 647.545 1106.8 634.929 1103.34 622.57C1101.86 617.276 1099.96 612.12 1097.96 607.014C1095.35 600.345 1090.27 593.867 1089.89 586.528C1089.57 580.649 1079.7 570.937 1076.14 566.796C1069.41 558.959 1061.5 552.41 1053.09 546.823C1018.18 523.62 975.268 525.373 937.432 538.022C890.918 553.579 851.105 586.2 804.305 600.742C756.485 615.626 696.876 611.829 662.98 567.638C655.459 557.823 650.562 546.015 648.304 533.554C645.656 518.943 649.884 503.826 651.12 489.268C652.26 475.863 658.386 463.289 663.545 451.146C668.323 439.888 673.643 428.914 679.29 418.137C701.413 375.855 730.277 337.981 763.168 305.023C836.32 231.768 931.929 184.931 1031.81 178.888C1058.6 177.273 1085.5 179.18 1111.97 183.59C1138.54 188.007 1163.87 197.487 1189.12 207.12C1215.81 217.296 1242.11 228.631 1267.97 241.066C1278.72 246.232 1289.57 249.472 1300.09 255.272C1312.5 262.13 1324.85 269.118 1337.21 276.087C1363.74 291.041 1390.33 305.831 1417.54 319.245C1423.51 322.176 1429.51 325.031 1435.53 327.78C1442.5 330.969 1450.64 331.691 1458.09 332.954C1472.24 335.36 1486.53 336.735 1500.82 337.663C1555.87 341.247 1610.98 335.935 1666.06 336.554V335.154C1618.65 334.552 1571.26 338.163 1523.85 337.224C1495.33 336.648 1466.86 333.968 1438.88 327.815C1432.14 326.327 1424.53 321.128 1418.2 318.043C1412.33 315.172 1406.49 312.207 1400.68 309.217C1388.16 302.771 1375.76 296.025 1363.42 289.192C1339.57 276.01 1315.95 262.38 1292.05 249.308C1288.55 247.383 1285.58 245.356 1281.62 245.122C1274.62 244.71 1265.99 238.582 1259.56 235.55C1247.52 229.859 1235.33 224.48 1223.1 219.289C1197.83 208.58 1172.13 198.459 1146.09 190.225C1121.73 182.533 1096.37 179.335 1071.13 177.532C974.822 170.631 876.006 208.651 799.456 270.569C765.274 298.225 734.632 330.891 708.679 367.569C695.344 386.433 683.508 406.526 673.068 427.418C668.027 437.49 663.45 447.82 659.16 458.287C655.029 468.351 650.442 478.252 649.837 489.268C649.118 502.203 646.016 514.612 646.39 527.659C646.685 538.022 650.354 548.181 654.877 557.187C664.502 576.386 681.793 590.446 700.025 598.903C741.634 618.17 791.847 611.038 832.267 591.598C877.68 569.753 920.221 538.538 970.499 531.285C1015.18 524.839 1060.16 542.321 1086.46 582.814C1088.54 585.995 1088.19 589.33 1089.65 592.63C1092.83 599.728 1096.4 606.311 1099.11 613.684C1103.9 626.696 1106.56 640.567 1108.68 654.334C1113.21 683.778 1113.82 713.409 1115.01 743.162C1116.1 770.302 1118.67 796.617 1126.8 822.431C1134.14 845.705 1145.35 867.346 1157.99 887.678C1163.9 897.217 1170.32 906.395 1176.87 915.455C1184.47 925.939 1193.73 934.119 1202.31 943.624C1218.04 961.072 1236.55 975.354 1256.05 987.369C1297.76 1013.06 1345.51 1026.59 1393.55 1019.41C1422.21 1015.11 1451.02 999.726 1472.09 978.518C1492.72 957.736 1507.12 930.734 1521.73 905.021C1539.73 873.343 1558.53 842.388 1589.76 824.528C1613.24 811.104 1639.75 806.052 1666.06 802.203V800.981Z" fill="#9E7D0A"/>
<path d="M-88.544 370.054C-84.5246 377.289 -80.8788 388.367 -73.6463 392.766C-64.2425 398.482 -54.3769 401.877 -43.626 402.992C-25.2099 404.909 -7.21794 396.953 7.82348 386.107C37.2375 364.905 55.8449 328.691 64.2425 292.295C68.6049 273.405 69.8091 253.656 67.7836 234.327C66.1647 218.765 62.289 202.066 50.2542 192.028C38.8173 182.48 24.6526 179.955 10.6068 182.557C-7.32904 185.884 -20.0354 199.539 -32.1564 213.161C-69.5301 255.134 -92.6915 310.815 -88.6322 369.699C-88.5688 370.594 -87.283 370.603 -87.3471 369.699C-90.849 318.867 -74.1003 270.99 -45.1973 231.406C-32.372 213.841 -16.6216 193.703 3.37417 186.039C20.577 179.447 40.6826 182.962 53.5961 197.28C67.1532 212.312 67.9274 238.513 67.3766 258.211C66.7624 280.221 61.6193 302.023 53.5242 322.159C37.9876 360.831 5.6302 398.929 -35.4983 401.747C-46.6412 402.503 -57.6698 399.556 -67.7432 394.597C-78.1034 389.5 -81.9405 379.239 -87.4352 369.348C-87.8579 368.584 -88.9752 369.279 -88.544 370.054Z" fill="#9E7D0A"/>
<path d="M1666.06 784.67C1662.26 784.962 1658.48 785.271 1654.68 785.65C1649.55 786.165 1644.43 786.887 1639.31 787.746C1636.31 788.244 1633.31 788.933 1630.34 789.619C1626.18 790.581 1621.09 789.225 1617.09 790.375C1595.55 796.547 1573.48 801.788 1555.04 815.987C1546.22 822.774 1539.58 832.504 1532.55 841.252C1524.03 851.84 1516.96 863.219 1510.33 875.268C1496.93 899.64 1486.03 926.023 1469.64 948.315C1438.07 991.183 1390.06 1005.5 1340.99 1000.4C1293.41 995.446 1249.23 968.288 1215.28 932.864C1181.58 897.68 1156.9 852.94 1145.59 803.781C1142.31 789.517 1141.25 774.889 1139.47 760.331C1137.7 745.825 1136.36 731.386 1137.2 716.742C1138.02 702.769 1140.36 688.95 1141 674.941C1141.59 661.776 1139.96 648.592 1138.29 635.581C1132.11 587.747 1114.31 540.239 1072.87 516.984C1033.55 494.915 984.471 494.957 942.154 504.257C896.932 514.2 859.575 542.113 817.512 560.985C797.302 570.06 775.768 576.111 753.756 574.22C730.371 572.21 705.026 559.214 693.334 536.492C683.3 516.984 685.398 492.526 691.938 472.226C693.62 467.018 695.846 462.033 698.27 457.195C700.567 452.606 700.152 448.043 702.194 443.186C707.068 431.647 712.49 420.387 718.281 409.362C740.773 366.392 770.552 328.32 804.974 296.014C842.395 260.909 885.559 232.936 932.407 215.344C957.625 205.872 983.802 200.313 1010.26 196.849C1039.39 193.033 1066.94 195.054 1095.59 201.499C1122.24 207.488 1147.79 215.508 1172.96 226.723C1198.73 238.195 1223.78 251.456 1248.59 265.12C1272.72 278.406 1296.89 291.737 1320.61 305.873C1331.15 312.154 1341.58 318.644 1351.87 325.399C1357.8 329.3 1363.18 333.589 1368.6 338.273C1373.34 342.363 1379 344.735 1383.31 349.41C1389.85 356.483 1403.06 357.745 1411.64 360.848C1421.93 364.578 1431.07 369.133 1442.14 370.054C1469.19 372.287 1497.15 366.89 1523.95 363.349C1552.47 359.584 1580.93 355.399 1609.53 352.556C1623.79 351.139 1638.08 350.175 1652.39 349.675C1656.95 349.514 1661.49 349.461 1666.06 349.436V348.027C1662.61 348.054 1659.17 348.104 1655.72 348.182C1641.4 348.507 1627.09 349.538 1612.81 350.846C1585.33 353.363 1557.97 357.369 1530.6 361.064C1504.41 364.604 1477.64 369.227 1451.2 369.151C1439.66 369.115 1427.99 366.512 1417.38 361.785C1405.11 356.328 1390.46 355.16 1380.79 344.709C1377.52 341.16 1371.27 338.806 1367.52 335.565C1363.45 332.05 1359.7 328.991 1355.2 325.975C1344.09 318.514 1332.7 311.529 1321.24 304.669C1297.57 290.481 1273.34 277.237 1249.24 263.917C1202.01 237.817 1154.37 213.934 1102.33 201.627C1075.87 195.371 1050.64 191.917 1023.5 194.049C998.269 196.034 973.066 200.933 948.725 208.34C903.137 222.202 860.883 247.108 823.35 278.081C788.928 306.482 758.781 340.654 734.216 379.197C721.471 399.185 710.529 420.473 701.086 442.482C699.203 446.874 699.308 452.417 697.161 456.491C695.319 459.97 693.692 463.65 692.314 467.363C688.93 476.471 686.682 485.796 685.621 495.542C683.771 512.593 686.985 531.645 697.05 545.328C709.461 562.171 729.35 571.556 748.636 574.942C789.232 582.092 829.109 557.771 863.833 538.452C884.394 527.003 904.891 515.85 927.35 509.448C952.999 502.126 980.468 497.647 1007.01 500.355C1030.31 502.725 1053.59 507.719 1074.51 519.476C1098.28 532.813 1114.01 555.829 1124.23 582.074C1133.87 606.79 1137.74 634.291 1139.61 660.882C1140.57 674.77 1138.83 688.794 1137.33 702.579C1135.7 717.585 1135.29 732.006 1136.69 747.063C1139.18 774.081 1142.5 800.551 1150.25 826.453C1156.96 848.936 1167.51 869.492 1179.71 888.999C1227.77 965.951 1316.79 1022.77 1404.33 997.163C1428.96 989.963 1450.4 974.132 1467.2 953.61C1487.88 928.309 1500.09 895.704 1516.37 867.172C1525.35 851.428 1537.01 835.718 1549.37 822.844C1561.28 810.451 1577.27 803.903 1592.83 798.866C1600.04 796.528 1607.37 794.57 1614.66 792.508C1619.05 791.27 1623.5 792.8 1627.73 791.717C1631.68 790.703 1635.65 789.843 1639.66 789.088C1648.38 787.454 1657.2 786.628 1666.06 785.957V784.67Z" fill="#9E7D0A"/>
<path d="M1666.06 768.635C1624.23 769.493 1582.16 770.284 1542.72 787.213C1526.09 794.346 1513.07 815.042 1504.03 830.889C1492.85 850.449 1484.92 872.001 1475.89 892.765C1466.16 915.177 1454.69 935.013 1436.71 950.775C1416.26 968.7 1390.44 979.563 1364.28 981.524C1315.84 985.117 1266.73 959.232 1231.95 924.288C1195.84 887.986 1171.66 838.296 1165.67 785.323C1162.39 756.051 1163.06 726.729 1164.99 697.371C1166.9 668.324 1169.69 639.207 1167.32 610.108C1165.21 584.551 1160.79 559.525 1148.62 537.181C1138.16 517.948 1121.75 501.05 1104.07 489.707C1084.82 477.357 1061.5 473.654 1039.63 470.861C1012.99 467.449 986.115 467.99 959.493 471.265C909.565 477.41 863.292 497.846 816.204 515.195C795.643 522.759 771.015 527.659 752.593 512.009C728.858 491.856 743.692 448.448 753.422 424.039C771.972 377.563 801.483 334.68 835.553 300.251C852.876 282.755 872.097 267.578 892.418 254.447C915.947 239.244 944.642 229.912 971.105 222.727C1074.13 194.771 1168.82 250.073 1248.81 314.931C1287.96 346.677 1325.14 382.661 1367.87 408.794C1387.2 420.62 1408.07 425.887 1430.24 422.657C1442.86 420.817 1453.77 415.129 1465.47 410.221C1478.49 404.764 1491.66 399.815 1504.95 395.224C1557.02 377.229 1611.39 366.555 1666.06 365.764V364.39C1621.97 365.061 1578.23 372.192 1535.5 384.199C1509.55 391.495 1484.09 400.802 1459.14 411.408C1446.25 416.881 1434.83 421.204 1420.86 422.33C1407.22 423.43 1391.83 419.957 1379.56 413.769C1356.43 402.116 1335.39 385.135 1315.18 368.489C1296.17 352.839 1277.44 336.776 1258.45 321.093C1221.66 290.705 1183.49 261.906 1141.06 241.46C1096.35 219.916 1047.89 209.372 999.052 215.713C973.545 219.023 948.598 227.42 924.624 237.18C901.877 246.455 881.429 259.13 861.921 274.737C826.684 302.909 797.478 338.968 774.366 379.085C761.972 400.578 750.918 423.18 744.074 447.485C738.22 468.299 734.281 494.486 749.865 511.252C761.988 524.306 780.156 525.114 796.011 522.347C818.487 518.427 839.67 506.688 861.108 498.826C911.576 480.304 963.911 467.826 1017.43 470.311C1043.67 471.522 1071.52 475.063 1095.73 486.648C1117.65 497.124 1136.84 518.273 1148.88 540.378C1162.77 565.919 1166.46 597.99 1166.98 627.142C1167.53 656.5 1164.18 685.805 1162.64 715.094C1159.84 768.771 1165.12 822.896 1190.57 870.06C1211.58 909.007 1242.16 941.476 1279.42 961.878C1320.64 984.464 1368.6 991.028 1411.21 969.475C1428.99 960.485 1445.55 947.045 1457.53 930.115C1470.67 911.517 1478.78 889.327 1487.74 868.168C1494.78 851.599 1502.27 835.253 1512 820.317C1517.28 812.205 1523.46 804.883 1530.24 798.266C1539.89 788.865 1551.35 784.789 1563.6 781.027C1596.81 770.817 1631.62 770.507 1666.06 769.957V768.635Z" fill="#9E7D0A"/>
<path d="M830.274 408.872C833.719 413.608 834.867 418.008 838.871 422.339C843.081 426.901 845.522 429.438 850.994 432.016C855.221 434.01 858.842 436.071 863.451 436.363C871.251 436.863 879.068 437.165 886.884 437.413C914.829 438.289 942.807 437.567 970.753 436.407C998.811 435.238 1026.85 433.495 1054.9 432.085C1068.37 431.405 1081.87 430.838 1095.35 430.41C1102.09 430.194 1108.84 430.049 1115.59 429.935C1121.49 429.841 1130.42 431.671 1136.01 429.78C1145.24 426.645 1156.26 425.664 1163.79 418.539C1170.43 412.266 1178.67 403.784 1179.82 393.875C1182.52 370.43 1172.12 348.104 1162.79 327.797C1158.59 318.669 1154.51 310.566 1148.56 302.66C1142.67 294.865 1136.04 287.781 1128.96 281.26C1116.87 270.106 1103 261.365 1088.38 254.706C1038.93 232.205 981.266 238.333 933.045 261.399C908.002 273.379 885.208 290.747 866.306 312.146C844.533 336.802 825.84 373.345 830.081 408.373C830.194 409.25 831.486 409.268 831.373 408.373C827.945 380.073 840.146 355.915 852.573 332.084C856.8 323.971 864.137 316.513 870.118 309.878C876.913 302.349 884.331 295.491 892.068 289.114C920.459 265.73 954.548 250.725 989.704 244.683C1025.29 238.566 1062.55 243.008 1095.31 259.544C1111.62 267.775 1126.29 279.377 1138.94 293.171C1154.97 310.652 1165 332.831 1173.12 355.658C1178.39 370.474 1182.81 390.301 1174.19 404.393C1163.44 421.994 1144.38 428.337 1125.72 428.432C1091.98 428.604 1058.26 430.46 1024.57 432.291C990.979 434.121 957.387 435.934 923.746 436.33C906.981 436.527 890.234 436.253 873.485 435.514C863.739 435.084 851.121 434.139 843.864 425.786C840.832 422.296 836.734 419.117 834.82 414.664C833.719 412.112 832.778 410.084 831.182 407.884C830.672 407.178 829.763 408.167 830.274 408.872Z" fill="#9E7D0A"/>
<path d="M895.338 372.331C909.806 398.104 940.495 399.54 965.585 400.399C996.147 401.447 1028.59 398.636 1057.81 388.331C1069.22 384.31 1078.06 378.235 1086.17 368.609C1091.02 362.86 1097.15 354.308 1097.88 346.368C1098.86 335.84 1097.26 326.199 1093.32 316.529C1077.55 277.83 1032.71 266.505 997.281 269.615C971.838 271.849 947.29 282.567 926.793 298.834C916.999 306.612 906.679 316.057 901.591 328.114C898.83 334.646 893.743 341.22 893.09 348.387C892.339 356.63 892.323 364.431 895.273 372.158C895.593 372.984 896.838 372.624 896.518 371.789C886.564 345.723 906.104 318.79 923.794 303.097C940.32 288.452 960.337 278.715 981.106 273.68C1022.6 263.607 1079.73 275.63 1094.85 324.643C1101.9 347.519 1088.44 370.474 1069.91 381.414C1058.07 388.393 1044 391.426 1030.87 393.969C998.78 400.202 963.878 401.997 931.722 395.292C916.84 392.192 904.668 386.261 896.454 371.625C896.023 370.861 894.907 371.556 895.338 372.331Z" fill="#9E7D0A"/>
<path d="M-23.3689 310.909C-20.2348 316.263 -17.115 322.038 -11.0617 323.182C-6.94684 323.954 -2.89483 322.554 0.6777 320.483C9.56985 315.31 13.8604 303.037 13.5174 292.664C13.1273 281.113 4.44233 273.654 -6.02894 276.894C-9.73024 278.045 -15.496 286.467 -17.7618 289.76C-22.1961 296.213 -24.46 302.47 -23.4558 310.557C-23.3526 311.434 -22.0609 311.443 -22.172 310.557C-23.5995 299.006 -17.5933 290.867 -10.4325 283.202C0.494762 271.523 11.8272 280.821 12.291 294.529C12.5622 302.556 8.94067 310.471 3.87588 316.09C0.854151 319.453 -3.19861 321.325 -7.44874 321.9C-14.7707 322.898 -18.8216 316.075 -22.2602 310.206C-22.7058 309.448 -23.8151 310.145 -23.3689 310.909Z" fill="#9E7D0A"/>
<path d="M1666.06 749.108C1647.57 748.437 1629.07 748.386 1610.61 747.372C1585.31 745.978 1560.29 740.496 1534.92 740.41C1524.16 740.376 1513.5 742.01 1503.18 745.325C1492.4 748.78 1485.52 754.265 1477.74 762.687C1471.71 769.218 1469.65 779.565 1467.5 788.107C1464.23 801.135 1461.65 814.37 1458.89 827.52C1453.45 853.421 1446.99 879.066 1434.4 902.098C1421 926.641 1401.34 942.73 1375.8 949.501C1327.48 962.341 1278.7 938.038 1245.16 901.306C1227.52 881.988 1213.35 859.299 1204.67 833.775C1196.36 809.335 1193.94 783.003 1194.13 757.133C1194.35 728.241 1199.04 700.018 1203.42 671.607C1207.96 642.044 1212.33 612.43 1216.05 582.729C1217.69 569.579 1219.16 556.413 1220.48 543.23C1222.08 527.417 1221.58 510.572 1228.17 496.032C1239.86 470.225 1275.03 477.133 1294.91 485.333C1331.66 500.518 1363.87 536.543 1405.86 521.986C1426.25 514.921 1443.32 498.635 1458.89 483.372C1467.21 475.21 1475.32 466.803 1483.77 458.786C1488.76 454.049 1494.52 450.371 1499.48 445.517C1502.37 442.707 1505.1 439.689 1507.84 436.724C1510.22 434.138 1514.75 432.779 1517.87 430.984C1519.15 430.253 1520.57 428.51 1521.57 427.434C1524.92 423.809 1528.94 421.54 1533.03 419.048C1540.2 414.672 1547.37 410.883 1555.05 407.616C1569.41 401.523 1584.36 397.123 1599.41 393.575C1621.33 388.417 1643.68 385.719 1666.06 384.077V382.702C1625.05 385.737 1583.74 392.277 1545.95 410.134C1536.26 414.716 1526.41 420.223 1518.94 428.302C1515.88 431.62 1510.44 432.72 1506.93 435.736C1500.89 440.928 1495.92 447.433 1489.7 452.512C1473.91 465.368 1460.19 480.871 1445.04 494.631C1428.72 509.471 1409.96 522.57 1388.19 524.392C1365.4 526.3 1344.71 511.638 1325.62 500.2C1308.4 489.887 1290.75 479.893 1270.97 477.15C1252.98 474.658 1234.38 479.186 1225.95 497.767C1221.58 507.401 1221.46 518.343 1220.55 528.792C1219.19 544.365 1217.5 559.902 1215.65 575.422C1211.98 606.259 1207.42 636.991 1202.71 667.655C1194.98 718.289 1187.29 769.149 1199.32 819.819C1219.57 905.123 1313.72 984.824 1395.93 943.777C1422.66 930.44 1439.01 900.929 1448.8 872.139C1454.36 855.844 1457.86 838.777 1461.39 821.865C1465.12 803.938 1467.68 784.017 1475.83 767.722C1485.11 749.177 1508.53 743.745 1526.18 742.164C1543.94 740.564 1561.9 743.539 1579.49 745.756C1608.28 749.4 1637.19 749.21 1666.06 750.413V749.108Z" fill="#9E7D0A"/>
<path d="M-223.121 935.512C-194.259 947.939 -162.405 954.539 -131.531 956.996C-93.7278 960.004 -55.7876 956.531 -17.952 956.791C16.2458 957.031 48.7227 963.734 80.0182 978.842C103.642 990.238 125.368 1005.86 145.019 1024.03H146.925C118.437 997.611 85.769 976.849 49.6079 965.126C1.57153 949.537 -49.4631 956.755 -98.8002 956.755C-147.674 956.755 -200.527 949.262 -244.01 923.393C-254.154 917.361 -263.406 909.746 -271.773 901.118C-275.409 897.372 -280.554 892.163 -279.556 885.976C-278.822 881.405 -274.819 877.621 -271.765 874.786C-265.823 869.285 -259.761 863.958 -253.389 859.042C-232.532 842.972 -206.421 837.162 -182.048 830.251C-156.311 822.965 -130.191 816.776 -104.279 810.212C-92.0212 807.117 -79.7069 804.333 -67.3213 801.927C-61.8331 800.86 -55.0938 800.878 -49.9662 798.575C-49.3749 798.3 -48.6582 797.372 -48.3949 797.113C-45.5318 794.277 -40.6351 794.209 -36.9894 793.351C7.30667 782.866 44.5034 757.032 78.4633 725.2C112.423 693.35 142.268 656.775 175.182 623.705C183.924 614.938 192.8 606.173 202.483 598.628C207.076 595.035 211.479 591.184 216.097 587.627C220.69 584.104 226.64 582.16 230.58 577.915C237.167 570.766 247.967 566.331 256.134 561.432C265.8 555.622 277.061 549.418 288.338 552.925C299.481 556.397 307.034 574.203 312.504 584.274C318.565 595.447 323.869 607.101 329.579 618.497C334.334 627.967 339.439 637.403 345.555 645.946C348.936 650.671 352.517 655.124 356.393 659.387C360.174 663.547 362.072 669.253 365.932 673.6C381.756 691.459 400.793 705.382 420.405 717.878C443.047 732.281 465.81 746.547 488.739 760.419C532.501 786.852 576.661 810.933 626.946 817.894C677.647 824.907 728.922 822.792 779.661 829.84C787.127 830.871 794.495 831.712 801.625 834.445C808.341 837.025 814.818 840.05 821.66 842.25C835.792 846.77 848.745 851.789 861.601 859.815C887.856 876.229 912.102 897.045 936.379 916.605C979.846 951.616 1022.42 987.917 1065.12 1024.03H1067.21C1031.78 994.105 996.451 964.044 960.657 934.634C938.708 916.605 916.711 898.489 894.077 881.473C874.841 867.036 855.731 852.356 833.368 844.191C822.028 840.068 810.638 836.44 799.345 832.091C788.769 828.036 776.169 827.675 765.098 826.23C739.496 822.929 713.656 822.345 687.935 821.314C661.536 820.231 635.146 818.598 609.129 813.425C582.371 808.114 557.846 797.149 533.497 784.326C510.144 772.018 487.486 758.234 464.988 744.21C442.952 730.476 420.38 717.327 399.318 701.894C389.229 694.502 379.786 686.166 370.973 677.072C366.515 672.467 363.795 667.861 360.454 662.343C357.606 657.651 353.228 653.887 349.854 649.572C334.509 630.031 325.313 605.639 313.613 583.57C306.3 569.768 296.458 547.785 278.657 550.605C270.299 551.928 262.833 555.915 255.487 560.228C251.285 562.687 247.177 565.334 243.007 567.844C239.114 570.198 234.544 571.643 231.385 575.062C226.912 579.91 220.683 582.625 215.443 586.441C210.752 589.845 206.358 593.763 201.829 597.423C192.88 604.644 184.546 612.567 176.291 620.714C159.542 637.266 143.655 654.816 127.697 672.243C95.945 706.893 63.5178 741.357 24.3735 766.21C2.01776 780.424 -21.1827 788.503 -46.448 794.089C-49.6788 794.811 -51.1456 797.733 -54.8553 798.317C-61.2431 799.331 -67.6003 800.551 -73.9397 801.823C-87.2988 804.503 -100.545 807.788 -113.761 811.208C-139.603 817.877 -165.651 823.962 -191.291 831.473C-214.389 838.245 -236.648 844.45 -256.38 859.661C-264.171 865.661 -272.833 872.328 -278.59 880.614C-283.983 888.398 -279.811 894.175 -274.643 900C-260.344 916.089 -242.143 927.33 -223.121 935.512Z" fill="#9E7D0A"/>
<path d="M-174.28 901.359C-167.501 908.216 -157.332 911.242 -148.727 914.146C-137.067 918.083 -124.896 920.078 -112.773 921.47C-86.4779 924.511 -59.1057 920.042 -32.756 919.234C-5.14339 918.391 22.1158 920.919 48.1878 931.299C71.0702 940.392 92.8347 952.579 113.357 966.742C136.972 983.054 158.561 1002.56 178.308 1024.03H180.079C152.021 993.503 120.318 967.257 84.8755 947.338C63.8604 935.512 41.5041 925.543 18.1368 920.97C-7.03481 916.054 -32.9631 917.583 -58.3557 919.011C-85.7442 920.541 -112.478 922.037 -139.443 915.4C-151.829 912.342 -165.675 908.148 -175.118 898.59C-189.147 884.376 -167.995 868.358 -157.109 862.48C-147.69 857.391 -137.083 854.952 -126.786 853.026C-113.642 850.567 -100.946 846.495 -88.0734 842.798C-63.0389 835.631 -36.6709 834.136 -12.2812 823.943C10.0177 814.594 31.4391 803.251 50.9796 788.313C69.2911 774.305 85.9764 757.942 102.047 741.065C136.566 704.848 168.251 663.461 209.125 635.239C231.074 620.078 254.386 615.351 277.691 629.462C295.292 640.136 308.683 657.874 322.689 673.189C329.684 680.837 337.897 685.736 344.933 693.35C353.858 703.009 363.969 710.641 374.458 718.222C395.8 733.657 418.49 746.719 440.662 760.658C484.934 788.537 528.384 817.723 577.307 835.221C601.623 843.917 626.866 849.554 652.443 851.188C680.191 852.976 707.785 852.477 735.508 855.793C762.018 858.957 788.275 861.914 813.492 871.898C839.191 882.091 861.68 899.88 884.522 915.797C906.646 931.215 927.926 947.939 949.411 964.37C970.993 980.872 993.419 996.305 1014.6 1013.37C1019 1016.91 1023.42 1020.45 1027.81 1024.03H1030.14C995.333 995.274 958.295 969.439 922.581 942.112C900.601 925.302 878.142 909.316 855.348 893.779C834.292 879.427 812.632 868.478 788.338 862.29C763.741 856.053 737.39 854.145 712.252 852.046C683.995 849.675 655.45 851.479 627.393 846.96C574.037 838.381 525.393 812.481 479.208 783.534C456.494 769.303 433.851 754.934 411.098 740.789C388.542 726.747 364.354 712.393 345.842 692.371C342.484 688.726 339.317 684.431 335.33 681.593C331 678.535 327.299 676.197 323.598 672.208C316.349 664.371 309.418 656.224 302.064 648.489C289.399 635.17 274.955 623.395 257.266 619.751C236.96 615.591 217.436 627.16 201.287 639.207C182.217 653.406 165.269 670.8 148.807 688.314C114.832 724.461 83.0167 763.203 43.3465 792.334C22.1876 807.875 -3.5002 820.473 -28.1532 827.675C-52.861 834.911 -78.1673 838.348 -102.836 845.722C-123.364 851.876 -145.408 852.976 -164.071 864.989C-171.082 869.51 -176.648 876.006 -180.74 883.587C-184.146 889.895 -178.156 897.422 -174.28 901.359Z" fill="#9E7D0A"/>
<path d="M1225.32 801.943C1231.79 866.656 1296.04 936.337 1359.35 921.193C1375.62 917.31 1389.51 906.481 1400.46 893.23C1403.78 889.206 1405.32 883.553 1407.49 878.74C1409.45 874.34 1414.13 868.29 1414.89 863.598C1416.47 853.937 1417.52 844.227 1418.1 834.429C1420.41 794.604 1413.55 754.092 1398.75 717.602C1386.85 688.297 1368.76 662 1345.51 642.147C1335.6 633.692 1323 623.07 1310.16 621.986C1295.8 620.783 1285.85 624.855 1274.88 634.584C1254.3 652.839 1242.45 681.679 1234.61 708.475C1225.92 738.245 1221.82 770.835 1225.32 801.943C1225.41 802.82 1226.7 802.837 1226.61 801.943C1222.06 761.483 1229.96 718.548 1245.44 681.647C1252.67 664.406 1262.45 647.991 1275.78 635.582C1283.33 628.551 1291.61 623.687 1301.64 623.154C1314.19 622.468 1323.3 627.624 1333.57 634.687C1367.65 658.063 1391.06 695.997 1404.32 736.63C1410.97 756.964 1414.81 778.345 1416.47 799.812C1417.22 809.696 1417.33 819.613 1417.03 829.512C1416.7 840.479 1417.24 856.327 1412.17 866.004C1408.58 872.895 1405.42 880.063 1402.34 887.264C1399.66 893.538 1394.35 898.439 1389.59 902.889C1381.32 910.675 1371.43 916.159 1360.9 919.339C1340.48 925.526 1318.69 920.162 1300.09 910.297C1262.51 890.392 1231.15 847.527 1226.61 801.943C1226.51 801.051 1225.23 801.051 1225.32 801.943Z" fill="#9E7D0A"/>
<path d="M83.0081 910.845C127.138 944.26 167.692 982.52 205.384 1024.03H207.188C178.436 992.232 148.033 962.185 115.446 934.995C96.2482 918.993 75.1698 905.363 56.4513 888.776C47.7499 881.076 40.1959 870.728 42.5414 857.907C43.7612 851.255 48.5699 844.827 52.0477 839.309C56.6813 831.971 61.9767 825.111 67.225 818.272C83.6079 796.889 102.501 778.001 121.092 758.922C139.77 739.774 156.184 717.377 176.172 699.916C197.593 681.181 221.655 662.411 250.789 667.806C263.479 670.147 275.553 679.015 286.647 685.736C298.579 692.954 310.231 700.688 321.812 708.543C367.702 739.637 413.561 770.42 460.697 799.313C505.407 826.711 550.892 855.828 601.001 869.819C653.057 884.359 707.881 877.244 760.631 887.332C788.593 892.678 813.174 903.335 837.849 918.306C861.091 932.398 883.694 947.696 905.945 963.544C933.221 982.967 959.843 1003.4 986.353 1024.03H988.522C952.011 995.652 915.244 967.617 877.073 941.854C855.635 927.381 833.304 911.241 809.84 900.911C786.04 890.444 760.662 884.91 735.19 882.021C708.391 878.979 681.403 878.756 654.525 876.917C627.233 875.044 601.097 869.645 575.241 859.97C549.266 850.242 524.948 835.65 500.781 821.659C477.061 807.907 453.67 793.521 430.414 778.894C383.916 749.641 339.309 717.069 292.796 687.918C274.126 676.214 254.283 661.946 231.672 666.054C208.416 670.267 190.726 685.407 172.877 700.998C162.995 709.643 155.091 720.093 146.374 730.01C137.243 740.444 127.6 750.345 117.966 760.211C99.3275 779.341 80.7593 798.418 64.3385 819.853C53.5386 833.947 35.1794 853.318 42.7733 873.153C49.3362 890.29 69.8332 900.877 83.0081 910.845Z" fill="#9E7D0A"/>
<path d="M126.651 883.948C134.771 903.077 149.063 918.736 162.223 933.845C168.891 941.51 175.047 949.898 181.994 957.255C191.549 967.361 201.343 976.609 210.331 987.368C220.794 999.864 232.063 1011.52 242.479 1024.03H244.258C232.279 1009.44 219.104 996.013 207.125 981.403C199.005 971.503 189.53 963.271 180.789 954.04C173.412 946.238 166.849 937.128 159.758 928.98C145.027 912.032 130.225 894.208 123.588 871.624C119.809 858.75 120.775 847.783 125.121 835.375C129.42 823.085 135.257 811.483 141.853 800.483C154.239 779.788 170.476 761.981 188.27 746.702C198.263 738.125 208.688 729.892 220.93 725.629C234.688 720.834 248.701 719.65 262.745 723.516C286.584 730.08 310.271 742.148 332.539 753.285C355.708 764.887 377.896 778.672 399.692 793.006C443.302 821.659 485.444 853.027 531.049 878C552.288 889.638 574.467 899.315 597.645 905.346C608.205 908.115 618.986 909.746 629.809 910.572C635.768 911.037 641.749 911.001 647.707 910.795C653.385 910.607 657.342 914.095 662.74 914.354C690.112 915.66 717.564 916.227 744.6 921.485C770.841 926.592 795.82 937.935 819.698 950.448C858.093 970.576 893.568 996.563 927.813 1024.03H929.935C895.975 996.803 860.915 971.192 823.048 950.689C801.148 938.829 778.114 928.378 754.236 922.225C729.591 915.899 704.037 914.799 678.827 913.684C672.454 913.407 665.125 914.078 659.032 912.016C654.885 910.622 652.102 909.18 647.707 909.403C633.948 910.143 620.135 908.663 606.609 905.984C581.383 901.015 557.303 890.411 534.383 878.241C488.556 853.937 446.364 822.345 402.962 793.522C361.107 765.746 317.394 742.302 271 724.822C250.168 716.985 229.16 718.978 209.197 729.136C200.64 733.502 192.664 741.167 185.28 747.511C176.307 755.211 167.981 763.77 160.188 772.844C145.904 789.518 134.276 808.751 125.91 829.598C122.321 838.537 119.226 846.874 119.721 856.671C120.2 866.176 122.999 875.353 126.651 883.948Z" fill="#9E7D0A"/>
<path d="M175.422 876.83C168.603 847.475 178.906 822.396 196.955 800.637C212.348 782.074 233.603 769.818 256.812 769.097C269.3 768.719 282.413 772.483 294.471 775.664C307.391 779.083 319.992 783.775 332.339 789.121C344.773 794.501 356.824 801.308 369.17 807.031C381.587 812.789 393.193 820.094 404.773 827.571C447.928 855.433 485.955 891.406 531.51 914.954C552.398 925.748 574.45 933.672 597.125 938.639C620.701 943.796 645.09 945.155 669.008 947.424C707.355 951.032 745.813 955.536 782.197 969.922C813.365 982.246 842.029 1002.53 868.97 1024.03H870.996C836.159 996.493 799.12 971.949 757.042 959.953C709.795 946.494 660.299 946.58 612.095 939.859C562.042 932.881 516.382 908.233 475.212 877.639C453.661 861.621 432.95 844.62 410.65 829.788C400.123 822.792 389.46 815.83 378.35 809.988C366.187 803.577 353.401 798.711 341.344 792.042C321.428 781.043 298.761 774.546 276.861 770.146C258.054 766.381 240.821 767.603 223.458 776.779C206.892 785.511 193.646 800.604 183.667 817.087C172.415 835.683 169.175 855.656 174.185 877.193C174.385 878.069 175.629 877.69 175.422 876.83Z" fill="#9E7D0A"/>
<path d="M183.102 900.155C187.329 907.7 191.891 915.022 196.572 922.242C205.736 936.354 215.809 949.76 226.186 962.839C242.791 983.775 260.472 1003.68 277.683 1024.03H279.445C262.649 1004.09 245.414 984.6 229.025 964.266C217.97 950.551 207.459 936.336 197.688 921.538C192.951 914.353 188.5 906.961 184.218 899.451C180.111 892.282 179.672 883.655 175.358 876.66C174.902 875.921 173.787 876.607 174.249 877.364C178.524 884.308 179.082 892.988 183.102 900.155Z" fill="#9E7D0A"/>
<path d="M1290.57 820.489C1298.37 834.961 1313.48 856.911 1330.91 847.837C1344.05 840.977 1345.87 824.117 1342.63 810.418C1339.48 797.08 1328.77 778.792 1315.05 776.797C1291.86 773.428 1288.27 801.344 1290.49 820.146C1290.6 821.022 1291.88 821.022 1291.78 820.146C1290.79 811.843 1290.51 803.749 1292.39 795.551C1295.18 783.433 1307.38 773.343 1318.96 779.256C1329.81 784.789 1337.21 797.063 1340.9 808.99C1344.8 821.573 1343.48 836.235 1333.21 844.689C1316.38 858.526 1299.26 833.878 1291.69 819.785C1291.27 819.012 1290.16 819.716 1290.57 820.489Z" fill="#9E7D0A"/>
<path d="M249.028 888.383C247.473 873.514 252.665 860.262 262.459 849.897C271.67 840.152 285.236 837.541 297.598 837.317C323.678 836.852 350.524 849.468 373.07 862.429C417.303 887.831 452.578 927.4 495.894 954.161C540.419 981.679 594.055 985.975 644.022 991.27C672.622 994.294 701.223 997.577 729.256 1004.66C746.531 1009.01 762.37 1015.52 777.524 1024.03H780.315C766.326 1015.95 751.795 1009.57 735.812 1004.99C710.194 997.611 683.691 994.242 657.389 991.303C602.949 985.218 545.501 982.246 496.538 952.957C475.3 940.255 456.431 923.326 437.209 907.444C416.903 890.669 396.183 874.477 373.724 861.225C341.791 842.388 284.542 817.173 256.149 855.346C249.243 864.629 246.515 876.694 247.744 888.383C247.832 889.277 249.124 889.277 249.028 888.383Z" fill="#9E7D0A"/>
<path d="M287.948 965.092C297.782 978.103 307.656 991.131 318.311 1003.37C324.389 1010.33 330.641 1017.09 336.719 1024.03H338.553C332.938 1017.53 327.131 1011.23 321.406 1004.83C311.237 993.503 301.993 981.283 292.693 969.131C274.046 944.759 256.676 919.217 249.003 888.21C248.789 887.333 247.552 887.694 247.768 888.571C254.937 917.55 270.585 942.147 287.948 965.092Z" fill="#9E7D0A"/>
</g>
</svg>
