<svg width="26" height="21" viewBox="0 0 26 21" fill="none" xmlns="http://www.w3.org/2000/svg">
<path d="M21.125 20.5625H1.625C1.40951 20.5625 1.20285 20.4769 1.05048 20.3245C0.898102 20.1722 0.8125 19.9655 0.8125 19.75V3.5C0.8125 3.06902 0.983705 2.6557 1.28845 2.35095C1.5932 2.0462 2.00652 1.875 2.4375 1.875H23.5625C23.9935 1.875 24.4068 2.0462 24.7115 2.35095C25.0163 2.6557 25.1875 3.06902 25.1875 3.5V16.5C25.1881 16.6069 25.1676 16.7129 25.1272 16.8119C25.0868 16.9109 25.0272 17.001 24.9519 17.0769L21.7019 20.3269C21.626 20.4022 21.5359 20.4618 21.4369 20.5022C21.3379 20.5426 21.2319 20.5631 21.125 20.5625ZM2.4375 18.9375H20.7919L23.5625 16.1669V3.5H2.4375V18.9375Z" fill="#182538"/>
<path d="M13.8125 0.25H12.1875V2.6875H13.8125V0.25Z" fill="#182538"/>
<path d="M6.5 0.25H4.875V2.6875H6.5V0.25Z" fill="#182538"/>
<path d="M21.125 0.25H19.5V2.6875H21.125V0.25Z" fill="#182538"/>
<path d="M24.375 8.375H1.625C1.40951 8.375 1.20285 8.2894 1.05048 8.13702C0.898102 7.98465 0.8125 7.77799 0.8125 7.5625C0.8125 7.34701 0.898102 7.14035 1.05048 6.98798C1.20285 6.8356 1.40951 6.75 1.625 6.75H24.375C24.5905 6.75 24.7972 6.8356 24.9495 6.98798C25.1019 7.14035 25.1875 7.34701 25.1875 7.5625C25.1875 7.77799 25.1019 7.98465 24.9495 8.13702C24.7972 8.2894 24.5905 8.375 24.375 8.375Z" fill="#182538"/>
<path d="M10.5629 16.5C10.3474 16.5 10.1408 16.4144 9.9884 16.262C9.83603 16.1096 9.75043 15.903 9.75043 15.6875V12.1287L9.30355 12.3481C9.11417 12.427 8.90195 12.4313 8.70952 12.3602C8.5171 12.289 8.3587 12.1477 8.26613 11.9647C8.17356 11.7816 8.15367 11.5703 8.21046 11.3731C8.26726 11.176 8.39652 11.0076 8.5723 10.9019L10.1973 10.0894C10.321 10.027 10.4586 9.99736 10.5969 10.0032C10.7353 10.009 10.8699 10.05 10.988 10.1225C11.106 10.1949 11.2036 10.2964 11.2714 10.4171C11.3392 10.5379 11.375 10.674 11.3754 10.8125V15.6875C11.3754 15.903 11.2898 16.1096 11.1375 16.262C10.9851 16.4144 10.7784 16.5 10.5629 16.5Z" fill="#182538"/>
<path d="M16.25 16.5H14.625C14.194 16.5 13.7807 16.3288 13.476 16.024C13.1712 15.7193 13 15.306 13 14.875V11.625C13 11.194 13.1712 10.7807 13.476 10.476C13.7807 10.1712 14.194 10 14.625 10H16.25C16.681 10 17.0943 10.1712 17.399 10.476C17.7038 10.7807 17.875 11.194 17.875 11.625V14.875C17.875 15.306 17.7038 15.7193 17.399 16.024C17.0943 16.3288 16.681 16.5 16.25 16.5ZM14.625 11.625V14.875H16.25V11.625H14.625Z" fill="#182538"/>
<path d="M24.375 16.5L21.125 19.75V16.5H24.375Z" fill="#182538"/>
<path d="M21.125 20.5625C21.0184 20.5652 20.9127 20.543 20.8163 20.4975C20.6679 20.4365 20.5409 20.333 20.4512 20.2C20.3616 20.067 20.3133 19.9104 20.3125 19.75V16.5C20.3125 16.2845 20.3981 16.0778 20.5505 15.9255C20.7028 15.7731 20.9095 15.6875 21.125 15.6875H24.375C24.5354 15.6883 24.692 15.7366 24.825 15.8262C24.958 15.9159 25.0615 16.0429 25.1225 16.1913C25.1847 16.3392 25.2017 16.5023 25.1714 16.6599C25.141 16.8175 25.0646 16.9626 24.9519 17.0769L21.7019 20.3269C21.626 20.4022 21.5359 20.4618 21.4369 20.5022C21.3379 20.5426 21.2319 20.5631 21.125 20.5625ZM21.9375 17.3125V17.7919L22.4169 17.3125H21.9375Z" fill="#182538"/>
</svg>
