<svg width="21" height="21" viewBox="0 0 21 21" fill="none" xmlns="http://www.w3.org/2000/svg">
<path d="M15.3668 8.12724L18.5306 9.28935L15.8994 16.4532C15.6532 17.127 14.3179 19.2354 13.3881 19.6654L13.1624 20.281C13.1049 20.4369 12.9572 20.5345 12.8004 20.5345C12.7561 20.5345 12.7118 20.5263 12.6675 20.5107C12.4681 20.4369 12.3647 20.2161 12.4385 20.015L12.6519 19.4332C12.18 18.5165 12.5321 15.8541 12.7389 15.2911L15.3668 8.12724ZM19.9454 0.547285C19.0755 0.228854 18.057 0.887053 17.7657 1.68231L15.86 6.87404L19.023 8.03451L20.9262 2.8436C21.1658 2.1936 20.817 0.866536 19.9454 0.547285ZM14.2211 7.85888C14.3097 7.8917 14.4008 7.9073 14.4894 7.9073C14.8029 7.9073 15.0976 7.71525 15.2133 7.40339L17.224 1.98022C17.3725 1.58054 17.1682 1.13655 16.7685 0.98882C16.3656 0.842736 15.9248 1.04463 15.7763 1.44431L13.7656 6.86747C13.617 7.26715 13.8214 7.71115 14.2211 7.85888ZM10.9842 18.0281C10.7766 17.832 10.5181 17.5874 10.0995 17.4011C9.75484 17.2477 9.41917 17.2403 9.17378 17.2345C9.14834 17.2345 9.11879 17.2337 9.08925 17.2329C8.93578 16.8127 8.62473 16.5484 8.15776 16.445C7.53977 16.3145 7.04653 16.6059 6.7043 16.8307C6.73467 16.6584 6.78473 16.4532 6.82166 16.3055C6.93984 15.8295 7.06131 15.3371 6.97103 14.8758C6.89963 14.5114 6.59187 14.2406 6.22091 14.2144C5.2648 14.161 4.4835 14.6756 3.79493 15.1409C3.0719 15.6292 2.6082 15.9206 2.14697 15.7556C1.58397 15.5554 1.52735 14.0313 1.79818 12.6739C2.04028 11.4511 2.49084 9.17445 3.64557 8.14038C4.03458 7.7924 4.59757 7.4157 5.06045 7.59872C5.60457 7.8121 6.05431 8.7083 6.15444 9.77602C6.19629 10.2266 6.58941 10.5573 7.04818 10.5163C7.49956 10.4744 7.83112 10.0739 7.78844 9.62256C7.62595 7.88268 6.81017 6.52196 5.66038 6.06976C4.97181 5.80221 3.877 5.72999 2.54993 6.91754C1.10633 8.21013 0.572875 10.4022 0.186326 12.3547C-0.00735814 13.3296 -0.479259 16.5648 1.59546 17.3026C2.85934 17.7532 3.88603 17.0581 4.71083 16.5016C4.86184 16.3999 5.01038 16.2997 5.15483 16.2103C5.01777 16.8053 4.93242 17.4422 5.29188 17.9789C5.8278 18.7848 6.5853 18.8726 7.54223 18.2423C7.57917 18.2185 7.62184 18.1906 7.66206 18.1627C7.75069 18.3482 7.90745 18.5526 8.19223 18.6921C8.53692 18.8611 8.88161 18.8694 9.13275 18.8759C9.24026 18.8784 9.38716 18.8817 9.43148 18.9014C9.58577 18.9695 9.67687 19.0532 9.85414 19.2206C9.98709 19.3462 10.1274 19.4767 10.3055 19.6113C10.4532 19.7221 10.6256 19.7746 10.7963 19.7746C11.0458 19.7746 11.2928 19.6605 11.4537 19.4463C11.7253 19.0836 11.6515 18.569 11.2887 18.2973C11.1697 18.2054 11.0753 18.1143 10.9842 18.0281Z" fill="black"/>
</svg>
