<svg width="13" height="15" viewBox="0 0 13 15" fill="none" xmlns="http://www.w3.org/2000/svg">
<path fill-rule="evenodd" clip-rule="evenodd" d="M11.875 3.75H11.1938L10.0656 13.8231C9.99187 14.4831 9.41375 15 8.75 15H3.75C3.085 15 2.50812 14.4825 2.435 13.8219L1.325 3.75H0.625C0.28 3.75 0 3.47 0 3.125C0 2.78 0.28 2.5 0.625 2.5H3.75V1.875C3.75 0.84125 4.59125 0 5.625 0H6.875C7.90875 0 8.75 0.84125 8.75 1.875V2.5H11.875C12.22 2.5 12.5 2.78 12.5 3.125C12.5 3.47 12.22 3.75 11.875 3.75ZM7.5 1.875C7.5 1.53062 7.21938 1.25 6.875 1.25H5.625C5.28062 1.25 5 1.53062 5 1.875V2.5H7.5V1.875ZM2.5825 3.75L3.67813 13.6856C3.68063 13.71 3.725 13.75 3.75 13.75H8.75C8.775 13.75 8.82063 13.7094 8.82375 13.6844L9.93625 3.75H2.5825Z" fill="#919AA3"/>
</svg>
