<svg width="25" height="25" viewBox="0 0 25 25" fill="none" xmlns="http://www.w3.org/2000/svg">
<g clip-path="url(#clip0)">
<path d="M18.2938 9.67543L22.0602 11.0589L18.9279 19.5873C18.6347 20.3894 17.0451 22.8994 15.9382 23.4114L15.6695 24.1441C15.6011 24.3298 15.4252 24.446 15.2386 24.446C15.1859 24.446 15.1331 24.4363 15.0803 24.4177C14.8429 24.3298 14.7198 24.0669 14.8078 23.8276L15.0618 23.1349C14.5 22.0435 14.9191 18.8741 15.1653 18.2038L18.2938 9.67543ZM23.7446 0.65167C22.7089 0.272586 21.4964 1.05616 21.1496 2.00289L18.881 8.18352L22.6464 9.56503L24.9121 3.38537C25.1974 2.61157 24.7822 1.03173 23.7446 0.65167ZM16.9298 9.35595C17.0354 9.39503 17.1438 9.41359 17.2493 9.41359C17.6226 9.41359 17.9733 9.18497 18.1111 8.8137L20.5048 2.35755C20.6816 1.88174 20.4383 1.35317 19.9625 1.17731C19.4828 1.0034 18.9581 1.24374 18.7813 1.71955L16.3876 8.17571C16.2108 8.65151 16.454 9.18008 16.9298 9.35595ZM13.0765 21.4622C12.8293 21.2287 12.5215 20.9375 12.0232 20.7158C11.6129 20.5331 11.2133 20.5243 10.9212 20.5174C10.8909 20.5174 10.8557 20.5165 10.8205 20.5155C10.6378 20.0152 10.2675 19.7006 9.71162 19.5775C8.97592 19.4222 8.38873 19.769 7.98131 20.0367C8.01746 19.8316 8.07706 19.5873 8.12103 19.4114C8.26172 18.8448 8.40632 18.2586 8.29885 17.7095C8.21385 17.2757 7.84746 16.9533 7.40585 16.922C6.26762 16.8585 5.3375 17.4711 4.51778 18.025C3.65702 18.6064 3.105 18.9532 2.55592 18.7568C1.88568 18.5184 1.81827 16.7041 2.14069 15.0881C2.42891 13.6324 2.96529 10.9221 4.33996 9.69106C4.80307 9.27681 5.4733 8.82835 6.02434 9.04623C6.67211 9.30026 7.20751 10.3672 7.32671 11.6383C7.37654 12.1747 7.84453 12.5684 8.39069 12.5195C8.92805 12.4697 9.32276 11.9929 9.27196 11.4556C9.07851 9.38428 8.10735 7.76438 6.73854 7.22604C5.91882 6.90753 4.61548 6.82155 3.03564 8.2353C1.31706 9.77411 0.681994 12.3837 0.221817 14.7081C-0.00875969 15.8688 -0.570547 19.7202 1.89936 20.5985C3.40397 21.1349 4.62623 20.3074 5.60813 19.6449C5.7879 19.5238 5.96474 19.4046 6.1367 19.2981C5.97354 20.0064 5.87193 20.7646 6.29986 21.4036C6.93786 22.363 7.83965 22.4676 8.97885 21.7172C9.02282 21.6889 9.07362 21.6557 9.1215 21.6224C9.22702 21.8432 9.41363 22.0865 9.75265 22.2526C10.163 22.4539 10.5733 22.4637 10.8723 22.4715C11.0003 22.4744 11.1752 22.4783 11.228 22.5018C11.4116 22.5828 11.5201 22.6825 11.7311 22.8818C11.8894 23.0313 12.0565 23.1866 12.2685 23.3469C12.4443 23.4788 12.6495 23.5413 12.8527 23.5413C13.1498 23.5413 13.4438 23.4055 13.6353 23.1505C13.9587 22.7187 13.8708 22.1061 13.439 21.7827C13.2973 21.6732 13.1849 21.5648 13.0765 21.4622Z" fill="black"/>
</g>
<defs>
<clipPath id="clip0">
<rect width="25" height="25" fill="white"/>
</clipPath>
</defs>
</svg>
