<svg width="23" height="15" viewBox="0 0 23 15" fill="none" xmlns="http://www.w3.org/2000/svg">
<g clip-path="url(#clip0)">
<path fill-rule="evenodd" clip-rule="evenodd" d="M22.5177 2.50501L21.2633 12.7189C21.1278 13.9846 20.0315 14.9868 18.7686 14.9868H6.5682C6.0497 14.9868 5.62906 14.5681 5.62906 14.0524C5.62906 13.5357 6.06852 13.2026 6.58702 13.2026H18.8204C19.1149 13.2026 19.3634 12.8262 19.3972 12.5063L20.5359 3.24466L12.826 10.0746C12.6538 10.228 12.4318 10.3118 12.2021 10.3118C12.1833 10.3118 12.1654 10.3108 12.1466 10.309C11.8982 10.2948 11.6658 10.1829 11.5001 9.99748L3.98696 1.58186C3.95497 1.5461 3.94273 1.50093 3.91733 1.46141C3.88063 1.40589 3.8411 1.35413 3.81758 1.29014C3.79311 1.22615 3.78746 1.16122 3.77711 1.09441C3.77052 1.0483 3.74982 1.00783 3.74982 0.95984C3.74982 0.95043 3.75547 0.942901 3.75547 0.933491C3.75735 0.863855 3.77899 0.799865 3.79593 0.733052C3.81005 0.680354 3.81381 0.626716 3.8364 0.578723C3.85804 0.530731 3.89568 0.491208 3.92579 0.446038C3.96438 0.389576 3.99825 0.330292 4.04813 0.28324C4.05566 0.276653 4.05848 0.267243 4.06507 0.261597C4.10083 0.229602 4.146 0.217368 4.18458 0.19196C4.24104 0.15526 4.29374 0.115737 4.35773 0.0922113C4.42172 0.0677445 4.48759 0.0620984 4.55534 0.0517471C4.60051 0.0451599 4.64192 0.0253983 4.68897 0.0253983H20.1764C20.853 0.0253983 21.5023 0.315235 21.9587 0.820568C22.386 1.29296 22.5845 1.89146 22.5177 2.50501ZM6.78088 1.89522L12.2793 8.05614L19.2326 1.89522H6.78088ZM6.5682 5.63581C6.5682 6.15244 6.14756 6.5712 5.62906 6.5712H2.81256C2.29405 6.5712 1.87341 6.15244 1.87341 5.63581C1.87341 5.11919 2.29405 4.70043 2.81256 4.70043H5.62906C6.14756 4.70043 6.5682 5.11919 6.5682 5.63581ZM7.50735 8.44102C7.50735 8.95764 7.08671 9.3764 6.5682 9.3764H0.934264C0.415757 9.3764 -0.00488281 8.95764 -0.00488281 8.44102C-0.00488281 7.92439 0.415757 7.50564 0.934264 7.50564H6.5682C7.08671 7.50564 7.50735 7.92439 7.50735 8.44102ZM3.75076 10.3118H8.4465C8.965 10.3118 9.3847 10.7296 9.3847 11.2462C9.3847 11.7629 8.965 12.1816 8.4465 12.1816H3.75076C3.23226 12.1816 2.81256 11.7629 2.81256 11.2462C2.81256 10.7296 3.23226 10.3118 3.75076 10.3118Z" fill="#9E7D0A"/>
</g>
<defs>
<clipPath id="clip0">
<rect width="22.5264" height="15" fill="white"/>
</clipPath>
</defs>
</svg>
