<svg width="20" height="20" viewBox="0 0 20 20" fill="none" xmlns="http://www.w3.org/2000/svg">
<path fill-rule="evenodd" clip-rule="evenodd" d="M10.1667 5.83333C10.3333 5.83333 10.5 5.91667 10.5833 6L14.8333 10.3333C15 10.5 15 10.75 14.8333 10.9167L14.25 11.5C14.1667 11.6667 13.8333 11.6667 13.6667 11.4167L10.8333 8.58333V17.0833C10.8333 17.3333 10.6667 17.5 10.4167 17.5H9.58332C9.33332 17.5 9.16666 17.3333 9.16666 17.0833L9.16666 8.58333L6.33332 11.4167C6.16666 11.5833 5.91666 11.5833 5.74999 11.4167L5.16666 10.8333C4.99999 10.6667 4.99999 10.4167 5.16666 10.25L9.41666 6C9.49999 5.91667 9.66666 5.83333 9.83332 5.83333H10.1667ZM2.5 7.08333V4.16667C2.5 3.25 3.25 2.5 4.16667 2.5L15.8333 2.5C16.75 2.5 17.5 3.25 17.5 4.16667V7.08333C17.5 7.33333 17.3333 7.5 17.0833 7.5H16.25C16 7.5 15.8333 7.33333 15.8333 7.08333V4.16667L4.16667 4.16667V7.08333C4.16667 7.33333 4 7.5 3.75 7.5H2.91667C2.66667 7.5 2.5 7.33333 2.5 7.08333Z" fill="#9E7D0A"/>
</svg>
