<svg width="14" height="15" viewBox="0 0 14 15" fill="none" xmlns="http://www.w3.org/2000/svg">
<path d="M10.4667 2.05432L9.25833 3.26265C10.7 4.13765 11.6667 5.71265 11.6667 7.52099C11.6667 10.2793 9.425 12.521 6.66667 12.521C3.90833 12.521 1.66667 10.2793 1.66667 7.52099C1.66667 5.71265 2.63333 4.13765 4.06667 3.25432L2.86667 2.05432C1.13333 3.25432 0 5.25432 0 7.52099C0 11.2043 2.98333 14.1877 6.66667 14.1877C10.35 14.1877 13.3333 11.2043 13.3333 7.52099C13.3333 5.25432 12.2 3.25432 10.4667 2.05432ZM7.5 0.0209961H5.83333V8.35432H7.5" fill="white"/>
</svg>
