<svg width="24" height="16" viewBox="0 0 24 16" fill="none" xmlns="http://www.w3.org/2000/svg">
<path d="M23.9216 6.43189C23.2194 4.66069 22.5179 2.88873 21.8164 1.11753C21.5117 0.350748 21.1433 0 20.2569 0C19.5083 0 18.9588 0.655185 18.7888 1.11829C17.695 4.1042 16.6042 7.08936 15.5104 10.0753C14.5222 8.23346 13.5302 6.39166 12.5405 4.55061C12.2702 4.0465 11.8547 3.84608 11.428 3.82406C10.8785 3.69576 10.29 3.87265 9.95539 4.55061C9.03304 6.42126 8.11144 8.29268 7.1876 10.1626C6.39776 9.20143 5.61017 8.24257 4.82034 7.28143C4.27457 6.61714 3.57158 6.68546 3.04826 7.07569C2.8334 7.20779 2.63126 7.3695 2.4688 7.58739C1.72014 8.60167 0.971483 9.61292 0.222824 10.6257C-0.268296 11.29 0.115766 12.3202 0.759613 12.7028C1.52549 13.1568 2.31982 12.8182 2.80794 12.1585C3.14559 11.7015 3.48174 11.2452 3.82163 10.7881C4.69606 11.8525 5.57049 12.9192 6.44642 13.9836C6.83947 14.4611 7.31337 14.5424 7.74759 14.4209C8.15711 14.3882 8.54866 14.1795 8.79721 13.6769C9.63197 11.9824 10.4682 10.2871 11.3052 8.59256C12.3518 10.5391 13.3992 12.488 14.4458 14.4361C15.0597 15.5733 16.3819 15.275 16.9494 14.452C17.0938 14.3009 17.2151 14.1142 17.3005 13.8826C18.3209 11.0979 19.3391 8.31469 20.3565 5.52997C20.5819 6.09937 20.8087 6.67028 21.0348 7.23968C21.3387 8.00646 22.02 8.53866 22.8742 8.29951C23.5967 8.09832 24.2256 7.20172 23.9216 6.43189Z" fill="#BDBDBD"/>
</svg>
