<svg width="11" height="13" viewBox="0 0 11 13" fill="none" xmlns="http://www.w3.org/2000/svg">
<path d="M10.3752 2.97917H8.2085V2.4375C8.2085 1.53969 7.48131 0.8125 6.5835 0.8125H4.41683C3.51902 0.8125 2.79183 1.53969 2.79183 2.4375V2.97917H0.625163C0.326027 2.97917 0.0834961 3.2217 0.0834961 3.52083C0.0834961 3.81997 0.326027 4.0625 0.625163 4.0625H1.16683V10.5625C1.16683 11.4603 1.89402 12.1875 2.79183 12.1875H8.2085C9.10631 12.1875 9.8335 11.4603 9.8335 10.5625V4.0625H10.3752C10.6743 4.0625 10.9168 3.81997 10.9168 3.52083C10.9168 3.2217 10.6743 2.97917 10.3752 2.97917ZM3.87516 2.4375C3.87516 2.13823 4.11756 1.89583 4.41683 1.89583H6.5835C6.88277 1.89583 7.12516 2.13823 7.12516 2.4375V2.97917H3.87516V2.4375ZM8.75016 10.5625C8.75016 10.8618 8.50777 11.1042 8.2085 11.1042H2.79183C2.49256 11.1042 2.25016 10.8618 2.25016 10.5625V4.0625H8.75016V10.5625Z" fill="#F82E2E"/>
</svg>
