<svg width="20" height="23" viewBox="0 0 20 23" fill="none" xmlns="http://www.w3.org/2000/svg">
<mask id="mask0" mask-type="alpha" maskUnits="userSpaceOnUse" x="0" y="0" width="20" height="23">
<path d="M20 0H0V23H20V0Z" fill="white"/>
<path d="M2.56582 20.916V2.9399C2.56582 2.88602 2.56788 2.83111 2.57409 2.7762C2.56375 2.84665 2.55547 2.91296 2.54513 2.98341C2.56064 2.87981 2.5865 2.78138 2.62579 2.68295C2.59994 2.74512 2.57409 2.80728 2.54824 2.86945C2.57719 2.80728 2.60718 2.74719 2.64337 2.69124C2.68991 2.61871 2.74161 2.61353 2.60201 2.74097C2.62476 2.71818 2.64544 2.68917 2.66923 2.66638C2.67957 2.65601 2.73955 2.59385 2.74368 2.59903C2.74368 2.59903 2.55548 2.73061 2.69405 2.64047C2.75092 2.60421 2.80987 2.57313 2.87191 2.54515C2.80987 2.57105 2.74782 2.59695 2.68578 2.62286C2.78401 2.58349 2.88226 2.55551 2.98566 2.54204C2.91535 2.5524 2.84916 2.56069 2.77884 2.57105C2.94223 2.5524 3.10769 2.56277 3.27005 2.56277H15.3547C15.9183 2.56277 16.4819 2.56069 17.0454 2.56277C17.0972 2.56277 17.1509 2.56484 17.2026 2.57105C17.1323 2.56069 17.0661 2.5524 16.9958 2.54204C17.0992 2.55758 17.1975 2.58349 17.2957 2.62286C17.2337 2.59696 17.1716 2.57105 17.1096 2.54515C17.1716 2.57416 17.2316 2.60421 17.2874 2.64047C17.3598 2.6871 17.365 2.7389 17.2378 2.59903C17.2605 2.62182 17.2895 2.64254 17.3122 2.66638C17.3226 2.67674 17.3846 2.73683 17.3795 2.74097C17.3795 2.74097 17.2481 2.5524 17.3381 2.69124C17.3743 2.74822 17.4053 2.80728 17.4332 2.86945C17.4074 2.80728 17.3815 2.74512 17.3557 2.68295C17.395 2.78138 17.4229 2.87981 17.4363 2.98341C17.426 2.91296 17.4177 2.84665 17.4074 2.7762C17.4281 2.97098 17.4157 3.16992 17.4157 3.36678V20.1835C17.4157 20.4197 17.4105 20.6549 17.4157 20.888V20.9191C17.8583 20.7346 18.2967 20.5544 18.7393 20.3699C17.941 19.6882 17.1416 19.0075 16.3423 18.3289C16.2285 18.2335 16.1178 18.1372 16.0031 18.0387C15.85 17.9092 15.6639 17.8025 15.455 17.8108C15.2565 17.8191 15.0465 17.8854 14.9069 18.0387C14.1086 18.9173 13.3092 19.7918 12.5099 20.6704C12.3961 20.7947 12.2824 20.9191 12.1707 21.0434H13.2668C12.4685 20.1648 11.6691 19.2903 10.8698 18.4117C10.756 18.2874 10.6423 18.1631 10.5306 18.0387C10.2566 17.7383 9.70539 17.7383 9.43446 18.0387C8.63614 18.9173 7.83676 19.7918 7.0374 20.6704C6.92365 20.7947 6.80989 20.9191 6.69823 21.0434H7.79437C6.99605 20.1648 6.19667 19.2903 5.39731 18.4117C5.28356 18.2874 5.16981 18.1631 5.05814 18.0387C4.93404 17.902 4.69413 17.8025 4.51006 17.8108C4.29497 17.8212 4.12538 17.8989 3.96199 18.0387C3.16367 18.7205 2.36428 19.4012 1.56493 20.0798C1.45118 20.1751 1.34053 20.2715 1.22575 20.3699C0.915516 20.6341 0.934127 21.2009 1.22575 21.4682C1.55667 21.7707 1.99099 21.75 2.3219 21.4682C3.12022 20.7864 3.91961 20.1057 4.71896 19.4271C4.83271 19.3318 4.94336 19.2354 5.05814 19.137H3.96199C4.76031 20.0156 5.5597 20.8901 6.35905 21.7687C6.4728 21.893 6.58656 22.0173 6.69823 22.1416C6.97227 22.4421 7.52345 22.4421 7.79437 22.1416C8.59269 21.263 9.39208 20.3886 10.1914 19.51C10.3052 19.3856 10.4189 19.2613 10.5306 19.137H9.43446C10.2328 20.0156 11.0322 20.8901 11.8315 21.7687C11.9453 21.893 12.059 22.0173 12.1707 22.1416C12.4447 22.4421 12.9959 22.4421 13.2668 22.1416C14.0652 21.263 14.8645 20.3886 15.6639 19.51C15.7777 19.3856 15.8914 19.2613 16.0031 19.137H14.9069C15.7053 19.8187 16.5046 20.4994 17.304 21.1781C17.4177 21.2734 17.5284 21.3697 17.6432 21.4682C17.8862 21.6754 18.183 21.7583 18.4911 21.6288C18.7724 21.5096 18.9668 21.2299 18.9668 20.9191V4.02042C18.9668 3.65571 18.972 3.28998 18.9668 2.92424C18.9544 1.8695 18.1033 1.01578 17.0517 1.0023C16.9276 1.00023 16.8014 1.0023 16.6773 1.0023H4.1729C3.7541 1.0023 3.3332 0.997123 2.91336 1.0023C1.86063 1.01784 1.01061 1.8726 1.00026 2.92734V20.9198C1.00026 21.326 1.35703 21.7156 1.77584 21.6969C2.21222 21.6751 2.56582 21.3512 2.56582 20.916Z" fill="black"/>
<path d="M6.10889 8.22684C6.10889 7.70623 6.53776 7.28418 7.0668 7.28418H10.2598C10.7889 7.28418 11.2177 7.70623 11.2177 8.22684C11.2177 8.74746 10.7889 9.16951 10.2598 9.16951H7.0668C6.53776 9.16951 6.10889 8.74746 6.10889 8.22684Z" fill="black"/>
<path d="M6.10889 13.2547C6.10889 12.7341 6.53776 12.312 7.0668 12.312H12.8143C13.3433 12.312 13.7722 12.7341 13.7722 13.2547C13.7722 13.7753 13.3433 14.1973 12.8143 14.1973H7.0668C6.53776 14.1973 6.10889 13.7753 6.10889 13.2547Z" fill="black"/>
</mask>
<g mask="url(#mask0)">
<path d="M2.56582 20.916V2.9399C2.56582 2.88602 2.56788 2.83111 2.57409 2.7762C2.56375 2.84665 2.55547 2.91296 2.54513 2.98341C2.56064 2.87981 2.5865 2.78138 2.62579 2.68295C2.59994 2.74512 2.57409 2.80728 2.54824 2.86945C2.57719 2.80728 2.60718 2.74719 2.64337 2.69124C2.68991 2.61871 2.74161 2.61353 2.60201 2.74097C2.62476 2.71818 2.64544 2.68917 2.66923 2.66638C2.67957 2.65601 2.73955 2.59385 2.74368 2.59903C2.74368 2.59903 2.55548 2.73061 2.69405 2.64047C2.75092 2.60421 2.80987 2.57313 2.87191 2.54515C2.80987 2.57105 2.74782 2.59695 2.68578 2.62286C2.78401 2.58349 2.88226 2.55551 2.98566 2.54204C2.91535 2.5524 2.84916 2.56069 2.77884 2.57105C2.94223 2.5524 3.10769 2.56277 3.27005 2.56277H15.3547C15.9183 2.56277 16.4819 2.56069 17.0454 2.56277C17.0972 2.56277 17.1509 2.56484 17.2026 2.57105C17.1323 2.56069 17.0661 2.5524 16.9958 2.54204C17.0992 2.55758 17.1975 2.58349 17.2957 2.62286C17.2337 2.59696 17.1716 2.57105 17.1096 2.54515C17.1716 2.57416 17.2316 2.60421 17.2874 2.64047C17.3598 2.6871 17.365 2.7389 17.2378 2.59903C17.2605 2.62182 17.2895 2.64254 17.3122 2.66638C17.3226 2.67674 17.3846 2.73683 17.3795 2.74097C17.3795 2.74097 17.2481 2.5524 17.3381 2.69124C17.3743 2.74822 17.4053 2.80728 17.4332 2.86945C17.4074 2.80728 17.3815 2.74512 17.3557 2.68295C17.395 2.78138 17.4229 2.87981 17.4363 2.98341C17.426 2.91296 17.4177 2.84665 17.4074 2.7762C17.4281 2.97098 17.4157 3.16992 17.4157 3.36678V20.1835C17.4157 20.4197 17.4105 20.6549 17.4157 20.888V20.9191C17.8583 20.7346 18.2967 20.5544 18.7393 20.3699C17.941 19.6882 17.1416 19.0075 16.3423 18.3289C16.2285 18.2335 16.1178 18.1372 16.0031 18.0387C15.85 17.9092 15.6639 17.8025 15.455 17.8108C15.2565 17.8191 15.0465 17.8854 14.9069 18.0387C14.1086 18.9173 13.3092 19.7918 12.5099 20.6704C12.3961 20.7947 12.2824 20.9191 12.1707 21.0434H13.2668C12.4685 20.1648 11.6691 19.2903 10.8698 18.4117C10.756 18.2874 10.6423 18.1631 10.5306 18.0387C10.2566 17.7383 9.70539 17.7383 9.43446 18.0387C8.63614 18.9173 7.83676 19.7918 7.0374 20.6704C6.92365 20.7947 6.80989 20.9191 6.69823 21.0434H7.79437C6.99605 20.1648 6.19667 19.2903 5.39731 18.4117C5.28356 18.2874 5.16981 18.1631 5.05814 18.0387C4.93404 17.902 4.69413 17.8025 4.51006 17.8108C4.29497 17.8212 4.12538 17.8989 3.96199 18.0387C3.16367 18.7205 2.36428 19.4012 1.56493 20.0798C1.45118 20.1751 1.34053 20.2715 1.22575 20.3699C0.915516 20.6341 0.934127 21.2009 1.22575 21.4682C1.55667 21.7707 1.99099 21.75 2.3219 21.4682C3.12022 20.7864 3.91961 20.1057 4.71896 19.4271C4.83271 19.3318 4.94336 19.2354 5.05814 19.137H3.96199C4.76031 20.0156 5.5597 20.8901 6.35905 21.7687C6.4728 21.893 6.58656 22.0173 6.69823 22.1416C6.97227 22.4421 7.52345 22.4421 7.79437 22.1416C8.59269 21.263 9.39208 20.3886 10.1914 19.51C10.3052 19.3856 10.4189 19.2613 10.5306 19.137H9.43446C10.2328 20.0156 11.0322 20.8901 11.8315 21.7687C11.9453 21.893 12.059 22.0173 12.1707 22.1416C12.4447 22.4421 12.9959 22.4421 13.2668 22.1416C14.0652 21.263 14.8645 20.3886 15.6639 19.51C15.7777 19.3856 15.8914 19.2613 16.0031 19.137H14.9069C15.7053 19.8187 16.5046 20.4994 17.304 21.1781C17.4177 21.2734 17.5284 21.3697 17.6432 21.4682C17.8862 21.6754 18.183 21.7583 18.4911 21.6288C18.7724 21.5096 18.9668 21.2299 18.9668 20.9191V4.02042C18.9668 3.65571 18.972 3.28998 18.9668 2.92424C18.9544 1.8695 18.1033 1.01578 17.0517 1.0023C16.9276 1.00023 16.8014 1.0023 16.6773 1.0023H4.1729C3.7541 1.0023 3.3332 0.997123 2.91336 1.0023C1.86063 1.01784 1.01061 1.8726 1.00026 2.92734V20.9198C1.00026 21.326 1.35703 21.7156 1.77584 21.6969C2.21222 21.6751 2.56582 21.3512 2.56582 20.916Z" fill="white"/>
<path d="M6.10889 8.22684C6.10889 7.70623 6.53776 7.28418 7.0668 7.28418H10.2598C10.7889 7.28418 11.2177 7.70623 11.2177 8.22684C11.2177 8.74746 10.7889 9.16951 10.2598 9.16951H7.0668C6.53776 9.16951 6.10889 8.74746 6.10889 8.22684Z" fill="white"/>
<path d="M6.10889 13.2547C6.10889 12.7341 6.53776 12.312 7.0668 12.312H12.8143C13.3433 12.312 13.7722 12.7341 13.7722 13.2547C13.7722 13.7753 13.3433 14.1973 12.8143 14.1973H7.0668C6.53776 14.1973 6.10889 13.7753 6.10889 13.2547Z" fill="white"/>
<path d="M2.57428 2.77639L2.87238 2.81007L2.27746 2.73282L2.57428 2.77639ZM2.54532 2.9836L2.2485 2.94003L2.84202 3.02802L2.54532 2.9836ZM2.62598 2.68314L2.9046 2.79438L2.34898 2.56795L2.62598 2.68314ZM2.54843 2.86964L2.27142 2.75444L2.82037 2.99631L2.54843 2.86964ZM2.64356 2.69143L2.89545 2.85438L2.89606 2.85344L2.64356 2.69143ZM2.6022 2.74116L2.38986 2.52923L2.80446 2.96273L2.6022 2.74116ZM2.66942 2.66657L2.87704 2.88322L2.88175 2.87849L2.66942 2.66657ZM2.74387 2.59922L2.91577 2.84509L3.17786 2.66185L2.97827 2.41198L2.74387 2.59922ZM2.69424 2.64066L2.53294 2.38769L2.53065 2.38918L2.69424 2.64066ZM2.8721 2.54534L2.99541 2.81883L2.75653 2.2685L2.8721 2.54534ZM2.68597 2.62305L2.57039 2.34621L2.79757 2.90152L2.68597 2.62305ZM2.98585 2.54223L3.02958 2.83903L2.94711 2.24474L2.98585 2.54223ZM2.77903 2.57124L2.7353 2.27445L2.81305 2.86931L2.77903 2.57124ZM17.0456 2.56296L17.0445 2.86296H17.0456V2.56296ZM17.2028 2.57124L17.167 2.8691L17.2466 2.27445L17.2028 2.57124ZM16.996 2.54223L17.0397 2.24544L16.9514 2.8389L16.996 2.54223ZM17.2959 2.62305L17.1843 2.90151L17.4115 2.3462L17.2959 2.62305ZM17.1098 2.54534L17.2253 2.2685L16.9827 2.8171L17.1098 2.54534ZM17.2876 2.64066L17.1242 2.89227L17.1252 2.89288L17.2876 2.64066ZM17.238 2.59922L17.4503 2.38729L17.016 2.80106L17.238 2.59922ZM17.3124 2.66657L17.0954 2.87377L17.1001 2.87849L17.3124 2.66657ZM17.3797 2.74116L17.1335 2.91262L17.3169 3.17592L17.5673 2.97527L17.3797 2.74116ZM17.3383 2.69143L17.5915 2.53058L17.5901 2.52829L17.3383 2.69143ZM17.4334 2.86964L17.1598 2.99255L17.7104 2.75444L17.4334 2.86964ZM17.3559 2.68314L17.6329 2.56794L17.0773 2.79438L17.3559 2.68314ZM17.4365 2.9836L17.1397 3.02717L17.734 2.945L17.4365 2.9836ZM17.4076 2.77639L17.7044 2.73281L17.1093 2.80806L17.4076 2.77639ZM17.4159 20.8882H17.7159L17.7158 20.8815L17.4159 20.8882ZM17.4159 20.9193H17.1159V21.3693L17.5312 21.1962L17.4159 20.9193ZM18.7395 20.3701L18.8549 20.6471L19.3058 20.4592L18.9343 20.142L18.7395 20.3701ZM16.3425 18.3291L16.5366 18.1004L16.5351 18.0991L16.3425 18.3291ZM16.0033 18.0389L16.1986 17.8112L16.1971 17.8099L16.0033 18.0389ZM15.4552 17.811L15.4433 17.5112L15.4427 17.5113L15.4552 17.811ZM14.9071 18.0389L14.6853 17.837L14.6851 17.8372L14.9071 18.0389ZM12.5101 20.6706L12.7314 20.8731L12.732 20.8725L12.5101 20.6706ZM12.1709 21.0436L11.9477 20.8431L11.4982 21.3436H12.1709V21.0436ZM13.267 21.0436V21.3436H13.945L13.4891 20.8418L13.267 21.0436ZM10.87 18.4119L11.0919 18.21L11.0913 18.2094L10.87 18.4119ZM10.5308 18.0389L10.754 17.8385L10.7525 17.8368L10.5308 18.0389ZM9.43465 18.0389L9.65669 18.2407L9.65745 18.2398L9.43465 18.0389ZM7.03759 20.6706L7.25893 20.8731L7.25949 20.8725L7.03759 20.6706ZM6.69842 21.0436L6.47523 20.8431L6.02568 21.3436H6.69842V21.0436ZM7.79456 21.0436V21.3436H8.4725L8.01659 20.8418L7.79456 21.0436ZM5.3975 18.4119L5.6194 18.21L5.61884 18.2094L5.3975 18.4119ZM5.05833 18.0389L5.28151 17.8385L5.2805 17.8374L5.05833 18.0389ZM4.51025 17.811L4.49676 17.5113L4.49582 17.5114L4.51025 17.811ZM3.96218 18.0389L4.157 18.2671L4.15727 18.2668L3.96218 18.0389ZM1.56512 20.08L1.75781 20.31L1.75928 20.3087L1.56512 20.08ZM1.22594 20.3701L1.42045 20.5985L1.42126 20.5979L1.22594 20.3701ZM1.22594 21.4684L1.02323 21.6895L1.02352 21.6898L1.22594 21.4684ZM2.32209 21.4684L2.5166 21.6968L2.51691 21.6965L2.32209 21.4684ZM4.71915 19.4273L4.52646 19.1974L4.52499 19.1986L4.71915 19.4273ZM5.05833 19.1372L5.25364 19.3649L5.8689 18.8372H5.05833V19.1372ZM3.96218 19.1372V18.8372H3.28424L3.74015 19.3389L3.96218 19.1372ZM6.35924 21.7689L6.13734 21.9707L6.1379 21.9714L6.35924 21.7689ZM6.69842 22.1418L6.47523 22.3423L6.47676 22.344L6.69842 22.1418ZM7.79456 22.1418L7.57253 21.9401L7.57176 21.9409L7.79456 22.1418ZM10.1916 19.5102L9.97028 19.3077L9.96972 19.3083L10.1916 19.5102ZM10.5308 19.1372L10.754 19.3377L11.2035 18.8372H10.5308V19.1372ZM9.43465 19.1372V18.8372H8.75672L9.21262 19.3389L9.43465 19.1372ZM11.8317 21.7689L11.6098 21.9707L11.6104 21.9714L11.8317 21.7689ZM12.1709 22.1418L11.9477 22.3423L11.9492 22.344L12.1709 22.1418ZM13.267 22.1418L13.045 21.9401L13.0442 21.9409L13.267 22.1418ZM15.6641 19.5102L15.4428 19.3077L15.4422 19.3083L15.6641 19.5102ZM16.0033 19.1372L16.2265 19.3377L16.676 18.8372H16.0033V19.1372ZM14.9071 19.1372V18.8372H14.0939L14.7123 19.3653L14.9071 19.1372ZM17.3042 21.1783L17.11 21.407L17.1115 21.4082L17.3042 21.1783ZM17.6434 21.4684L17.4481 21.6961L17.4487 21.6967L17.6434 21.4684ZM18.4913 21.629L18.6076 21.9055L18.6083 21.9052L18.4913 21.629ZM18.967 2.92443L18.667 2.92796L18.6671 2.92867L18.967 2.92443ZM17.0519 1.00249L17.0468 1.30245L17.048 1.30247L17.0519 1.00249ZM2.91355 1.00249L2.90985 0.702515L2.90912 0.702526L2.91355 1.00249ZM1.00045 2.92753L0.70045 2.92459V2.92753H1.00045ZM1.77603 21.6971L1.78937 21.9968L1.79097 21.9967L1.77603 21.6971ZM2.86601 2.94009C2.86601 2.89358 2.86781 2.85051 2.87238 2.81007L2.27618 2.7427C2.26834 2.81209 2.26601 2.87885 2.26601 2.94009H2.86601ZM2.27746 2.73282C2.27202 2.76984 2.26716 2.80557 2.26254 2.83953C2.25786 2.87395 2.25341 2.90661 2.2485 2.94003L2.84214 3.02717C2.84758 2.99015 2.85244 2.95442 2.85706 2.92045C2.86174 2.88604 2.86619 2.85338 2.8711 2.81995L2.27746 2.73282ZM2.84202 3.02802C2.8543 2.94598 2.87437 2.87009 2.9046 2.79438L2.34737 2.5719C2.299 2.69305 2.26737 2.81402 2.24863 2.93918L2.84202 3.02802ZM2.34898 2.56795C2.32313 2.63012 2.29728 2.69228 2.27142 2.75444L2.82543 2.98484C2.85128 2.92267 2.87713 2.8605 2.90298 2.79834L2.34898 2.56795ZM2.82037 2.99631C2.8477 2.93764 2.87073 2.89259 2.89545 2.85438L2.39168 2.52848C2.34401 2.60217 2.30706 2.67731 2.27648 2.74297L2.82037 2.99631ZM2.89606 2.85344C2.89592 2.85365 2.89264 2.85908 2.88229 2.86884C2.87971 2.87128 2.86311 2.88722 2.83501 2.90305C2.82734 2.90738 2.7818 2.93394 2.71572 2.93937C2.67923 2.94237 2.60953 2.94106 2.53721 2.89743C2.45657 2.84879 2.41543 2.77368 2.40045 2.70914C2.37773 2.61125 2.41263 2.53523 2.41454 2.53057C2.42338 2.50905 2.43265 2.49417 2.43614 2.48871C2.44396 2.47649 2.4493 2.47074 2.4469 2.47352C2.44341 2.47757 2.42984 2.4923 2.39994 2.5196L2.80446 2.96273C2.84436 2.9263 2.87668 2.8939 2.9013 2.86534C2.91296 2.85181 2.92792 2.8334 2.94167 2.81189C2.94813 2.80178 2.95945 2.78311 2.96952 2.7586C2.97266 2.75096 3.00796 2.67276 2.98492 2.57348C2.96977 2.50824 2.92829 2.43264 2.84714 2.38368C2.77431 2.33974 2.70392 2.33832 2.6666 2.34138C2.59883 2.34695 2.55098 2.3744 2.54046 2.38033C2.50666 2.39938 2.48223 2.42139 2.47044 2.43252C2.44167 2.45967 2.41447 2.49295 2.39107 2.52943L2.89606 2.85344ZM2.81453 2.95309C2.83639 2.93119 2.85599 2.9076 2.86418 2.89794C2.87598 2.88404 2.87779 2.88239 2.87699 2.88316L2.46185 2.44997C2.43726 2.47353 2.41683 2.49779 2.40666 2.50978C2.40028 2.5173 2.39687 2.52134 2.39343 2.52527C2.3903 2.52883 2.38937 2.52973 2.38986 2.52923L2.81453 2.95309ZM2.88175 2.87849C2.89178 2.86845 2.90296 2.85675 2.91711 2.84311C2.92443 2.83606 2.92589 2.83501 2.92306 2.83734C2.92191 2.8383 2.91922 2.84049 2.91533 2.84338C2.912 2.84586 2.90426 2.85149 2.89339 2.85796C2.88688 2.86184 2.85862 2.87882 2.81769 2.88942C2.79689 2.89481 2.75418 2.90361 2.70042 2.89584C2.63972 2.88707 2.56535 2.8564 2.50947 2.78645L2.97827 2.41198C2.85872 2.26231 2.68939 2.30286 2.66725 2.30859C2.62498 2.31954 2.595 2.33733 2.58643 2.34243C2.56386 2.35587 2.54671 2.36999 2.54083 2.37485C2.52527 2.38771 2.51032 2.40188 2.50083 2.41102C2.49004 2.42141 2.47962 2.43183 2.47178 2.43974C2.46778 2.44377 2.46424 2.44736 2.46155 2.4501C2.46015 2.45152 2.45912 2.45257 2.45824 2.45347C2.45729 2.45443 2.45701 2.45471 2.45708 2.45464L2.88175 2.87849ZM2.74387 2.59922C2.57198 2.35335 2.57197 2.35335 2.57197 2.35335C2.57197 2.35336 2.57196 2.35336 2.57196 2.35336C2.57195 2.35337 2.57194 2.35338 2.57192 2.35339C2.57189 2.35341 2.57185 2.35344 2.57179 2.35348C2.57169 2.35355 2.57154 2.35366 2.57135 2.35379C2.57096 2.35406 2.57041 2.35445 2.5697 2.35495C2.56828 2.35594 2.56624 2.35736 2.56372 2.35914C2.55867 2.36268 2.55163 2.36763 2.54362 2.37329C2.52792 2.38437 2.50728 2.39901 2.49061 2.41114C2.4828 2.41682 2.47326 2.42384 2.46507 2.43019C2.46257 2.43214 2.45304 2.4395 2.44288 2.44871C2.43987 2.45143 2.43463 2.45628 2.42848 2.46261C2.4245 2.46671 2.41006 2.48159 2.39526 2.50337C2.38846 2.51337 2.37225 2.53821 2.35993 2.57369C2.35027 2.6015 2.32185 2.69558 2.37281 2.80188C2.43157 2.92442 2.54272 2.95975 2.59504 2.9683C2.64485 2.97643 2.68427 2.96976 2.69797 2.96723C2.72944 2.96143 2.75278 2.9517 2.75791 2.94959C2.76705 2.94584 2.77422 2.94238 2.77811 2.94045C2.78606 2.9365 2.79247 2.93291 2.79568 2.93108C2.80269 2.92709 2.80945 2.92297 2.8146 2.91977C2.82556 2.91298 2.83997 2.90375 2.85782 2.89214L2.53065 2.38918C2.51386 2.40011 2.50384 2.40648 2.49857 2.40975C2.49561 2.41158 2.4963 2.4111 2.49904 2.40954C2.50012 2.40893 2.50484 2.40624 2.51153 2.40292C2.51478 2.40131 2.52142 2.39808 2.53014 2.39451C2.53484 2.39258 2.55786 2.38296 2.58909 2.37719C2.60268 2.37469 2.64201 2.36802 2.69175 2.37614C2.744 2.38468 2.85511 2.41999 2.91385 2.54248C2.96479 2.64874 2.93637 2.74276 2.92674 2.7705C2.91444 2.8059 2.89828 2.83066 2.89156 2.84055C2.8769 2.86213 2.86268 2.87674 2.85901 2.88051C2.85318 2.88652 2.84834 2.89098 2.84582 2.89327C2.84069 2.89792 2.83674 2.90114 2.83567 2.90201C2.83412 2.90328 2.83313 2.90404 2.83302 2.90413C2.83281 2.90429 2.8336 2.90368 2.83577 2.90206C2.8378 2.90056 2.8404 2.89865 2.84357 2.89634C2.85663 2.88684 2.87438 2.87423 2.88964 2.86345C2.89711 2.85818 2.90369 2.85356 2.9084 2.85025C2.91075 2.84861 2.91262 2.84729 2.91389 2.8464C2.91453 2.84596 2.91501 2.84562 2.91533 2.8454C2.91549 2.84528 2.91561 2.8452 2.91568 2.84515C2.91572 2.84512 2.91574 2.84511 2.91576 2.8451C2.91576 2.84509 2.91577 2.84509 2.91577 2.84509C2.91577 2.84509 2.91577 2.84509 2.74387 2.59922ZM2.85552 2.89362C2.89852 2.8662 2.94449 2.84178 2.99541 2.81883L2.7488 2.27185C2.67562 2.30485 2.6037 2.3426 2.53295 2.3877L2.85552 2.89362ZM2.75653 2.2685C2.69449 2.2944 2.63244 2.3203 2.57039 2.34621L2.80154 2.89989C2.86358 2.87399 2.92563 2.84809 2.98768 2.82219L2.75653 2.2685ZM2.79757 2.90152C2.87687 2.86973 2.95053 2.84937 3.0246 2.83972L2.94711 2.24474C2.81436 2.26203 2.69154 2.29762 2.57436 2.34458L2.79757 2.90152ZM2.94212 2.24544C2.90877 2.25035 2.87618 2.25481 2.84183 2.2595C2.80793 2.26413 2.77227 2.269 2.7353 2.27445L2.82277 2.86804C2.85612 2.86312 2.88871 2.85867 2.92306 2.85398C2.95696 2.84934 2.99262 2.84447 3.02958 2.83903L2.94212 2.24544ZM2.81305 2.86931C2.95387 2.85324 3.08257 2.86296 3.27024 2.86296V2.26296C3.1332 2.26296 2.93097 2.25195 2.74501 2.27318L2.81305 2.86931ZM15.3549 2.86296C15.92 2.86296 16.4816 2.86088 17.0445 2.86295L17.0468 2.26296C16.4825 2.26088 15.9169 2.26296 15.3549 2.26296V2.86296ZM17.0456 2.86296C17.0901 2.86296 17.1311 2.86478 17.167 2.8691L17.2386 2.27339C17.1712 2.26528 17.1046 2.26296 17.0456 2.26296V2.86296ZM17.2466 2.27445C17.2096 2.269 17.1739 2.26413 17.14 2.2595C17.1057 2.25481 17.0731 2.25035 17.0397 2.24544L16.9523 2.83903C16.9892 2.84447 17.0249 2.84934 17.0588 2.85398C17.0932 2.85867 17.1257 2.86313 17.1591 2.86804L17.2466 2.27445ZM16.9514 2.8389C17.0332 2.85119 17.1088 2.87127 17.1843 2.90151L17.4075 2.34458C17.2865 2.29608 17.1656 2.26436 17.0406 2.24556L16.9514 2.8389ZM17.4115 2.3462C17.3494 2.3203 17.2874 2.2944 17.2253 2.2685L16.9942 2.82218C17.0562 2.84809 17.1183 2.87399 17.1803 2.89989L17.4115 2.3462ZM16.9827 2.8171C17.0412 2.84447 17.0861 2.86753 17.1242 2.89227L17.451 2.38906C17.3774 2.34127 17.3024 2.30423 17.2368 2.27358L16.9827 2.8171ZM17.1252 2.89288C17.1249 2.89271 17.1195 2.8894 17.1097 2.87903C17.1073 2.87644 17.0914 2.85984 17.0757 2.83176C17.0713 2.82407 17.045 2.77866 17.0396 2.7128C17.0366 2.6765 17.0379 2.60701 17.0813 2.53482C17.1297 2.4542 17.2047 2.41281 17.2696 2.3977C17.3678 2.37481 17.4441 2.40998 17.4488 2.41188C17.4703 2.42078 17.4852 2.4301 17.4907 2.43361C17.5029 2.44146 17.5087 2.44683 17.5059 2.44443C17.5019 2.44094 17.4872 2.42734 17.4599 2.39738L17.016 2.80106C17.0524 2.84103 17.0847 2.87341 17.1132 2.89809C17.1267 2.90977 17.1451 2.92477 17.1667 2.93857C17.1768 2.94506 17.1954 2.95643 17.22 2.96656C17.2276 2.96969 17.3061 3.00526 17.4057 2.98205C17.4713 2.96678 17.5468 2.92504 17.5955 2.84391C17.6392 2.7712 17.6406 2.70103 17.6376 2.66389C17.6321 2.59635 17.6048 2.54862 17.5989 2.53807C17.5799 2.50429 17.558 2.47984 17.5468 2.46802C17.5198 2.4392 17.4865 2.41193 17.4501 2.38845L17.1252 2.89288ZM17.0257 2.81115C17.0475 2.83305 17.0711 2.85269 17.0807 2.8609C17.0946 2.87272 17.0962 2.87453 17.0954 2.87372L17.5294 2.45941C17.5059 2.43477 17.4817 2.4143 17.4697 2.40411C17.4622 2.39771 17.4582 2.3943 17.4543 2.39085C17.4507 2.38772 17.4498 2.38679 17.4503 2.38729L17.0257 2.81115ZM17.1001 2.87849C17.1101 2.88854 17.1218 2.89974 17.1354 2.91392C17.1425 2.92125 17.1435 2.92273 17.1412 2.9199C17.1402 2.91875 17.1381 2.91606 17.1352 2.91218C17.1327 2.90885 17.1271 2.90111 17.1207 2.89026C17.1168 2.88374 17.0999 2.85554 17.0894 2.81472C17.084 2.79399 17.0753 2.75143 17.083 2.69786C17.0917 2.63743 17.1222 2.56306 17.1921 2.50705L17.5673 2.97527C17.7165 2.85567 17.676 2.68662 17.6704 2.66479C17.6595 2.62263 17.6418 2.59271 17.6367 2.58413C17.6233 2.56157 17.6093 2.54442 17.6044 2.53853C17.5916 2.52295 17.5774 2.50797 17.5683 2.49847C17.5579 2.48766 17.5475 2.47722 17.5397 2.46936C17.5356 2.46536 17.532 2.46181 17.5293 2.45912C17.5279 2.45771 17.5268 2.45668 17.5259 2.45579C17.525 2.45484 17.5247 2.45457 17.5248 2.45464L17.1001 2.87849ZM17.3797 2.74116C17.6258 2.56971 17.6258 2.56971 17.6258 2.5697V2.56969C17.6258 2.56968 17.6258 2.56967 17.6258 2.56965C17.6258 2.56962 17.6258 2.56958 17.6257 2.56953C17.6256 2.56942 17.6255 2.56927 17.6254 2.56908C17.6251 2.56869 17.6247 2.56813 17.6242 2.56742C17.6233 2.566 17.6218 2.56396 17.6201 2.56143C17.6165 2.55638 17.6116 2.54932 17.6059 2.5413C17.5949 2.52557 17.5803 2.5049 17.5682 2.48819C17.5625 2.48037 17.5555 2.47082 17.5492 2.46262C17.5472 2.46011 17.5399 2.45058 17.5307 2.4404C17.528 2.43739 17.5231 2.43214 17.5168 2.42599C17.5127 2.422 17.4979 2.40751 17.4761 2.39266C17.4661 2.38585 17.4412 2.36954 17.4057 2.35715C17.3778 2.34743 17.2833 2.31879 17.1767 2.37011C17.0542 2.42911 17.0191 2.54045 17.0107 2.59234C17.0026 2.64196 17.0092 2.68122 17.0118 2.69488C17.0175 2.72624 17.0272 2.74951 17.0293 2.75464C17.033 2.76377 17.0365 2.77092 17.0384 2.7748C17.0423 2.78274 17.0459 2.78915 17.0477 2.79236C17.0517 2.79937 17.0558 2.80613 17.059 2.81129C17.0657 2.82226 17.0749 2.83669 17.0865 2.85457L17.5901 2.52829C17.5792 2.51146 17.5728 2.50142 17.5695 2.49613C17.5677 2.49316 17.5682 2.49384 17.5697 2.49658C17.5703 2.49765 17.573 2.50236 17.5763 2.50904C17.5779 2.51228 17.5811 2.51891 17.5847 2.5276C17.5866 2.53231 17.5961 2.55525 17.6019 2.58638C17.6044 2.59992 17.611 2.6391 17.6029 2.68865C17.5945 2.74047 17.5595 2.85176 17.437 2.91075C17.3304 2.96204 17.236 2.93341 17.2082 2.92371C17.1727 2.91135 17.1479 2.89509 17.138 2.88835C17.1165 2.87364 17.1019 2.85938 17.0981 2.85571C17.0921 2.84987 17.0876 2.84502 17.0854 2.84249C17.0807 2.83736 17.0775 2.83341 17.0766 2.83233C17.0754 2.83079 17.0746 2.8298 17.0745 2.82969C17.0744 2.82948 17.075 2.83027 17.0766 2.83246C17.0781 2.83448 17.08 2.83709 17.0823 2.84027C17.0918 2.85336 17.1044 2.87115 17.1152 2.88644C17.1204 2.89392 17.125 2.90052 17.1283 2.90523C17.13 2.90758 17.1313 2.90946 17.1322 2.91073C17.1326 2.91137 17.133 2.91186 17.1332 2.91218C17.1333 2.91234 17.1334 2.91245 17.1334 2.91253C17.1334 2.91256 17.1335 2.91259 17.1335 2.91261V2.91262C17.1335 2.91262 17.1335 2.91262 17.3797 2.74116ZM17.0851 2.85228C17.1125 2.8954 17.1368 2.9415 17.1598 2.99255L17.7071 2.74673C17.6742 2.67345 17.6365 2.60143 17.5915 2.53058L17.0851 2.85228ZM17.7104 2.75444C17.6846 2.69228 17.6587 2.6301 17.6329 2.56794L17.0789 2.79834C17.1047 2.86052 17.1306 2.92267 17.1564 2.98483L17.7104 2.75444ZM17.0773 2.79438C17.109 2.87392 17.1294 2.94784 17.139 3.02221L17.734 2.945C17.7168 2.81216 17.6813 2.68922 17.6345 2.57191L17.0773 2.79438ZM17.7334 2.94004C17.7285 2.90661 17.724 2.87395 17.7193 2.83954C17.7147 2.80557 17.7098 2.76984 17.7044 2.73281L17.1108 2.81996C17.1157 2.85338 17.1201 2.88604 17.1248 2.92046C17.1294 2.95442 17.1343 2.99015 17.1397 3.02717L17.7334 2.94004ZM17.1093 2.80806C17.1277 2.98189 17.1159 3.14463 17.1159 3.36697H17.7159C17.7159 3.19558 17.7288 2.96045 17.7059 2.74471L17.1093 2.80806ZM17.1159 20.1837C17.1159 20.4105 17.1107 20.6578 17.1159 20.8948L17.7158 20.8815C17.7107 20.6523 17.7159 20.4293 17.7159 20.1837H17.1159ZM17.1159 20.8882V20.9193H17.7159V20.8882H17.1159ZM17.5312 21.1962C17.7522 21.1041 17.9721 21.0131 18.1924 20.9219C18.4126 20.8307 18.6332 20.7394 18.8549 20.6471L18.6241 20.0932C18.4032 20.1853 18.1833 20.2763 17.9629 20.3675C17.7427 20.4587 17.5221 20.55 17.3005 20.6423L17.5312 21.1962ZM18.9343 20.142C18.1358 19.4601 17.3362 18.7792 16.5366 18.1004L16.1483 18.5578C16.9474 19.2362 17.7466 19.9167 18.5447 20.5983L18.9343 20.142ZM16.5351 18.0991C16.4231 18.0053 16.3156 17.9116 16.1986 17.8112L15.808 18.2667C15.9205 18.3632 16.0343 18.4622 16.1498 18.559L16.5351 18.0991ZM16.1971 17.8099C16.0222 17.6619 15.7634 17.4985 15.4433 17.5112L15.4671 18.1108C15.5649 18.1069 15.6783 18.1569 15.8095 18.268L16.1971 17.8099ZM15.4427 17.5113C15.1953 17.5216 14.8967 17.6048 14.6853 17.837L15.129 18.2409C15.1967 18.1665 15.318 18.117 15.4677 18.1107L15.4427 17.5113ZM14.6851 17.8372C13.8864 18.7162 13.0886 19.5889 12.2882 20.4687L12.732 20.8725C13.5303 19.9951 14.3312 19.1189 15.1292 18.2407L14.6851 17.8372ZM12.2887 20.4681C12.1751 20.5923 12.0605 20.7176 11.9477 20.8431L12.3941 21.2441C12.5047 21.1209 12.6175 20.9976 12.7314 20.8731L12.2887 20.4681ZM12.1709 21.3436H13.267V20.7436H12.1709V21.3436ZM13.4891 20.8418C12.6911 19.9636 11.8902 19.0875 11.0919 18.21L10.6481 18.6138C11.4485 19.4936 12.2463 20.3663 13.045 21.2453L13.4891 20.8418ZM11.0913 18.2094C10.9774 18.0849 10.8646 17.9616 10.754 17.8385L10.3076 18.2394C10.4204 18.3649 10.535 18.4903 10.6486 18.6144L11.0913 18.2094ZM10.7525 17.8368C10.5481 17.6127 10.2549 17.5136 9.98155 17.5136C9.70832 17.5136 9.41502 17.6127 9.21185 17.838L9.65745 18.2398C9.7252 18.1647 9.84296 18.1136 9.98155 18.1136C10.1201 18.1136 10.2395 18.1647 10.3092 18.2411L10.7525 17.8368ZM9.21262 17.8372C8.41394 18.7162 7.61611 19.5889 6.81569 20.4687L7.25949 20.8725C8.05778 19.9951 8.85871 19.1189 9.65668 18.2407L9.21262 17.8372ZM6.81625 20.4681C6.70266 20.5923 6.58797 20.7176 6.47523 20.8431L6.9216 21.2441C7.03219 21.1209 7.14501 20.9976 7.25893 20.8731L6.81625 20.4681ZM6.69842 21.3436H7.79456V20.7436H6.69842V21.3436ZM8.01659 20.8418C7.21862 19.9636 6.41769 19.0875 5.6194 18.21L5.1756 18.6138C5.97603 19.4936 6.77385 20.3663 7.57253 21.2453L8.01659 20.8418ZM5.61884 18.2094C5.50493 18.0849 5.3921 17.9616 5.28151 17.8385L4.83514 18.2394C4.94789 18.3649 5.06257 18.4903 5.17616 18.6144L5.61884 18.2094ZM5.2805 17.8374C5.18158 17.7283 5.05003 17.6468 4.92189 17.5935C4.79373 17.5403 4.64335 17.5047 4.49676 17.5113L4.52374 18.1107C4.56122 18.109 4.62283 18.119 4.69167 18.1476C4.76052 18.1762 4.81098 18.2128 4.83615 18.2405L5.2805 17.8374ZM4.49582 17.5114C4.20421 17.5254 3.97289 17.6349 3.76708 17.811L4.15727 18.2668C4.27825 18.1633 4.38611 18.1173 4.52469 18.1107L4.49582 17.5114ZM3.76736 17.8108C2.96925 18.4924 2.17009 19.1729 1.37096 19.8513L1.75928 20.3087C2.55886 19.6299 3.35846 18.949 4.157 18.2671L3.76736 17.8108ZM1.37243 19.8501C1.25694 19.9469 1.14314 20.0459 1.03063 20.1424L1.42126 20.5979C1.5383 20.4975 1.64579 20.4038 1.7578 20.31L1.37243 19.8501ZM1.03144 20.1417C0.79235 20.3454 0.697209 20.6479 0.700267 20.9215C0.703317 21.1944 0.804086 21.4887 1.02323 21.6895L1.42865 21.2472C1.35618 21.1808 1.30183 21.0581 1.30023 20.9147C1.29863 20.7721 1.3493 20.6591 1.42045 20.5985L1.03144 20.1417ZM1.02352 21.6898C1.4781 22.1054 2.0834 22.0657 2.5166 21.6968L2.12758 21.24C1.89896 21.4347 1.63561 21.4364 1.42837 21.247L1.02352 21.6898ZM2.51691 21.6965C3.31502 21.015 4.11418 20.3344 4.91331 19.656L4.52499 19.1986C3.72541 19.8774 2.92581 20.5583 2.12727 21.2403L2.51691 21.6965ZM4.91184 19.6572C5.02733 19.5605 5.14114 19.4614 5.25364 19.3649L4.86301 18.9095C4.74597 19.0099 4.63848 19.1035 4.52647 19.1974L4.91184 19.6572ZM5.05833 18.8372H3.96218V19.4372H5.05833V18.8372ZM3.74015 19.3389C4.53812 20.2171 5.33905 21.0933 6.13734 21.9707L6.58114 21.567C5.78072 20.6872 4.98288 19.8144 4.18421 18.9354L3.74015 19.3389ZM6.1379 21.9714C6.25182 22.0959 6.36464 22.2192 6.47523 22.3423L6.9216 21.9414C6.80886 21.8158 6.69417 21.6905 6.58058 21.5663L6.1379 21.9714ZM6.47676 22.344C6.68112 22.568 6.97433 22.6672 7.24766 22.6672C7.5209 22.6672 7.81419 22.568 8.01736 22.3427L7.57176 21.9409C7.50401 22.0161 7.38625 22.0672 7.24766 22.0672C7.10916 22.0672 6.98976 22.0161 6.92007 21.9397L6.47676 22.344ZM8.01659 22.3436C8.81527 21.4646 9.6131 20.5918 10.4135 19.7121L9.96972 19.3083C9.17144 20.1857 8.3705 21.0619 7.57253 21.9401L8.01659 22.3436ZM10.413 19.7127C10.5266 19.5885 10.6412 19.4632 10.754 19.3377L10.3076 18.9367C10.197 19.0598 10.0842 19.1832 9.97028 19.3077L10.413 19.7127ZM10.5308 18.8372H9.43465V19.4372H10.5308V18.8372ZM9.21262 19.3389C10.0106 20.2171 10.8115 21.0933 11.6098 21.9707L12.0536 21.567C11.2532 20.6872 10.4554 19.8144 9.65668 18.9354L9.21262 19.3389ZM11.6104 21.9714C11.7243 22.0959 11.8371 22.2192 11.9477 22.3423L12.3941 21.9414C12.2813 21.8158 12.1667 21.6905 12.0531 21.5663L11.6104 21.9714ZM11.9492 22.344C12.1536 22.568 12.4468 22.6672 12.7201 22.6672C12.9934 22.6672 13.2867 22.568 13.4898 22.3427L13.0442 21.9409C12.9765 22.0161 12.8587 22.0672 12.7201 22.0672C12.5816 22.0672 12.4622 22.0161 12.3925 21.9397L11.9492 22.344ZM13.4891 22.3436C14.2877 21.4646 15.0856 20.5918 15.886 19.7121L15.4422 19.3083C14.6439 20.1857 13.843 21.0619 13.045 21.9401L13.4891 22.3436ZM15.8854 19.7127C15.999 19.5885 16.1137 19.4632 16.2265 19.3377L15.7801 18.9367C15.6695 19.0598 15.5567 19.1832 15.4428 19.3077L15.8854 19.7127ZM16.0033 18.8372H14.9071V19.4372H16.0033V18.8372ZM14.7123 19.3653C15.5108 20.0472 16.3105 20.7281 17.11 21.407L17.4984 20.9496C16.6992 20.2711 15.9001 19.5906 15.102 18.9091L14.7123 19.3653ZM17.1115 21.4082C17.2235 21.5021 17.331 21.5957 17.4481 21.6961L17.8387 21.2407C17.7262 21.1442 17.6124 21.0451 17.4969 20.9483L17.1115 21.4082ZM17.4487 21.6967C17.7572 21.9597 18.1721 22.0886 18.6076 21.9055L18.3751 21.3524C18.1943 21.4284 18.0156 21.3915 17.838 21.2401L17.4487 21.6967ZM18.6083 21.9052C18.996 21.741 19.267 21.3554 19.267 20.9193H18.667C18.667 21.1048 18.5492 21.2787 18.3743 21.3527L18.6083 21.9052ZM19.267 4.02061C19.267 3.66191 19.2722 3.2884 19.267 2.92019L18.6671 2.92867C18.6722 3.29194 18.667 3.64989 18.667 4.02061H19.267ZM19.267 2.9209C19.2527 1.70401 18.2709 0.718086 17.0557 0.702518L17.048 1.30247C17.9362 1.31385 18.6565 2.03536 18.667 2.92796L19.267 2.9209ZM17.0569 0.702535C16.9298 0.700414 16.7945 0.702493 16.6775 0.702493V1.30249C16.8087 1.30249 16.9257 1.30043 17.0468 1.30245L17.0569 0.702535ZM4.17309 0.702493C3.75953 0.702493 3.33185 0.697309 2.90985 0.702516L2.91725 1.30247C3.33493 1.29732 3.74904 1.30249 4.17309 1.30249V0.702493ZM2.90912 0.702526C1.6933 0.720475 0.71241 1.70734 0.700464 2.92459L1.30043 2.93048C1.30919 2.03824 2.02834 1.31559 2.91798 1.30246L2.90912 0.702526ZM0.70045 20.92C0.70045 21.4752 1.17872 22.024 1.78937 21.9968L1.76269 21.3974C1.53573 21.4075 1.30045 21.1771 1.30045 20.92H0.70045ZM1.79097 21.9967C2.3633 21.9682 2.86601 21.534 2.86601 20.9162H2.26601C2.26601 21.1688 2.06152 21.3825 1.76109 21.3975L1.79097 21.9967ZM7.06697 7.58459H10.26V6.98459H7.06697V7.58459ZM10.26 8.86991H7.06697V9.46991H10.26V8.86991ZM7.06697 8.86991C6.69906 8.86991 6.40906 8.57766 6.40906 8.22725H5.80906C5.80906 8.91808 6.3768 9.46991 7.06697 9.46991V8.86991ZM10.9179 8.22725C10.9179 8.57766 10.6279 8.86991 10.26 8.86991V9.46991C10.9502 9.46991 11.5179 8.91808 11.5179 8.22725H10.9179ZM10.26 7.58459C10.6279 7.58459 10.9179 7.87684 10.9179 8.22725H11.5179C11.5179 7.53643 10.9502 6.98459 10.26 6.98459V7.58459ZM7.06697 6.98459C6.3768 6.98459 5.80906 7.53643 5.80906 8.22725H6.40906C6.40906 7.87684 6.69906 7.58459 7.06697 7.58459V6.98459ZM7.06697 12.6121H12.8145V12.0121H7.06697V12.6121ZM12.8145 13.8974H7.06697V14.4974H12.8145V13.8974ZM7.06697 13.8974C6.69906 13.8974 6.40906 13.6052 6.40906 13.2548H5.80906C5.80906 13.9456 6.3768 14.4974 7.06697 14.4974V13.8974ZM13.4724 13.2548C13.4724 13.6052 13.1824 13.8974 12.8145 13.8974V14.4974C13.5046 14.4974 14.0724 13.9456 14.0724 13.2548H13.4724ZM12.8145 12.6121C13.1824 12.6121 13.4724 12.9044 13.4724 13.2548H14.0724C14.0724 12.564 13.5046 12.0121 12.8145 12.0121V12.6121ZM7.06697 12.0121C6.3768 12.0121 5.80906 12.564 5.80906 13.2548H6.40906C6.40906 12.9044 6.69906 12.6121 7.06697 12.6121V12.0121ZM2.86601 20.9162V2.94009H2.26601V20.9162H2.86601ZM3.27024 2.86296H15.3549V2.26296H3.27024V2.86296ZM17.1159 3.36697V20.1837H17.7159V3.36697H17.1159ZM19.267 20.9193V4.02061H18.667V20.9193H19.267ZM16.6775 0.702493H4.17309V1.30249H16.6775V0.702493ZM0.70045 2.92753V20.92H1.30045V2.92753H0.70045Z" fill="white"/>
</g>
</svg>
