<svg width="20" height="23" viewBox="0 0 20 23" fill="none" xmlns="http://www.w3.org/2000/svg">
<mask id="path-1-outside-1" maskUnits="userSpaceOnUse" x="0" y="0" width="20" height="23" fill="black">
<rect fill="white" width="20" height="23"/>
<path d="M2.56582 20.916V2.9399C2.56582 2.88602 2.56788 2.83111 2.57409 2.7762C2.56375 2.84665 2.55547 2.91296 2.54513 2.98341C2.56064 2.87981 2.5865 2.78138 2.62579 2.68295C2.59994 2.74512 2.57409 2.80728 2.54824 2.86945C2.57719 2.80728 2.60718 2.74719 2.64337 2.69124C2.68991 2.61871 2.74161 2.61353 2.60201 2.74097C2.62476 2.71818 2.64544 2.68917 2.66923 2.66638C2.67957 2.65601 2.73955 2.59385 2.74368 2.59903C2.74368 2.59903 2.55548 2.73061 2.69405 2.64047C2.75092 2.60421 2.80987 2.57313 2.87191 2.54515C2.80987 2.57105 2.74782 2.59695 2.68578 2.62286C2.78401 2.58349 2.88226 2.55551 2.98566 2.54204C2.91535 2.5524 2.84916 2.56069 2.77884 2.57105C2.94223 2.5524 3.10769 2.56277 3.27005 2.56277H15.3547C15.9183 2.56277 16.4819 2.56069 17.0454 2.56277C17.0972 2.56277 17.1509 2.56484 17.2026 2.57105C17.1323 2.56069 17.0661 2.5524 16.9958 2.54204C17.0992 2.55758 17.1975 2.58349 17.2957 2.62286C17.2337 2.59696 17.1716 2.57105 17.1096 2.54515C17.1716 2.57416 17.2316 2.60421 17.2874 2.64047C17.3598 2.6871 17.365 2.7389 17.2378 2.59903C17.2605 2.62182 17.2895 2.64254 17.3122 2.66638C17.3226 2.67674 17.3846 2.73683 17.3795 2.74097C17.3795 2.74097 17.2481 2.5524 17.3381 2.69124C17.3743 2.74822 17.4053 2.80728 17.4332 2.86945C17.4074 2.80728 17.3815 2.74512 17.3557 2.68295C17.395 2.78138 17.4229 2.87981 17.4363 2.98341C17.426 2.91296 17.4177 2.84665 17.4074 2.7762C17.4281 2.97098 17.4157 3.16992 17.4157 3.36678V20.1835C17.4157 20.4197 17.4105 20.6549 17.4157 20.888V20.9191C17.8583 20.7346 18.2967 20.5544 18.7393 20.3699C17.941 19.6882 17.1416 19.0075 16.3423 18.3289C16.2285 18.2335 16.1178 18.1372 16.0031 18.0387C15.85 17.9092 15.6639 17.8025 15.455 17.8108C15.2565 17.8191 15.0465 17.8854 14.9069 18.0387C14.1086 18.9173 13.3092 19.7918 12.5099 20.6704C12.3961 20.7947 12.2824 20.9191 12.1707 21.0434H13.2668C12.4685 20.1648 11.6691 19.2903 10.8698 18.4117C10.756 18.2874 10.6423 18.1631 10.5306 18.0387C10.2566 17.7383 9.70539 17.7383 9.43446 18.0387C8.63614 18.9173 7.83676 19.7918 7.0374 20.6704C6.92365 20.7947 6.80989 20.9191 6.69823 21.0434H7.79437C6.99605 20.1648 6.19667 19.2903 5.39731 18.4117C5.28356 18.2874 5.16981 18.1631 5.05814 18.0387C4.93404 17.902 4.69413 17.8025 4.51006 17.8108C4.29497 17.8212 4.12538 17.8989 3.96199 18.0387C3.16367 18.7205 2.36428 19.4012 1.56493 20.0798C1.45118 20.1751 1.34053 20.2715 1.22575 20.3699C0.915515 20.6341 0.934126 21.2009 1.22575 21.4682C1.55667 21.7707 1.99099 21.75 2.3219 21.4682C3.12022 20.7864 3.91961 20.1057 4.71896 19.4271C4.83271 19.3318 4.94336 19.2354 5.05814 19.137H3.96199C4.76031 20.0156 5.5597 20.8901 6.35905 21.7687C6.4728 21.893 6.58656 22.0173 6.69823 22.1416C6.97227 22.4421 7.52345 22.4421 7.79437 22.1416C8.59269 21.263 9.39208 20.3886 10.1914 19.51C10.3052 19.3856 10.4189 19.2613 10.5306 19.137H9.43446C10.2328 20.0156 11.0322 20.8901 11.8315 21.7687C11.9453 21.893 12.059 22.0173 12.1707 22.1416C12.4447 22.4421 12.9959 22.4421 13.2668 22.1416C14.0652 21.263 14.8645 20.3886 15.6639 19.51C15.7777 19.3856 15.8914 19.2613 16.0031 19.137H14.9069C15.7053 19.8187 16.5046 20.4994 17.304 21.1781C17.4177 21.2734 17.5284 21.3697 17.6432 21.4682C17.8862 21.6754 18.183 21.7583 18.4911 21.6288C18.7724 21.5096 18.9668 21.2299 18.9668 20.9191V4.02042C18.9668 3.65571 18.972 3.28998 18.9668 2.92424C18.9544 1.8695 18.1033 1.01578 17.0517 1.0023C16.9276 1.00023 16.8014 1.0023 16.6773 1.0023H4.1729C3.7541 1.0023 3.3332 0.997122 2.91336 1.0023C1.86063 1.01784 1.01061 1.8726 1.00026 2.92734V20.9198C1.00026 21.326 1.35703 21.7156 1.77584 21.6969C2.21222 21.6751 2.56582 21.3512 2.56582 20.916Z"/>
<path d="M6.10887 8.22706C6.10887 7.70645 6.53774 7.2844 7.06678 7.2844H10.2598C10.7889 7.2844 11.2177 7.70645 11.2177 8.22706C11.2177 8.74768 10.7889 9.16973 10.2598 9.16973H7.06678C6.53774 9.16973 6.10887 8.74768 6.10887 8.22706Z"/>
<path d="M6.10887 13.2546C6.10887 12.734 6.53774 12.3119 7.06678 12.3119H12.8143C13.3433 12.3119 13.7722 12.734 13.7722 13.2546C13.7722 13.7752 13.3433 14.1972 12.8143 14.1972H7.06678C6.53774 14.1972 6.10887 13.7752 6.10887 13.2546Z"/>
</mask>
<path d="M2.56582 20.916V2.9399C2.56582 2.88602 2.56788 2.83111 2.57409 2.7762C2.56375 2.84665 2.55547 2.91296 2.54513 2.98341C2.56064 2.87981 2.5865 2.78138 2.62579 2.68295C2.59994 2.74512 2.57409 2.80728 2.54824 2.86945C2.57719 2.80728 2.60718 2.74719 2.64337 2.69124C2.68991 2.61871 2.74161 2.61353 2.60201 2.74097C2.62476 2.71818 2.64544 2.68917 2.66923 2.66638C2.67957 2.65601 2.73955 2.59385 2.74368 2.59903C2.74368 2.59903 2.55548 2.73061 2.69405 2.64047C2.75092 2.60421 2.80987 2.57313 2.87191 2.54515C2.80987 2.57105 2.74782 2.59695 2.68578 2.62286C2.78401 2.58349 2.88226 2.55551 2.98566 2.54204C2.91535 2.5524 2.84916 2.56069 2.77884 2.57105C2.94223 2.5524 3.10769 2.56277 3.27005 2.56277H15.3547C15.9183 2.56277 16.4819 2.56069 17.0454 2.56277C17.0972 2.56277 17.1509 2.56484 17.2026 2.57105C17.1323 2.56069 17.0661 2.5524 16.9958 2.54204C17.0992 2.55758 17.1975 2.58349 17.2957 2.62286C17.2337 2.59696 17.1716 2.57105 17.1096 2.54515C17.1716 2.57416 17.2316 2.60421 17.2874 2.64047C17.3598 2.6871 17.365 2.7389 17.2378 2.59903C17.2605 2.62182 17.2895 2.64254 17.3122 2.66638C17.3226 2.67674 17.3846 2.73683 17.3795 2.74097C17.3795 2.74097 17.2481 2.5524 17.3381 2.69124C17.3743 2.74822 17.4053 2.80728 17.4332 2.86945C17.4074 2.80728 17.3815 2.74512 17.3557 2.68295C17.395 2.78138 17.4229 2.87981 17.4363 2.98341C17.426 2.91296 17.4177 2.84665 17.4074 2.7762C17.4281 2.97098 17.4157 3.16992 17.4157 3.36678V20.1835C17.4157 20.4197 17.4105 20.6549 17.4157 20.888V20.9191C17.8583 20.7346 18.2967 20.5544 18.7393 20.3699C17.941 19.6882 17.1416 19.0075 16.3423 18.3289C16.2285 18.2335 16.1178 18.1372 16.0031 18.0387C15.85 17.9092 15.6639 17.8025 15.455 17.8108C15.2565 17.8191 15.0465 17.8854 14.9069 18.0387C14.1086 18.9173 13.3092 19.7918 12.5099 20.6704C12.3961 20.7947 12.2824 20.9191 12.1707 21.0434H13.2668C12.4685 20.1648 11.6691 19.2903 10.8698 18.4117C10.756 18.2874 10.6423 18.1631 10.5306 18.0387C10.2566 17.7383 9.70539 17.7383 9.43446 18.0387C8.63614 18.9173 7.83676 19.7918 7.0374 20.6704C6.92365 20.7947 6.80989 20.9191 6.69823 21.0434H7.79437C6.99605 20.1648 6.19667 19.2903 5.39731 18.4117C5.28356 18.2874 5.16981 18.1631 5.05814 18.0387C4.93404 17.902 4.69413 17.8025 4.51006 17.8108C4.29497 17.8212 4.12538 17.8989 3.96199 18.0387C3.16367 18.7205 2.36428 19.4012 1.56493 20.0798C1.45118 20.1751 1.34053 20.2715 1.22575 20.3699C0.915515 20.6341 0.934126 21.2009 1.22575 21.4682C1.55667 21.7707 1.99099 21.75 2.3219 21.4682C3.12022 20.7864 3.91961 20.1057 4.71896 19.4271C4.83271 19.3318 4.94336 19.2354 5.05814 19.137H3.96199C4.76031 20.0156 5.5597 20.8901 6.35905 21.7687C6.4728 21.893 6.58656 22.0173 6.69823 22.1416C6.97227 22.4421 7.52345 22.4421 7.79437 22.1416C8.59269 21.263 9.39208 20.3886 10.1914 19.51C10.3052 19.3856 10.4189 19.2613 10.5306 19.137H9.43446C10.2328 20.0156 11.0322 20.8901 11.8315 21.7687C11.9453 21.893 12.059 22.0173 12.1707 22.1416C12.4447 22.4421 12.9959 22.4421 13.2668 22.1416C14.0652 21.263 14.8645 20.3886 15.6639 19.51C15.7777 19.3856 15.8914 19.2613 16.0031 19.137H14.9069C15.7053 19.8187 16.5046 20.4994 17.304 21.1781C17.4177 21.2734 17.5284 21.3697 17.6432 21.4682C17.8862 21.6754 18.183 21.7583 18.4911 21.6288C18.7724 21.5096 18.9668 21.2299 18.9668 20.9191V4.02042C18.9668 3.65571 18.972 3.28998 18.9668 2.92424C18.9544 1.8695 18.1033 1.01578 17.0517 1.0023C16.9276 1.00023 16.8014 1.0023 16.6773 1.0023H4.1729C3.7541 1.0023 3.3332 0.997122 2.91336 1.0023C1.86063 1.01784 1.01061 1.8726 1.00026 2.92734V20.9198C1.00026 21.326 1.35703 21.7156 1.77584 21.6969C2.21222 21.6751 2.56582 21.3512 2.56582 20.916Z" fill="#BDBDBD"/>
<path d="M6.10887 8.22706C6.10887 7.70645 6.53774 7.2844 7.06678 7.2844H10.2598C10.7889 7.2844 11.2177 7.70645 11.2177 8.22706C11.2177 8.74768 10.7889 9.16973 10.2598 9.16973H7.06678C6.53774 9.16973 6.10887 8.74768 6.10887 8.22706Z" fill="#BDBDBD"/>
<path d="M6.10887 13.2546C6.10887 12.734 6.53774 12.3119 7.06678 12.3119H12.8143C13.3433 12.3119 13.7722 12.734 13.7722 13.2546C13.7722 13.7752 13.3433 14.1972 12.8143 14.1972H7.06678C6.53774 14.1972 6.10887 13.7752 6.10887 13.2546Z" fill="#BDBDBD"/>
<path d="M2.57409 2.7762L2.87219 2.80988L2.27727 2.73263L2.57409 2.7762ZM2.54513 2.98341L2.24831 2.93984L2.84183 3.02783L2.54513 2.98341ZM2.62579 2.68295L2.90441 2.79419L2.34879 2.56776L2.62579 2.68295ZM2.54824 2.86945L2.27123 2.75425L2.82018 2.99612L2.54824 2.86945ZM2.64337 2.69124L2.89526 2.85419L2.89587 2.85325L2.64337 2.69124ZM2.60201 2.74097L2.38967 2.52904L2.80427 2.96254L2.60201 2.74097ZM2.66923 2.66638L2.87685 2.88303L2.88156 2.8783L2.66923 2.66638ZM2.74368 2.59903L2.91558 2.8449L3.17767 2.66166L2.97808 2.41179L2.74368 2.59903ZM2.69405 2.64047L2.53275 2.3875L2.53046 2.38899L2.69405 2.64047ZM2.87191 2.54515L2.99522 2.81864L2.75634 2.26831L2.87191 2.54515ZM2.68578 2.62286L2.5702 2.34602L2.79738 2.90133L2.68578 2.62286ZM2.98566 2.54204L3.02939 2.83884L2.94692 2.24455L2.98566 2.54204ZM2.77884 2.57105L2.73511 2.27426L2.81286 2.86912L2.77884 2.57105ZM17.0454 2.56277L17.0443 2.86277H17.0454V2.56277ZM17.2026 2.57105L17.1668 2.86891L17.2464 2.27426L17.2026 2.57105ZM16.9958 2.54204L17.0395 2.24525L16.9512 2.83871L16.9958 2.54204ZM17.2957 2.62286L17.1841 2.90132L17.4113 2.34601L17.2957 2.62286ZM17.1096 2.54515L17.2251 2.26831L16.9825 2.81691L17.1096 2.54515ZM17.2874 2.64047L17.124 2.89208L17.125 2.89269L17.2874 2.64047ZM17.2378 2.59903L17.4501 2.3871L17.0158 2.80087L17.2378 2.59903ZM17.3122 2.66638L17.0952 2.87358L17.0999 2.8783L17.3122 2.66638ZM17.3795 2.74097L17.1333 2.91243L17.3167 3.17573L17.5671 2.97508L17.3795 2.74097ZM17.3381 2.69124L17.5913 2.53039L17.5899 2.5281L17.3381 2.69124ZM17.4332 2.86945L17.1596 2.99236L17.7102 2.75425L17.4332 2.86945ZM17.3557 2.68295L17.6327 2.56775L17.0771 2.79419L17.3557 2.68295ZM17.4363 2.98341L17.1395 3.02698L17.7338 2.94481L17.4363 2.98341ZM17.4074 2.7762L17.7042 2.73262L17.1091 2.80787L17.4074 2.7762ZM17.4157 20.888H17.7157L17.7156 20.8813L17.4157 20.888ZM17.4157 20.9191H17.1157V21.3691L17.531 21.196L17.4157 20.9191ZM18.7393 20.3699L18.8547 20.6469L19.3056 20.459L18.9341 20.1418L18.7393 20.3699ZM16.3423 18.3289L16.5364 18.1002L16.5349 18.0989L16.3423 18.3289ZM16.0031 18.0387L16.1984 17.811L16.1969 17.8097L16.0031 18.0387ZM15.455 17.8108L15.4431 17.511L15.4425 17.5111L15.455 17.8108ZM14.9069 18.0387L14.6851 17.8368L14.6849 17.837L14.9069 18.0387ZM12.5099 20.6704L12.7312 20.8729L12.7318 20.8723L12.5099 20.6704ZM12.1707 21.0434L11.9475 20.8429L11.498 21.3434H12.1707V21.0434ZM13.2668 21.0434V21.3434H13.9448L13.4889 20.8416L13.2668 21.0434ZM10.8698 18.4117L11.0917 18.2098L11.0911 18.2092L10.8698 18.4117ZM10.5306 18.0387L10.7538 17.8383L10.7523 17.8366L10.5306 18.0387ZM9.43446 18.0387L9.6565 18.2405L9.65726 18.2396L9.43446 18.0387ZM7.0374 20.6704L7.25874 20.8729L7.2593 20.8723L7.0374 20.6704ZM6.69823 21.0434L6.47504 20.8429L6.02549 21.3434H6.69823V21.0434ZM7.79437 21.0434V21.3434H8.47231L8.0164 20.8416L7.79437 21.0434ZM5.39731 18.4117L5.61921 18.2098L5.61865 18.2092L5.39731 18.4117ZM5.05814 18.0387L5.28132 17.8383L5.28031 17.8372L5.05814 18.0387ZM4.51006 17.8108L4.49657 17.5111L4.49563 17.5112L4.51006 17.8108ZM3.96199 18.0387L4.15681 18.2669L4.15708 18.2666L3.96199 18.0387ZM1.56493 20.0798L1.75762 20.3098L1.75909 20.3085L1.56493 20.0798ZM1.22575 20.3699L1.42026 20.5983L1.42107 20.5977L1.22575 20.3699ZM1.22575 21.4682L1.02304 21.6893L1.02333 21.6896L1.22575 21.4682ZM2.3219 21.4682L2.51641 21.6966L2.51672 21.6963L2.3219 21.4682ZM4.71896 19.4271L4.52627 19.1972L4.5248 19.1984L4.71896 19.4271ZM5.05814 19.137L5.25345 19.3647L5.86871 18.837H5.05814V19.137ZM3.96199 19.137V18.837H3.28405L3.73996 19.3387L3.96199 19.137ZM6.35905 21.7687L6.13715 21.9705L6.13771 21.9712L6.35905 21.7687ZM6.69823 22.1416L6.47504 22.3421L6.47657 22.3438L6.69823 22.1416ZM7.79437 22.1416L7.57234 21.9399L7.57157 21.9407L7.79437 22.1416ZM10.1914 19.51L9.97009 19.3075L9.96953 19.3081L10.1914 19.51ZM10.5306 19.137L10.7538 19.3375L11.2033 18.837H10.5306V19.137ZM9.43446 19.137V18.837H8.75653L9.21243 19.3387L9.43446 19.137ZM11.8315 21.7687L11.6096 21.9705L11.6102 21.9712L11.8315 21.7687ZM12.1707 22.1416L11.9475 22.3421L11.949 22.3438L12.1707 22.1416ZM13.2668 22.1416L13.0448 21.9399L13.044 21.9407L13.2668 22.1416ZM15.6639 19.51L15.4426 19.3075L15.442 19.3081L15.6639 19.51ZM16.0031 19.137L16.2263 19.3375L16.6758 18.837H16.0031V19.137ZM14.9069 19.137V18.837H14.0937L14.7121 19.3651L14.9069 19.137ZM17.304 21.1781L17.1098 21.4068L17.1113 21.408L17.304 21.1781ZM17.6432 21.4682L17.4479 21.6959L17.4485 21.6965L17.6432 21.4682ZM18.4911 21.6288L18.6074 21.9053L18.6081 21.905L18.4911 21.6288ZM18.9668 2.92424L18.6668 2.92777L18.6669 2.92848L18.9668 2.92424ZM17.0517 1.0023L17.0466 1.30226L17.0478 1.30228L17.0517 1.0023ZM2.91336 1.0023L2.90966 0.702324L2.90893 0.702335L2.91336 1.0023ZM1.00026 2.92734L0.700256 2.9244V2.92734H1.00026ZM1.77584 21.6969L1.78918 21.9966L1.79078 21.9965L1.77584 21.6969ZM2.86582 2.9399C2.86582 2.89339 2.86762 2.85032 2.87219 2.80988L2.27599 2.74251C2.26815 2.8119 2.26582 2.87866 2.26582 2.9399H2.86582ZM2.27727 2.73263C2.27183 2.76965 2.26697 2.80538 2.26235 2.83934C2.25767 2.87376 2.25322 2.90642 2.24831 2.93984L2.84195 3.02698C2.84739 2.98996 2.85225 2.95423 2.85687 2.92026C2.86155 2.88585 2.866 2.85319 2.87091 2.81976L2.27727 2.73263ZM2.84183 3.02783C2.85411 2.94579 2.87418 2.8699 2.90441 2.79419L2.34718 2.57171C2.29881 2.69286 2.26718 2.81383 2.24844 2.93899L2.84183 3.02783ZM2.34879 2.56776C2.32294 2.62993 2.29709 2.69209 2.27123 2.75425L2.82524 2.98465C2.85109 2.92248 2.87694 2.86031 2.90279 2.79815L2.34879 2.56776ZM2.82018 2.99612C2.84751 2.93745 2.87054 2.8924 2.89526 2.85419L2.39149 2.52829C2.34382 2.60198 2.30687 2.67712 2.27629 2.74278L2.82018 2.99612ZM2.89587 2.85325C2.89573 2.85346 2.89245 2.85889 2.8821 2.86865C2.87952 2.87109 2.86292 2.88703 2.83482 2.90286C2.82715 2.90719 2.78161 2.93375 2.71553 2.93918C2.67904 2.94218 2.60934 2.94087 2.53702 2.89724C2.45638 2.8486 2.41524 2.77349 2.40026 2.70895C2.37754 2.61106 2.41244 2.53504 2.41435 2.53038C2.42319 2.50886 2.43246 2.49398 2.43595 2.48852C2.44377 2.4763 2.44911 2.47055 2.44671 2.47333C2.44322 2.47738 2.42965 2.49211 2.39975 2.51941L2.80427 2.96254C2.84417 2.92611 2.87649 2.89371 2.90111 2.86515C2.91277 2.85162 2.92773 2.83321 2.94148 2.8117C2.94794 2.80159 2.95926 2.78292 2.96933 2.75841C2.97247 2.75077 3.00777 2.67257 2.98473 2.57329C2.96958 2.50805 2.9281 2.43245 2.84695 2.38349C2.77412 2.33955 2.70373 2.33813 2.66641 2.34119C2.59864 2.34676 2.55079 2.37421 2.54027 2.38014C2.50647 2.39919 2.48204 2.4212 2.47025 2.43233C2.44148 2.45948 2.41428 2.49276 2.39088 2.52924L2.89587 2.85325ZM2.81434 2.9529C2.8362 2.931 2.8558 2.90741 2.86399 2.89775C2.87579 2.88385 2.8776 2.8822 2.8768 2.88297L2.46166 2.44978C2.43707 2.47334 2.41664 2.4976 2.40647 2.50959C2.40009 2.51711 2.39668 2.52115 2.39324 2.52508C2.39011 2.52864 2.38918 2.52954 2.38967 2.52904L2.81434 2.9529ZM2.88156 2.8783C2.89159 2.86826 2.90277 2.85656 2.91692 2.84292C2.92424 2.83587 2.9257 2.83482 2.92287 2.83715C2.92172 2.83811 2.91903 2.8403 2.91514 2.84319C2.91181 2.84567 2.90407 2.8513 2.8932 2.85777C2.88669 2.86165 2.85843 2.87863 2.8175 2.88923C2.7967 2.89462 2.75399 2.90342 2.70023 2.89565C2.63953 2.88688 2.56516 2.85621 2.50928 2.78626L2.97808 2.41179C2.85853 2.26212 2.6892 2.30267 2.66706 2.3084C2.62479 2.31935 2.59481 2.33714 2.58624 2.34224C2.56367 2.35568 2.54652 2.3698 2.54064 2.37466C2.52508 2.38752 2.51013 2.40169 2.50064 2.41083C2.48985 2.42122 2.47943 2.43164 2.47159 2.43955C2.46759 2.44358 2.46405 2.44717 2.46136 2.44991C2.45996 2.45133 2.45893 2.45238 2.45805 2.45328C2.4571 2.45424 2.45682 2.45452 2.45689 2.45445L2.88156 2.8783ZM2.74368 2.59903C2.57179 2.35316 2.57178 2.35316 2.57178 2.35316C2.57178 2.35317 2.57177 2.35317 2.57177 2.35317C2.57176 2.35318 2.57175 2.35319 2.57173 2.3532C2.5717 2.35322 2.57166 2.35325 2.5716 2.35329C2.5715 2.35336 2.57135 2.35347 2.57116 2.3536C2.57077 2.35387 2.57022 2.35426 2.56951 2.35476C2.56809 2.35575 2.56605 2.35717 2.56353 2.35895C2.55848 2.36249 2.55144 2.36744 2.54343 2.3731C2.52773 2.38418 2.50709 2.39882 2.49042 2.41095C2.48261 2.41663 2.47307 2.42365 2.46488 2.43C2.46238 2.43195 2.45285 2.43931 2.44269 2.44852C2.43968 2.45124 2.43444 2.45609 2.42829 2.46242C2.42431 2.46652 2.40987 2.4814 2.39507 2.50318C2.38827 2.51318 2.37206 2.53802 2.35974 2.5735C2.35008 2.60131 2.32166 2.69539 2.37262 2.80169C2.43138 2.92423 2.54253 2.95956 2.59485 2.96811C2.64466 2.97624 2.68408 2.96957 2.69778 2.96704C2.72925 2.96124 2.75259 2.95151 2.75772 2.9494C2.76686 2.94565 2.77403 2.94219 2.77792 2.94026C2.78587 2.93631 2.79228 2.93272 2.79549 2.93089C2.8025 2.9269 2.80926 2.92278 2.81441 2.91958C2.82537 2.91279 2.83978 2.90356 2.85763 2.89195L2.53046 2.38899C2.51367 2.39992 2.50365 2.40629 2.49838 2.40956C2.49542 2.41139 2.49611 2.41091 2.49885 2.40935C2.49993 2.40874 2.50465 2.40605 2.51134 2.40273C2.51459 2.40112 2.52123 2.39789 2.52995 2.39432C2.53465 2.39239 2.55767 2.38277 2.5889 2.377C2.60249 2.3745 2.64182 2.36783 2.69156 2.37595C2.74381 2.38449 2.85492 2.4198 2.91366 2.54229C2.9646 2.64855 2.93618 2.74257 2.92655 2.77031C2.91425 2.80571 2.89809 2.83047 2.89137 2.84036C2.87671 2.86194 2.86249 2.87655 2.85882 2.88032C2.85299 2.88633 2.84815 2.89079 2.84563 2.89308C2.8405 2.89773 2.83655 2.90095 2.83548 2.90182C2.83393 2.90309 2.83294 2.90385 2.83283 2.90394C2.83262 2.9041 2.83341 2.90349 2.83558 2.90187C2.83761 2.90037 2.84021 2.89846 2.84338 2.89615C2.85644 2.88665 2.87419 2.87404 2.88945 2.86326C2.89692 2.85799 2.9035 2.85337 2.90821 2.85006C2.91056 2.84842 2.91243 2.8471 2.9137 2.84621C2.91434 2.84577 2.91482 2.84543 2.91514 2.84521C2.9153 2.84509 2.91542 2.84501 2.91549 2.84496C2.91553 2.84493 2.91555 2.84492 2.91557 2.84491C2.91557 2.8449 2.91558 2.8449 2.91558 2.8449C2.91558 2.8449 2.91558 2.8449 2.91558 2.8449C2.91558 2.8449 2.91558 2.8449 2.74368 2.59903ZM2.85533 2.89343C2.89833 2.86601 2.9443 2.84159 2.99522 2.81864L2.74861 2.27166C2.67543 2.30466 2.60351 2.34241 2.53276 2.38751L2.85533 2.89343ZM2.75634 2.26831C2.6943 2.29421 2.63225 2.32011 2.5702 2.34602L2.80135 2.8997C2.86339 2.8738 2.92544 2.8479 2.98749 2.822L2.75634 2.26831ZM2.79738 2.90133C2.87668 2.86954 2.95034 2.84918 3.02441 2.83953L2.94692 2.24455C2.81417 2.26184 2.69135 2.29743 2.57417 2.34439L2.79738 2.90133ZM2.94193 2.24525C2.90858 2.25016 2.87599 2.25462 2.84164 2.25931C2.80774 2.26394 2.77208 2.26881 2.73511 2.27426L2.82258 2.86785C2.85593 2.86293 2.88852 2.85848 2.92287 2.85379C2.95677 2.84915 2.99243 2.84428 3.02939 2.83884L2.94193 2.24525ZM2.81286 2.86912C2.95368 2.85305 3.08238 2.86277 3.27005 2.86277V2.26277C3.13301 2.26277 2.93078 2.25176 2.74482 2.27299L2.81286 2.86912ZM15.3547 2.86277C15.9198 2.86277 16.4814 2.86069 17.0443 2.86276L17.0466 2.26277C16.4823 2.26069 15.9167 2.26277 15.3547 2.26277V2.86277ZM17.0454 2.86277C17.0899 2.86277 17.1309 2.86459 17.1668 2.86891L17.2384 2.2732C17.171 2.26509 17.1044 2.26277 17.0454 2.26277V2.86277ZM17.2464 2.27426C17.2094 2.26881 17.1737 2.26394 17.1398 2.25931C17.1055 2.25462 17.0729 2.25016 17.0395 2.24525L16.9521 2.83884C16.989 2.84428 17.0247 2.84915 17.0586 2.85379C17.093 2.85848 17.1255 2.86294 17.1589 2.86785L17.2464 2.27426ZM16.9512 2.83871C17.033 2.851 17.1086 2.87108 17.1841 2.90132L17.4073 2.34439C17.2863 2.29589 17.1654 2.26417 17.0404 2.24537L16.9512 2.83871ZM17.4113 2.34601C17.3492 2.32011 17.2872 2.29421 17.2251 2.26831L16.994 2.82199C17.056 2.8479 17.1181 2.8738 17.1801 2.8997L17.4113 2.34601ZM16.9825 2.81691C17.041 2.84428 17.0859 2.86734 17.124 2.89208L17.4508 2.38887C17.3772 2.34108 17.3022 2.30404 17.2366 2.27339L16.9825 2.81691ZM17.125 2.89269C17.1247 2.89252 17.1193 2.88921 17.1095 2.87884C17.1071 2.87625 17.0912 2.85965 17.0755 2.83157C17.0711 2.82388 17.0448 2.77847 17.0394 2.71261C17.0364 2.67631 17.0377 2.60682 17.0811 2.53463C17.1295 2.45401 17.2045 2.41262 17.2694 2.39751C17.3676 2.37462 17.4439 2.40979 17.4486 2.41169C17.4701 2.42059 17.485 2.42991 17.4905 2.43342C17.5027 2.44127 17.5085 2.44664 17.5057 2.44424C17.5017 2.44075 17.487 2.42715 17.4597 2.39719L17.0158 2.80087C17.0522 2.84084 17.0845 2.87322 17.113 2.8979C17.1265 2.90958 17.1449 2.92458 17.1665 2.93838C17.1766 2.94487 17.1952 2.95624 17.2198 2.96637C17.2274 2.9695 17.3059 3.00507 17.4055 2.98186C17.4711 2.96659 17.5466 2.92485 17.5953 2.84372C17.639 2.77101 17.6404 2.70084 17.6374 2.6637C17.6319 2.59616 17.6046 2.54843 17.5987 2.53788C17.5797 2.5041 17.5578 2.47965 17.5466 2.46783C17.5196 2.43901 17.4863 2.41174 17.4499 2.38826L17.125 2.89269ZM17.0255 2.81096C17.0473 2.83286 17.0709 2.8525 17.0805 2.86071C17.0944 2.87253 17.096 2.87434 17.0952 2.87353L17.5292 2.45922C17.5057 2.43458 17.4815 2.41411 17.4695 2.40392C17.462 2.39752 17.458 2.39411 17.4541 2.39066C17.4505 2.38753 17.4496 2.3866 17.4501 2.3871L17.0255 2.81096ZM17.0999 2.8783C17.1099 2.88835 17.1216 2.89955 17.1352 2.91373C17.1423 2.92106 17.1433 2.92254 17.141 2.91971C17.14 2.91856 17.1379 2.91587 17.135 2.91199C17.1325 2.90866 17.1269 2.90092 17.1205 2.89007C17.1166 2.88355 17.0997 2.85535 17.0892 2.81453C17.0838 2.7938 17.0751 2.75124 17.0828 2.69767C17.0915 2.63724 17.122 2.56287 17.1919 2.50686L17.5671 2.97508C17.7163 2.85548 17.6758 2.68643 17.6702 2.6646C17.6593 2.62244 17.6416 2.59252 17.6365 2.58394C17.6231 2.56138 17.6091 2.54423 17.6042 2.53834C17.5914 2.52276 17.5772 2.50778 17.5681 2.49828C17.5577 2.48747 17.5473 2.47703 17.5395 2.46917C17.5354 2.46517 17.5318 2.46162 17.5291 2.45893C17.5277 2.45752 17.5266 2.45649 17.5257 2.4556C17.5248 2.45465 17.5245 2.45438 17.5246 2.45445L17.0999 2.8783ZM17.3795 2.74097C17.6256 2.56952 17.6256 2.56952 17.6256 2.56951C17.6256 2.56951 17.6256 2.5695 17.6256 2.5695C17.6256 2.56949 17.6256 2.56948 17.6256 2.56946C17.6256 2.56943 17.6256 2.56939 17.6255 2.56934C17.6254 2.56923 17.6253 2.56908 17.6252 2.56889C17.6249 2.5685 17.6245 2.56794 17.624 2.56723C17.6231 2.56581 17.6216 2.56377 17.6199 2.56124C17.6163 2.55619 17.6114 2.54913 17.6057 2.54111C17.5947 2.52538 17.5801 2.50471 17.568 2.488C17.5623 2.48018 17.5553 2.47063 17.549 2.46243C17.547 2.45992 17.5397 2.45039 17.5305 2.44021C17.5278 2.4372 17.5229 2.43195 17.5166 2.4258C17.5125 2.42181 17.4977 2.40732 17.4759 2.39247C17.4659 2.38566 17.441 2.36935 17.4055 2.35696C17.3776 2.34724 17.2831 2.3186 17.1765 2.36992C17.054 2.42892 17.0189 2.54026 17.0105 2.59215C17.0024 2.64177 17.009 2.68103 17.0116 2.69469C17.0173 2.72605 17.027 2.74932 17.0291 2.75445C17.0328 2.76358 17.0363 2.77073 17.0382 2.77461C17.0421 2.78255 17.0457 2.78896 17.0475 2.79217C17.0515 2.79918 17.0556 2.80594 17.0588 2.8111C17.0655 2.82207 17.0747 2.8365 17.0863 2.85438L17.5899 2.5281C17.579 2.51127 17.5726 2.50123 17.5693 2.49594C17.5675 2.49297 17.568 2.49365 17.5695 2.49639C17.5701 2.49746 17.5728 2.50217 17.5761 2.50885C17.5777 2.51209 17.5809 2.51872 17.5845 2.52741C17.5864 2.53212 17.5959 2.55506 17.6017 2.58619C17.6042 2.59973 17.6108 2.63891 17.6027 2.68846C17.5943 2.74028 17.5593 2.85157 17.4368 2.91056C17.3302 2.96185 17.2358 2.93322 17.208 2.92352C17.1725 2.91116 17.1477 2.8949 17.1378 2.88816C17.1163 2.87345 17.1017 2.85919 17.0979 2.85552C17.0919 2.84968 17.0874 2.84483 17.0852 2.8423C17.0805 2.83717 17.0773 2.83322 17.0764 2.83214C17.0752 2.8306 17.0744 2.82961 17.0743 2.8295C17.0742 2.82929 17.0748 2.83008 17.0764 2.83227C17.0779 2.83429 17.0798 2.8369 17.0821 2.84008C17.0916 2.85317 17.1042 2.87096 17.115 2.88625C17.1202 2.89373 17.1248 2.90033 17.1281 2.90504C17.1298 2.90739 17.1311 2.90927 17.132 2.91054C17.1324 2.91118 17.1328 2.91167 17.133 2.91199C17.1331 2.91215 17.1332 2.91226 17.1332 2.91234C17.1332 2.91237 17.1333 2.9124 17.1333 2.91242C17.1333 2.91242 17.1333 2.91243 17.1333 2.91243C17.1333 2.91243 17.1333 2.91243 17.1333 2.91243C17.1333 2.91243 17.1333 2.91243 17.3795 2.74097ZM17.0849 2.85209C17.1123 2.89521 17.1366 2.94131 17.1596 2.99236L17.7069 2.74654C17.674 2.67326 17.6363 2.60124 17.5913 2.53039L17.0849 2.85209ZM17.7102 2.75425C17.6844 2.69209 17.6585 2.62991 17.6327 2.56775L17.0787 2.79815C17.1045 2.86033 17.1304 2.92248 17.1562 2.98464L17.7102 2.75425ZM17.0771 2.79419C17.1088 2.87373 17.1292 2.94765 17.1388 3.02202L17.7338 2.94481C17.7166 2.81197 17.6811 2.68903 17.6343 2.57172L17.0771 2.79419ZM17.7332 2.93985C17.7283 2.90642 17.7238 2.87376 17.7191 2.83935C17.7145 2.80538 17.7096 2.76965 17.7042 2.73262L17.1106 2.81977C17.1155 2.85319 17.1199 2.88585 17.1246 2.92027C17.1292 2.95423 17.1341 2.98996 17.1395 3.02698L17.7332 2.93985ZM17.1091 2.80787C17.1275 2.9817 17.1157 3.14444 17.1157 3.36678H17.7157C17.7157 3.19539 17.7286 2.96026 17.7057 2.74452L17.1091 2.80787ZM17.1157 20.1835C17.1157 20.4103 17.1105 20.6576 17.1157 20.8946L17.7156 20.8813C17.7105 20.6521 17.7157 20.4291 17.7157 20.1835H17.1157ZM17.1157 20.888V20.9191H17.7157V20.888H17.1157ZM17.531 21.196C17.752 21.1039 17.9719 21.0129 18.1922 20.9217C18.4124 20.8305 18.633 20.7392 18.8547 20.6469L18.6239 20.093C18.403 20.1851 18.1831 20.2761 17.9627 20.3673C17.7425 20.4585 17.5219 20.5498 17.3003 20.6421L17.531 21.196ZM18.9341 20.1418C18.1356 19.4599 17.336 18.779 16.5364 18.1002L16.1481 18.5576C16.9472 19.236 17.7464 19.9165 18.5445 20.5981L18.9341 20.1418ZM16.5349 18.0989C16.4229 18.0051 16.3154 17.9114 16.1984 17.811L15.8078 18.2665C15.9203 18.363 16.0341 18.462 16.1496 18.5588L16.5349 18.0989ZM16.1969 17.8097C16.022 17.6617 15.7632 17.4983 15.4431 17.511L15.4669 18.1106C15.5647 18.1067 15.6781 18.1567 15.8093 18.2678L16.1969 17.8097ZM15.4425 17.5111C15.1951 17.5214 14.8965 17.6046 14.6851 17.8368L15.1288 18.2407C15.1965 18.1663 15.3178 18.1168 15.4675 18.1105L15.4425 17.5111ZM14.6849 17.837C13.8862 18.716 13.0884 19.5887 12.288 20.4685L12.7318 20.8723C13.5301 19.9949 14.331 19.1187 15.129 18.2405L14.6849 17.837ZM12.2885 20.4679C12.1749 20.5921 12.0603 20.7174 11.9475 20.8429L12.3939 21.2439C12.5045 21.1207 12.6173 20.9974 12.7312 20.8729L12.2885 20.4679ZM12.1707 21.3434H13.2668V20.7434H12.1707V21.3434ZM13.4889 20.8416C12.6909 19.9634 11.89 19.0873 11.0917 18.2098L10.6479 18.6136C11.4483 19.4934 12.2461 20.3661 13.0448 21.2451L13.4889 20.8416ZM11.0911 18.2092C10.9772 18.0847 10.8644 17.9614 10.7538 17.8383L10.3074 18.2392C10.4202 18.3647 10.5348 18.4901 10.6484 18.6142L11.0911 18.2092ZM10.7523 17.8366C10.5479 17.6125 10.2547 17.5134 9.98136 17.5134C9.70813 17.5134 9.41483 17.6125 9.21166 17.8378L9.65726 18.2396C9.72501 18.1645 9.84277 18.1134 9.98136 18.1134C10.1199 18.1134 10.2393 18.1645 10.309 18.2409L10.7523 17.8366ZM9.21243 17.837C8.41375 18.716 7.61592 19.5887 6.8155 20.4685L7.2593 20.8723C8.05759 19.9949 8.85852 19.1187 9.65649 18.2405L9.21243 17.837ZM6.81606 20.4679C6.70247 20.5921 6.58778 20.7174 6.47504 20.8429L6.92141 21.2439C7.032 21.1207 7.14482 20.9974 7.25874 20.8729L6.81606 20.4679ZM6.69823 21.3434H7.79437V20.7434H6.69823V21.3434ZM8.0164 20.8416C7.21843 19.9634 6.4175 19.0873 5.61921 18.2098L5.17541 18.6136C5.97584 19.4934 6.77366 20.3661 7.57234 21.2451L8.0164 20.8416ZM5.61865 18.2092C5.50474 18.0847 5.39191 17.9614 5.28132 17.8383L4.83495 18.2392C4.9477 18.3647 5.06238 18.4901 5.17597 18.6142L5.61865 18.2092ZM5.28031 17.8372C5.18139 17.7281 5.04984 17.6466 4.9217 17.5933C4.79354 17.5401 4.64316 17.5045 4.49657 17.5111L4.52355 18.1105C4.56103 18.1088 4.62264 18.1188 4.69148 18.1474C4.76033 18.176 4.81079 18.2126 4.83596 18.2403L5.28031 17.8372ZM4.49563 17.5112C4.20402 17.5252 3.9727 17.6347 3.76689 17.8108L4.15708 18.2666C4.27806 18.1631 4.38592 18.1171 4.5245 18.1105L4.49563 17.5112ZM3.76717 17.8106C2.96906 18.4922 2.1699 19.1727 1.37077 19.8511L1.75909 20.3085C2.55867 19.6297 3.35827 18.9488 4.15681 18.2669L3.76717 17.8106ZM1.37224 19.8499C1.25675 19.9467 1.14295 20.0457 1.03044 20.1422L1.42107 20.5977C1.53811 20.4973 1.6456 20.4036 1.75761 20.3098L1.37224 19.8499ZM1.03125 20.1415C0.792156 20.3452 0.697015 20.6477 0.700073 20.9213C0.703123 21.1942 0.803892 21.4885 1.02304 21.6893L1.42846 21.247C1.35599 21.1806 1.30164 21.0579 1.30004 20.9145C1.29844 20.7719 1.34911 20.6589 1.42026 20.5983L1.03125 20.1415ZM1.02333 21.6896C1.47791 22.1052 2.08321 22.0655 2.51641 21.6966L2.12739 21.2398C1.89877 21.4345 1.63542 21.4362 1.42818 21.2468L1.02333 21.6896ZM2.51672 21.6963C3.31483 21.0148 4.11399 20.3342 4.91312 19.6558L4.5248 19.1984C3.72522 19.8772 2.92562 20.5581 2.12708 21.2401L2.51672 21.6963ZM4.91165 19.657C5.02714 19.5603 5.14095 19.4612 5.25345 19.3647L4.86282 18.9093C4.74578 19.0097 4.63829 19.1033 4.52628 19.1972L4.91165 19.657ZM5.05814 18.837H3.96199V19.437H5.05814V18.837ZM3.73996 19.3387C4.53793 20.2169 5.33886 21.0931 6.13715 21.9705L6.58095 21.5668C5.78053 20.687 4.98269 19.8142 4.18402 18.9352L3.73996 19.3387ZM6.13771 21.9712C6.25163 22.0957 6.36445 22.219 6.47504 22.3421L6.92141 21.9412C6.80867 21.8156 6.69398 21.6903 6.58039 21.5661L6.13771 21.9712ZM6.47657 22.3438C6.68093 22.5678 6.97414 22.667 7.24747 22.667C7.52071 22.667 7.814 22.5678 8.01717 22.3425L7.57157 21.9407C7.50382 22.0159 7.38606 22.067 7.24747 22.067C7.10897 22.067 6.98957 22.0159 6.91988 21.9395L6.47657 22.3438ZM8.0164 22.3434C8.81508 21.4644 9.61291 20.5916 10.4133 19.7119L9.96953 19.3081C9.17125 20.1855 8.37031 21.0617 7.57234 21.9399L8.0164 22.3434ZM10.4128 19.7125C10.5264 19.5883 10.641 19.463 10.7538 19.3375L10.3074 18.9365C10.1968 19.0596 10.084 19.183 9.97009 19.3075L10.4128 19.7125ZM10.5306 18.837H9.43446V19.437H10.5306V18.837ZM9.21243 19.3387C10.0104 20.2169 10.8113 21.0931 11.6096 21.9705L12.0534 21.5668C11.253 20.687 10.4552 19.8142 9.65649 18.9352L9.21243 19.3387ZM11.6102 21.9712C11.7241 22.0957 11.8369 22.219 11.9475 22.3421L12.3939 21.9412C12.2811 21.8156 12.1665 21.6903 12.0529 21.5661L11.6102 21.9712ZM11.949 22.3438C12.1534 22.5678 12.4466 22.667 12.7199 22.667C12.9932 22.667 13.2865 22.5678 13.4896 22.3425L13.044 21.9407C12.9763 22.0159 12.8585 22.067 12.7199 22.067C12.5814 22.067 12.462 22.0159 12.3923 21.9395L11.949 22.3438ZM13.4889 22.3434C14.2875 21.4644 15.0854 20.5916 15.8858 19.7119L15.442 19.3081C14.6437 20.1855 13.8428 21.0617 13.0448 21.9399L13.4889 22.3434ZM15.8852 19.7125C15.9988 19.5883 16.1135 19.463 16.2263 19.3375L15.7799 18.9365C15.6693 19.0596 15.5565 19.183 15.4426 19.3075L15.8852 19.7125ZM16.0031 18.837H14.9069V19.437H16.0031V18.837ZM14.7121 19.3651C15.5106 20.047 16.3103 20.7279 17.1098 21.4068L17.4982 20.9494C16.699 20.2709 15.8999 19.5904 15.1018 18.9089L14.7121 19.3651ZM17.1113 21.408C17.2233 21.5019 17.3308 21.5955 17.4479 21.6959L17.8385 21.2405C17.726 21.144 17.6122 21.0449 17.4967 20.9481L17.1113 21.408ZM17.4485 21.6965C17.757 21.9595 18.1719 22.0884 18.6074 21.9053L18.3749 21.3522C18.1941 21.4282 18.0154 21.3913 17.8378 21.2399L17.4485 21.6965ZM18.6081 21.905C18.9958 21.7408 19.2668 21.3552 19.2668 20.9191H18.6668C18.6668 21.1046 18.549 21.2785 18.3741 21.3525L18.6081 21.905ZM19.2668 4.02042C19.2668 3.66172 19.272 3.28821 19.2668 2.92L18.6669 2.92848C18.672 3.29175 18.6668 3.6497 18.6668 4.02042H19.2668ZM19.2668 2.92071C19.2525 1.70382 18.2707 0.717895 17.0555 0.702327L17.0478 1.30228C17.936 1.31366 18.6563 2.03517 18.6668 2.92777L19.2668 2.92071ZM17.0567 0.702344C16.9296 0.700223 16.7943 0.702302 16.6773 0.702302V1.3023C16.8085 1.3023 16.9255 1.30024 17.0466 1.30226L17.0567 0.702344ZM4.1729 0.702302C3.75934 0.702302 3.33166 0.697118 2.90966 0.702325L2.91706 1.30228C3.33474 1.29713 3.74885 1.3023 4.1729 1.3023V0.702302ZM2.90893 0.702335C1.69311 0.720284 0.712216 1.70715 0.70027 2.9244L1.30024 2.93029C1.309 2.03805 2.02815 1.3154 2.91779 1.30227L2.90893 0.702335ZM0.700256 20.9198C0.700256 21.475 1.17853 22.0238 1.78918 21.9966L1.7625 21.3972C1.53554 21.4073 1.30026 21.1769 1.30026 20.9198H0.700256ZM1.79078 21.9965C2.36311 21.968 2.86582 21.5338 2.86582 20.916H2.26582C2.26582 21.1686 2.06133 21.3823 1.7609 21.3973L1.79078 21.9965ZM7.06678 7.5844H10.2598V6.9844H7.06678V7.5844ZM10.2598 8.86972H7.06678V9.46972H10.2598V8.86972ZM7.06678 8.86972C6.69887 8.86972 6.40887 8.57747 6.40887 8.22706H5.80887C5.80887 8.91789 6.37661 9.46972 7.06678 9.46972V8.86972ZM10.9177 8.22706C10.9177 8.57747 10.6277 8.86972 10.2598 8.86972V9.46972C10.95 9.46972 11.5177 8.91789 11.5177 8.22706H10.9177ZM10.2598 7.5844C10.6277 7.5844 10.9177 7.87665 10.9177 8.22706H11.5177C11.5177 7.53624 10.95 6.9844 10.2598 6.9844V7.5844ZM7.06678 6.9844C6.37661 6.9844 5.80887 7.53624 5.80887 8.22706H6.40887C6.40887 7.87665 6.69887 7.5844 7.06678 7.5844V6.9844ZM7.06678 12.6119H12.8143V12.0119H7.06678V12.6119ZM12.8143 13.8972H7.06678V14.4972H12.8143V13.8972ZM7.06678 13.8972C6.69887 13.8972 6.40887 13.605 6.40887 13.2546H5.80887C5.80887 13.9454 6.37661 14.4972 7.06678 14.4972V13.8972ZM13.4722 13.2546C13.4722 13.605 13.1822 13.8972 12.8143 13.8972V14.4972C13.5044 14.4972 14.0722 13.9454 14.0722 13.2546H13.4722ZM12.8143 12.6119C13.1822 12.6119 13.4722 12.9042 13.4722 13.2546H14.0722C14.0722 12.5638 13.5044 12.0119 12.8143 12.0119V12.6119ZM7.06678 12.0119C6.37661 12.0119 5.80887 12.5638 5.80887 13.2546H6.40887C6.40887 12.9042 6.69887 12.6119 7.06678 12.6119V12.0119ZM2.86582 20.916V2.9399H2.26582V20.916H2.86582ZM3.27005 2.86277H15.3547V2.26277H3.27005V2.86277ZM17.1157 3.36678V20.1835H17.7157V3.36678H17.1157ZM19.2668 20.9191V4.02042H18.6668V20.9191H19.2668ZM16.6773 0.702302H4.1729V1.3023H16.6773V0.702302ZM0.700256 2.92734V20.9198H1.30026V2.92734H0.700256Z" fill="#BDBDBD" mask="url(#path-1-outside-1)"/>
</svg>
