<svg width="20" height="20" viewBox="0 0 20 20" fill="none" xmlns="http://www.w3.org/2000/svg">
<path d="M11.8862 10.3747C10.8543 11.2101 10.8966 12.1246 10.8976 12.1441C10.8976 12.1442 10.8976 12.1442 10.8976 12.1443L10.7478 12.1526C10.7711 12.5613 10.4621 12.9191 10.0541 12.9491L11.8862 10.3747ZM11.8862 10.3747C12.3172 10.0258 12.6349 9.64975 12.844 9.22217C13.0533 8.7943 13.1501 8.32273 13.1501 7.78835C13.1501 6.01051 11.7412 4.5581 10.0001 4.5581C8.23503 4.5581 6.8501 5.94298 6.8501 7.70735C6.8501 8.20504 7.25335 8.60735 7.7501 8.60735C8.24685 8.60735 8.6501 8.20504 8.6501 7.70735C8.6501 6.93519 9.22794 6.35735 10.0001 6.35735C10.7371 6.35735 11.3501 6.99213 11.3501 7.78835C11.3501 8.05912 11.3097 8.26285 11.2203 8.44159C11.1303 8.6213 10.9846 8.78825 10.7533 8.9752L10.7532 8.97528C8.9652 10.4233 9.09583 12.1931 9.10362 12.2866L9.10369 12.2873C9.14522 12.756 9.53739 13.1013 9.99785 13.1013C10.0207 13.1013 10.0425 13.1004 10.0654 13.0987L11.8862 10.3747ZM10.8802 14.6514L10.8799 14.6531C10.8043 15.0908 10.4236 15.4001 9.99335 15.4001C9.94239 15.4001 9.89111 15.3955 9.83961 15.3867H9.83956C9.35 15.3021 9.02142 14.8368 9.10604 14.3471C9.18959 13.8635 9.65156 13.5053 10.1495 13.5918L10.8802 14.6514ZM10.8802 14.6514L10.8867 14.6111C10.8867 14.6108 10.8868 14.6105 10.8868 14.6102L10.8802 14.6514ZM10.8802 14.6514L10.8868 14.6102L10.8802 14.6514ZM10.8868 14.6102C10.9718 14.1147 10.6332 13.6755 10.1495 13.5918L10.8868 14.6102ZM0.850098 10.0001C0.850098 15.0457 4.95451 19.1501 10.0001 19.1501C15.0457 19.1501 19.1501 15.0457 19.1501 10.0001C19.1501 4.95451 15.0457 0.850098 10.0001 0.850098C4.95451 0.850098 0.850098 4.95451 0.850098 10.0001ZM2.6501 10.0001C2.6501 5.94744 5.94744 2.6501 10.0001 2.6501C14.0528 2.6501 17.3501 5.94744 17.3501 10.0001C17.3501 14.0528 14.0528 17.3501 10.0001 17.3501C5.94744 17.3501 2.6501 14.0528 2.6501 10.0001Z" fill="white" stroke="white" stroke-width="0.3"/>
</svg>
