<svg width="20" height="20" viewBox="0 0 20 20" fill="none" xmlns="http://www.w3.org/2000/svg">
<path d="M11.8861 10.3746L11.8861 10.3746C10.8542 11.21 10.8965 12.1245 10.8975 12.144C10.8975 12.1441 10.8975 12.1441 10.8975 12.1442L10.7477 12.1525C10.771 12.5612 10.462 12.919 10.054 12.949L11.8861 10.3746ZM11.8861 10.3746C12.3171 10.0257 12.6348 9.64965 12.8439 9.22207C13.0532 8.7942 13.15 8.32263 13.15 7.78825C13.15 6.01041 11.7411 4.558 10 4.558C8.23493 4.558 6.85 5.94288 6.85 7.70725C6.85 8.20494 7.25325 8.60725 7.75 8.60725C8.24675 8.60725 8.65 8.20494 8.65 7.70725C8.65 6.93509 9.22784 6.35725 10 6.35725C10.737 6.35725 11.35 6.99203 11.35 7.78825C11.35 8.05902 11.3096 8.26275 11.2202 8.44149C11.1302 8.6212 10.9845 8.78815 10.7532 8.9751L10.7531 8.97518C8.9651 10.4232 9.09573 12.193 9.10352 12.2865L9.10359 12.2872C9.14512 12.7559 9.53729 13.1012 9.99775 13.1012C10.0206 13.1012 10.0424 13.1003 10.0653 13.0986L11.8861 10.3746ZM10.8801 14.6513L10.8798 14.653C10.8042 15.0907 10.4235 15.4 9.99325 15.4C9.94229 15.4 9.89101 15.3954 9.83951 15.3866L9.83946 15.3866C9.3499 15.302 9.02132 14.8367 9.10594 14.347C9.18949 13.8634 9.65146 13.5052 10.1494 13.5917L10.8801 14.6513ZM10.8801 14.6513L10.8866 14.611C10.8866 14.6107 10.8867 14.6104 10.8867 14.6101M10.8801 14.6513L10.8867 14.6101M10.8867 14.6101C10.9717 14.1146 10.6331 13.6754 10.1494 13.5917L10.8867 14.6101ZM0.85 10C0.85 15.0456 4.95441 19.15 10 19.15C15.0456 19.15 19.15 15.0456 19.15 10C19.15 4.95441 15.0456 0.85 10 0.85C4.95441 0.85 0.85 4.95441 0.85 10ZM2.65 10C2.65 5.94734 5.94734 2.65 10 2.65C14.0527 2.65 17.35 5.94734 17.35 10C17.35 14.0527 14.0527 17.35 10 17.35C5.94734 17.35 2.65 14.0527 2.65 10Z" fill="#BDBDBD" stroke="#E0E0E0" stroke-width="0.3"/>
</svg>
