<svg width="25" height="6" viewBox="0 0 25 6" fill="none" xmlns="http://www.w3.org/2000/svg">
<path fill-rule="evenodd" clip-rule="evenodd" d="M21.875 6C20.1521 6 18.75 4.654 18.75 3C18.75 1.346 20.1521 0 21.875 0C23.5979 0 25 1.346 25 3C25 4.654 23.5979 6 21.875 6ZM21.875 2C21.301 2 20.8333 2.448 20.8333 3C20.8333 3.552 21.301 4 21.875 4C22.449 4 22.9167 3.552 22.9167 3C22.9167 2.448 22.449 2 21.875 2ZM12.5 6C10.7771 6 9.375 4.654 9.375 3C9.375 1.346 10.7771 0 12.5 0C14.2229 0 15.625 1.346 15.625 3C15.625 4.654 14.2229 6 12.5 6ZM12.5 2C11.926 2 11.4583 2.448 11.4583 3C11.4583 3.552 11.926 4 12.5 4C13.074 4 13.5417 3.552 13.5417 3C13.5417 2.448 13.074 2 12.5 2ZM3.125 6C1.40208 6 0 4.654 0 3C0 1.346 1.40208 0 3.125 0C4.84792 0 6.25 1.346 6.25 3C6.25 4.654 4.84792 6 3.125 6ZM3.125 2C2.55104 2 2.08333 2.448 2.08333 3C2.08333 3.552 2.55104 4 3.125 4C3.69896 4 4.16667 3.552 4.16667 3C4.16667 2.448 3.69896 2 3.125 2Z" fill="#182538"/>
</svg>
