<svg width="21" height="27" viewBox="0 0 21 27" fill="none" xmlns="http://www.w3.org/2000/svg">
<path fill-rule="evenodd" clip-rule="evenodd" d="M11.4 4L19 11.6288V24.2163C19 25.6909 17.8091 26.8864 16.34 26.8864H2.66C1.19092 26.8864 0 25.6909 0 24.2163V6.67008C0 5.19543 1.19092 4 2.66 4H11.4Z" fill="#E94848"/>
<path d="M8.86016 12.3917C8.36203 12.3917 7.95238 12.8029 7.95238 13.3029C7.95238 13.9245 8.29644 14.6961 8.65875 15.4215C8.37555 16.3113 8.05418 17.265 7.64317 18.0697C6.80193 18.401 6.05171 18.6473 5.60067 19.0122C5.59363 19.0194 5.58701 19.027 5.58081 19.035C5.41599 19.2042 5.31982 19.4345 5.31982 19.6814C5.31982 20.1814 5.72948 20.5926 6.2276 20.5926C6.47051 20.5926 6.70497 20.5016 6.87439 20.3278C6.88026 20.3233 6.88594 20.3185 6.89141 20.3135C7.22343 19.9156 7.61492 19.1937 7.96373 18.5338C8.76763 18.2164 9.6102 17.8934 10.4232 17.6995C11.0168 18.1796 11.8754 18.4968 12.582 18.4968C13.0802 18.4968 13.4898 18.0856 13.4898 17.5856C13.4898 17.0856 13.0802 16.6744 12.582 16.6744C12.0154 16.6744 11.1919 16.8774 10.5622 17.0901C10.0519 16.6092 9.58298 16.0085 9.24596 15.3702C9.48676 14.6256 9.76794 13.8806 9.76794 13.3029C9.76794 12.8029 9.35828 12.3917 8.86016 12.3917ZM8.86016 12.9384C9.06393 12.9384 9.22327 13.0983 9.22327 13.3029C9.22327 13.5764 9.07737 14.0799 8.90838 14.6213C8.68258 14.0946 8.49705 13.5893 8.49705 13.3029C8.49705 13.0983 8.65639 12.9384 8.86016 12.9384ZM9.01618 16.0565C9.28921 16.4924 9.60898 16.898 9.958 17.2581C9.41967 17.4059 8.89391 17.5952 8.37506 17.7935C8.62566 17.2257 8.82627 16.6366 9.01618 16.0565ZM12.582 17.2211C12.7858 17.2211 12.9452 17.381 12.9452 17.5856C12.9452 17.7901 12.7858 17.9501 12.582 17.9501C12.173 17.9501 11.5916 17.7647 11.1268 17.5059C11.6603 17.3544 12.2424 17.2211 12.582 17.2211ZM7.16375 18.8528C6.90847 19.3101 6.65472 19.7371 6.47724 19.9519C6.41661 20.0101 6.33596 20.0459 6.2276 20.0459C6.02384 20.0459 5.86449 19.8859 5.86449 19.6814C5.86449 19.5851 5.90525 19.4895 5.96094 19.428C6.1739 19.2625 6.63718 19.0643 7.16375 18.8528Z" fill="white"/>
<g filter="url(#filter0_d)">
<path d="M19 11.6288H14.1943C12.7253 11.6288 11.4 10.2985 11.4 8.82386V4L19 11.6288Z" fill="#F82E2E"/>
</g>
<path d="M19 11.6288H14.1943C12.7253 11.6288 11.4 10.2985 11.4 8.82386V4L19 11.6288Z" fill="white" fill-opacity="0.4"/>
<defs>
<filter id="filter0_d" x="9.3999" y="1.90735e-06" width="11.6" height="11.6288" filterUnits="userSpaceOnUse" color-interpolation-filters="sRGB">
<feFlood flood-opacity="0" result="BackgroundImageFix"/>
<feColorMatrix in="SourceAlpha" type="matrix" values="0 0 0 0 0 0 0 0 0 0 0 0 0 0 0 0 0 0 127 0"/>
<feOffset dy="-2"/>
<feGaussianBlur stdDeviation="1"/>
<feColorMatrix type="matrix" values="0 0 0 0 0 0 0 0 0 0 0 0 0 0 0 0 0 0 0.0909637 0"/>
<feBlend mode="normal" in2="BackgroundImageFix" result="effect1_dropShadow"/>
<feBlend mode="normal" in="SourceGraphic" in2="effect1_dropShadow" result="shape"/>
</filter>
</defs>
</svg>
