<svg width="18" height="18" viewBox="0 0 18 18" fill="none" xmlns="http://www.w3.org/2000/svg">
<path d="M9.08955 6.09396C7.32249 6.09396 5.87734 7.53911 5.87734 9.30616C5.87734 11.0732 7.32249 12.5184 9.08955 12.5184C10.8566 12.5184 12.3018 11.0732 12.3018 9.30616C12.3018 7.53911 10.8566 6.09396 9.08955 6.09396ZM9.08955 11.1976C8.04958 11.1976 7.19808 10.3461 7.19808 9.30616C7.19808 8.26619 8.04958 7.41469 9.08955 7.41469C10.1295 7.41469 10.981 8.26619 10.981 9.30616C10.981 10.3461 10.1295 11.1976 9.08955 11.1976Z" fill="#BDBDBD" stroke="#BDBDBD" stroke-width="0.3"/>
<path d="M3.95275 15.8257L3.95249 15.8259L3.60799 16.196L3.50671 16.3047L3.61456 16.407L4.35459 17.1088L4.46444 17.2129L4.56759 17.1021L4.91181 16.7324C4.91186 16.7324 4.91191 16.7323 4.91196 16.7323C6.00658 15.5631 7.4853 14.9171 9.08939 14.9171C10.6934 14.9171 12.1721 15.5631 13.2667 16.7322C13.2668 16.7322 13.2669 16.7323 13.267 16.7324L13.6112 17.1021L13.7143 17.2129L13.8242 17.1088L14.5642 16.407L14.6721 16.3047L14.5708 16.196L14.2263 15.8259L14.2256 15.8252C12.8964 14.4178 11.0326 13.5963 9.08939 13.5963C7.14674 13.5963 5.28253 14.4046 3.95275 15.8257Z" fill="#BDBDBD" stroke="#BDBDBD" stroke-width="0.3"/>
<path d="M13.2998 6.84683H13.1498V6.99683V8.01757V8.16757H13.2998C14.4572 8.16757 15.5279 8.63487 16.3294 9.48565L16.4326 9.5952L16.5418 9.49164L17.2818 8.78989L17.3895 8.68775L17.2885 8.57898C16.2646 7.47633 14.8084 6.84683 13.2998 6.84683Z" fill="#BDBDBD" stroke="#BDBDBD" stroke-width="0.3"/>
<path d="M15.8868 3.437C15.8868 2.01445 14.7224 0.85 13.2998 0.85C11.8772 0.85 10.7128 2.01445 10.7128 3.437C10.7128 4.85956 11.8772 6.02401 13.2998 6.02401C14.7224 6.02401 15.8868 4.85956 15.8868 3.437ZM12.0335 3.437C12.0335 2.74154 12.6043 2.17073 13.2998 2.17073C13.9953 2.17073 14.5661 2.74154 14.5661 3.437C14.5661 4.13247 13.9953 4.70327 13.2998 4.70327C12.6043 4.70327 12.0335 4.13247 12.0335 3.437Z" fill="#BDBDBD" stroke="#BDBDBD" stroke-width="0.3"/>
<path d="M5.02879 6.99683V6.84683H4.87879C3.3702 6.84683 1.91397 7.47633 0.890081 8.57898L0.789077 8.68775L0.896786 8.78989L1.63682 9.49164L1.74687 9.596L1.85001 9.48481C2.63793 8.63533 3.72075 8.16757 4.87879 8.16757H5.02879V8.01757V6.99683Z" fill="#BDBDBD" stroke="#BDBDBD" stroke-width="0.3"/>
<path d="M7.4659 3.437C7.4659 2.01445 6.30145 0.85 4.8789 0.85C3.45634 0.85 2.29189 2.01445 2.29189 3.437C2.29189 4.85956 3.45634 6.02401 4.8789 6.02401C6.30145 6.02401 7.4659 4.85956 7.4659 3.437ZM4.8789 4.70327C4.18343 4.70327 3.61263 4.13247 3.61263 3.437C3.61263 2.74154 4.18343 2.17073 4.8789 2.17073C5.57437 2.17073 6.14517 2.74154 6.14517 3.437C6.14517 4.13247 5.57437 4.70327 4.8789 4.70327Z" fill="#BDBDBD" stroke="#BDBDBD" stroke-width="0.3"/>
</svg>
