<svg width="18" height="18" viewBox="0 0 18 18" fill="none" xmlns="http://www.w3.org/2000/svg">
<path d="M9.08965 6.09375C7.32259 6.09375 5.87744 7.5389 5.87744 9.30595C5.87744 11.073 7.32259 12.5182 9.08965 12.5182C10.8567 12.5182 12.3019 11.073 12.3019 9.30595C12.3019 7.5389 10.8567 6.09375 9.08965 6.09375ZM9.08965 11.1974C8.04968 11.1974 7.19818 10.3459 7.19818 9.30595C7.19818 8.26598 8.04968 7.41448 9.08965 7.41448C10.1296 7.41448 10.9811 8.26598 10.9811 9.30595C10.9811 10.3459 10.1296 11.1974 9.08965 11.1974Z" fill="white" stroke="white" stroke-width="0.3"/>
<path d="M3.95288 15.8256L3.95262 15.8258L3.60812 16.1959L3.50684 16.3046L3.61469 16.4069L4.35472 17.1087L4.46457 17.2128L4.56772 17.102L4.91194 16.7323C4.91199 16.7323 4.91204 16.7322 4.91209 16.7322C6.00671 15.563 7.48543 14.917 9.08952 14.917C10.6935 14.917 12.1722 15.563 13.2668 16.7321C13.2669 16.7321 13.267 16.7322 13.2671 16.7323L13.6113 17.102L13.7144 17.2128L13.8243 17.1087L14.5643 16.4069L14.6722 16.3046L14.5709 16.1959L14.2264 15.8258L14.2257 15.8251C12.8965 14.4177 11.0327 13.5962 9.08952 13.5962C7.14687 13.5962 5.28266 14.4045 3.95288 15.8256Z" fill="white" stroke="white" stroke-width="0.3"/>
<path d="M13.2999 6.84668H13.1499V6.99668V8.01742V8.16742H13.2999C14.4573 8.16742 15.528 8.63472 16.3295 9.4855L16.4327 9.59505L16.5419 9.49149L17.2819 8.78974L17.3896 8.6876L17.2886 8.57883C16.2647 7.47618 14.8085 6.84668 13.2999 6.84668Z" fill="white" stroke="white" stroke-width="0.3"/>
<path d="M15.8869 3.4371C15.8869 2.01455 14.7225 0.850098 13.2999 0.850098C11.8773 0.850098 10.7129 2.01455 10.7129 3.4371C10.7129 4.85966 11.8773 6.02411 13.2999 6.02411C14.7225 6.02411 15.8869 4.85966 15.8869 3.4371ZM12.0336 3.4371C12.0336 2.74164 12.6044 2.17083 13.2999 2.17083C13.9954 2.17083 14.5662 2.74164 14.5662 3.4371C14.5662 4.13257 13.9954 4.70337 13.2999 4.70337C12.6044 4.70337 12.0336 4.13257 12.0336 3.4371Z" fill="white" stroke="white" stroke-width="0.3"/>
<path d="M5.02878 6.99668V6.84668H4.87878C3.37019 6.84668 1.91396 7.47618 0.890067 8.57883L0.789062 8.6876L0.896771 8.78974L1.63681 9.49149L1.74686 9.59585L1.85 9.48466C2.63792 8.63518 3.72074 8.16742 4.87878 8.16742H5.02878V8.01742V6.99668Z" fill="white" stroke="white" stroke-width="0.3"/>
<path d="M7.466 3.4371C7.466 2.01455 6.30155 0.850098 4.879 0.850098C3.45644 0.850098 2.29199 2.01455 2.29199 3.4371C2.29199 4.85966 3.45644 6.02411 4.879 6.02411C6.30155 6.02411 7.466 4.85966 7.466 3.4371ZM4.879 4.70337C4.18353 4.70337 3.61273 4.13257 3.61273 3.4371C3.61273 2.74164 4.18353 2.17083 4.879 2.17083C5.57447 2.17083 6.14527 2.74164 6.14527 3.4371C6.14527 4.13257 5.57447 4.70337 4.879 4.70337Z" fill="white" stroke="white" stroke-width="0.3"/>
</svg>
