<svg width="17" height="17" viewBox="0 0 17 17" fill="none" xmlns="http://www.w3.org/2000/svg">
<path d="M14.2969 9.14663L16.0577 10.5242C16.2144 10.6516 16.2602 10.8766 16.156 11.0566L14.4894 13.9434C14.386 14.1233 14.1677 14.1966 13.9794 14.1241L11.9044 13.2875C11.4744 13.6183 11.0035 13.8967 10.4969 14.1075L10.1844 16.3158C10.1527 16.5142 9.98019 16.6666 9.77269 16.6666H6.43935C6.23101 16.6666 6.05936 16.5142 6.0277 16.3158L5.7152 14.1075C5.20769 13.8975 4.73684 13.6183 4.30685 13.2883L2.23267 14.1241C2.04436 14.1966 1.82601 14.1233 1.72269 13.9434L0.0560222 11.0566C-0.0481445 10.8766 -0.00233609 10.6516 0.154356 10.5242L1.91436 9.14663L1.85601 8.33329L1.91436 7.52004L0.154356 6.14163C-0.00233609 6.01502 -0.0481445 5.79 0.0560222 5.61001L1.72269 2.72332C1.82601 2.54333 2.04436 2.47003 2.23267 2.54252L4.30601 3.37836C4.73601 3.04837 5.20684 2.76917 5.7152 2.55833L6.0277 0.350883C6.05936 0.15245 6.23101 0 6.43935 0H9.77269C9.98019 0 10.1527 0.15245 10.1844 0.350883L10.4969 2.55913C11.0044 2.76917 11.4752 3.04837 11.9052 3.37836L13.9794 2.54252C14.1677 2.47003 14.386 2.54333 14.4894 2.72332L16.156 5.61001C16.2602 5.79 16.2144 6.01502 16.0577 6.14163L14.2969 7.52004L14.3552 8.33329L14.2969 9.14663ZM3.52318 8.33496C3.52318 8.81613 3.59733 9.27996 3.73481 9.71571L2.01039 11.1353L2.63539 12.2178L4.72914 11.4335C5.35207 12.112 6.1769 12.6025 7.10844 12.8093L7.47619 15.0157H8.72619L9.09352 12.8118C10.0269 12.6069 10.8539 12.1175 11.4787 11.4391L13.5696 12.2225L14.1946 11.14L12.4754 9.72463C12.6147 9.28629 12.6899 8.81938 12.6899 8.33496C12.6899 7.85663 12.6166 7.39546 12.4806 6.96196L14.1973 5.54874L13.5723 4.46621L11.4921 5.24551C10.8664 4.56024 10.0355 4.0656 9.09661 3.85885L8.73152 1.6683H7.48152L7.11644 3.85885C6.17874 4.06533 5.34876 4.55894 4.72337 5.2428L2.63806 4.46157L2.01307 5.5441L3.733 6.96004C3.59667 7.39404 3.52318 7.85596 3.52318 8.33496ZM8.10652 5.41829C9.71736 5.41829 11.0232 6.72413 11.0232 8.33496C11.0232 9.94579 9.71736 11.2516 8.10652 11.2516C6.49569 11.2516 5.18986 9.94579 5.18986 8.33496C5.18986 6.72413 6.49569 5.41829 8.10652 5.41829ZM8.10652 7.08496C7.41619 7.08496 6.85652 7.64463 6.85652 8.33496C6.85652 9.02529 7.41619 9.58496 8.10652 9.58496C8.79686 9.58496 9.35652 9.02529 9.35652 8.33496C9.35652 7.64463 8.79686 7.08496 8.10652 7.08496Z" fill="#828282"/>
</svg>
