<svg width="88" height="34" viewBox="0 0 88 34" fill="none" xmlns="http://www.w3.org/2000/svg">
<path d="M47.659 2.60096C41.8754 2.60096 35.879 2.14715 30.1158 2.60096C22.6241 3.1909 15.7675 7.89097 11.4653 13.9628C8.06263 18.7652 7.6218 25.236 10.7076 30.3356C13.0861 34.2662 19.0618 33.141 22.4225 31.4427C32.2772 26.4626 35.1356 12.2473 32.8551 2.25136C32.2057 -0.59544 30.8865 2.12766 30.6987 3.41669C29.9024 8.88057 31.3629 15.7755 34.4579 20.343C39.1007 27.1947 46.9888 27.084 51.3891 20.1099C52.9303 17.6673 53.4855 14.6809 54.1867 11.9235C55.3922 7.18324 57.0896 11.1867 58.3248 13.8463C58.4556 14.1279 63.8336 25.0202 65.1439 22.2366C66.1769 20.0422 64.5092 15.8211 63.8034 13.788C63.6286 13.2846 60.3033 7.09111 61.2098 9.44722C61.485 10.1625 63.7088 15.6614 64.5028 13.8754C65.9235 10.6798 72.9953 16.8056 74.8771 14.9242C76.9333 12.8686 73.0458 6.15985 71.7881 4.40721C71.2922 3.71605 70.8292 3.4911 71.0013 4.52374C71.1888 5.64846 71.9464 7.01092 72.4584 7.9323C74.2712 11.1944 78.7173 19.9976 83.2116 20.1973C83.8095 20.2239 85.1103 19.5963 83.6196 19.3816C74.7535 18.1046 65.1173 18.8209 56.2266 19.0903C44.1715 19.4555 32.2924 20.7053 20.4409 22.9358C17.1669 23.552 12.0978 24.6667 8.72601 25.4413C6.87399 25.8667 2.84559 26.2364 1.12008 27.4223C0.458844 27.8768 2.70725 27.7136 3.50968 27.7136C7.36897 27.7136 10.3836 27.5891 14.3795 27.2475C28.1699 26.0687 41.7519 23.3734 55.2941 20.6052C65.8518 18.447 76.2569 15.557 87 14.662" stroke="#182538" stroke-width="2" stroke-linecap="round" stroke-linejoin="round"/>
</svg>
