<svg width="26" height="21" viewBox="0 0 26 21" fill="none" xmlns="http://www.w3.org/2000/svg">
<path d="M26 9.75C26 14.7683 22.2081 18.9015 17.3333 19.4404V17.2564C21.0083 16.7307 23.8333 13.5701 23.8333 9.75C23.8333 5.56183 20.4382 2.16667 16.25 2.16667C12.4302 2.16667 9.27333 4.99254 8.74738 8.66667H6.5C4.10692 8.66667 2.16667 10.6066 2.16667 13C2.16667 14.7951 3.25785 16.3348 4.81325 16.9929C5.3319 17.212 5.90173 17.3333 6.5 17.3333H10.8333V19.5H6.52112C6.51408 19.5 6.50731 19.5005 6.50027 19.5005C2.91037 19.5005 0 16.5902 0 13.0003C0 9.4101 2.91038 6.5 6.5 6.5H7.05738C8.39638 2.71375 12.0052 0 16.25 0C21.6347 0 26 4.36529 26 9.75ZM18.0993 13.7665C18.5223 13.3434 18.5223 12.6574 18.0993 12.2346L14.8492 8.98462C14.6461 8.7815 14.3704 8.66721 14.0833 8.66721C13.7963 8.66721 13.5205 8.7815 13.3174 8.98462L10.0674 12.2346C9.64438 12.6577 9.64438 13.3437 10.0674 13.7665C10.4905 14.1895 11.1765 14.1895 11.5992 13.7665L13 12.366V19.5005C13 20.0988 13.4851 20.5839 14.0833 20.5839C14.6816 20.5839 15.1667 20.0988 15.1667 19.5005V12.366L16.5674 13.7665C16.9902 14.1898 17.6765 14.1898 18.0993 13.7665Z" fill="#919AA3"/>
</svg>
