<svg width="15" height="17" viewBox="0 0 15 17" fill="none" xmlns="http://www.w3.org/2000/svg">
<path d="M1.6501 16.5017H13.3501C13.7895 16.5017 14.1501 16.1502 14.1501 15.7121V15.2854C14.1501 12.6781 12.2749 10.4059 9.74151 9.5408C11.2032 8.75655 12.2001 7.23167 12.2001 5.47765C12.2001 2.9235 10.0897 0.850098 7.5001 0.850098C4.91054 0.850098 2.8001 2.9235 2.8001 5.47765C2.8001 7.23167 3.79695 8.75655 5.25869 9.5408C2.72528 10.4059 0.850098 12.6781 0.850098 15.2854V15.7121C0.850098 16.1502 1.21074 16.5017 1.6501 16.5017ZM7.5001 2.4294C9.21159 2.4294 10.6001 3.79924 10.6001 5.47765C10.6001 7.15607 9.21159 8.5259 7.5001 8.5259C5.78861 8.5259 4.4001 7.15607 4.4001 5.47765C4.4001 3.79924 5.78861 2.4294 7.5001 2.4294ZM2.46722 14.9224C2.67998 12.6366 4.88708 10.7449 7.5001 10.7449C10.1131 10.7449 12.3202 12.6366 12.533 14.9224H2.46722Z" fill="white" stroke="white" stroke-width="0.3"/>
</svg>
