<svg width="15" height="17" viewBox="0 0 15 17" fill="none" xmlns="http://www.w3.org/2000/svg">
<path d="M1.65 16.5016H13.35C13.7894 16.5016 14.15 16.1501 14.15 15.712V15.2853C14.15 12.678 12.2748 10.4058 9.74141 9.5407C11.2031 8.75645 12.2 7.23157 12.2 5.47755C12.2 2.9234 10.0896 0.85 7.5 0.85C4.91044 0.85 2.8 2.9234 2.8 5.47755C2.8 7.23157 3.79685 8.75645 5.25859 9.5407C2.72518 10.4058 0.85 12.678 0.85 15.2853V15.712C0.85 16.1501 1.21064 16.5016 1.65 16.5016ZM7.5 2.4293C9.21149 2.4293 10.6 3.79914 10.6 5.47755C10.6 7.15597 9.21149 8.5258 7.5 8.5258C5.78851 8.5258 4.4 7.15597 4.4 5.47755C4.4 3.79914 5.78851 2.4293 7.5 2.4293ZM2.46712 14.9223C2.67988 12.6365 4.88698 10.7448 7.5 10.7448C10.113 10.7448 12.3201 12.6365 12.5329 14.9223H2.46712Z" fill="#BDBDBD" stroke="#BDBDBD" stroke-width="0.3"/>
</svg>
