<svg width="28" height="20" viewBox="0 0 28 20" fill="none" xmlns="http://www.w3.org/2000/svg">
<path d="M10 0C12.76 0 15 2.23999 15 5C15 7.75875 12.76 10 10 10C7.23999 10 5 7.75875 5 5C5 2.23999 7.23999 0 10 0ZM10.0001 2.50001C8.62153 2.50001 7.50005 3.62145 7.50005 5.00001C7.50005 6.37857 8.62153 7.5 10.0001 7.5C11.3786 7.5 12.5 6.37857 12.5 5.00001C12.5 3.62145 11.3786 2.50001 10.0001 2.50001ZM10 11.25C13.3338 11.25 20 12.9187 20 16.25V20H0V16.25C0 12.9187 6.66626 11.25 10 11.25ZM10 13.625C6.2825 13.625 2.37498 15.4462 2.37498 16.25V17.625H17.625V16.25C17.625 15.4462 13.7175 13.625 10 13.625ZM17.5 0C20.26 0 22.5 2.24 22.5 5C22.5 7.75875 20.26 10 17.5 10C16.9156 10 16.3545 9.8995 15.833 9.71488C16.8755 8.42675 17.5 6.78629 17.5 5C17.5 3.21368 16.8755 1.5732 15.8329 0.285013C16.3544 0.10045 16.9155 0 17.5 0ZM27.5 16.25V20H22.5V15.625C22.5 14.0653 21.5556 12.6269 19.9643 11.4733C23.3524 12.0291 27.5 13.6224 27.5 16.25Z" fill="#FBB900"/>
</svg>
