<svg width="21" height="28" viewBox="0 0 21 28" fill="none" xmlns="http://www.w3.org/2000/svg">
<path d="M10.4991 0.255371C14.8473 0.255371 18.3741 3.75169 18.3741 8.06473C18.3741 13.9218 10.4991 22.5679 10.4991 22.5679C10.4991 22.5679 2.62409 13.9218 2.62409 8.06473C2.62409 3.75169 6.15097 0.255371 10.4991 0.255371ZM10.5 5.50788C9.05021 5.50788 7.875 6.68313 7.875 8.13288C7.875 9.58263 9.05021 10.7579 10.5 10.7579C11.9498 10.7579 13.125 9.58263 13.125 8.13288C13.125 6.68313 11.9498 5.50788 10.5 5.50788ZM21 22.5704C21 25.4698 16.299 27.8204 10.5 27.8204C4.70101 27.8204 0 25.4698 0 22.5704C0 20.8787 1.60025 19.3739 4.08518 18.4137L4.91609 19.6005C3.50007 20.1937 2.625 21.0113 2.625 21.9141C2.625 23.7263 6.15076 25.1954 10.5 25.1954C14.8492 25.1954 18.375 23.7263 18.375 21.9141C18.375 21.0113 17.5 20.1937 16.0839 19.6003L16.9148 18.4137C19.3997 19.3739 21 20.8787 21 22.5704Z" fill="#45D45C"/>
</svg>
